%TF.GenerationSoftware,KiCad,Pcbnew,8.0.9-8.0.9-0~ubuntu22.04.1*%
%TF.CreationDate,2025-08-02T16:06:54-04:00*%
%TF.ProjectId,task-controller,7461736b-2d63-46f6-9e74-726f6c6c6572,rev?*%
%TF.SameCoordinates,Original*%
%TF.FileFunction,Copper,L4,Bot*%
%TF.FilePolarity,Positive*%
%FSLAX46Y46*%
G04 Gerber Fmt 4.6, Leading zero omitted, Abs format (unit mm)*
G04 Created by KiCad (PCBNEW 8.0.9-8.0.9-0~ubuntu22.04.1) date 2025-08-02 16:06:54*
%MOMM*%
%LPD*%
G01*
G04 APERTURE LIST*
%TA.AperFunction,EtchedComponent*%
%ADD10C,0.000000*%
%TD*%
%TA.AperFunction,ComponentPad*%
%ADD11R,1.700000X1.700000*%
%TD*%
%TA.AperFunction,ComponentPad*%
%ADD12O,1.700000X1.700000*%
%TD*%
%TA.AperFunction,ComponentPad*%
%ADD13C,3.100000*%
%TD*%
%TA.AperFunction,ConnectorPad*%
%ADD14C,5.400000*%
%TD*%
%TA.AperFunction,HeatsinkPad*%
%ADD15O,2.100000X1.000000*%
%TD*%
%TA.AperFunction,HeatsinkPad*%
%ADD16O,1.800000X1.000000*%
%TD*%
%TA.AperFunction,ViaPad*%
%ADD17C,0.600000*%
%TD*%
%TA.AperFunction,Conductor*%
%ADD18C,0.200000*%
%TD*%
%TA.AperFunction,Conductor*%
%ADD19C,0.250000*%
%TD*%
G04 APERTURE END LIST*
D10*
%TA.AperFunction,EtchedComponent*%
%TO.C,G2*%
G36*
X62892759Y-86016108D02*
G01*
X62843814Y-86053518D01*
X62794133Y-86089130D01*
X62743117Y-86123429D01*
X62690168Y-86156900D01*
X62684656Y-86160256D01*
X62669997Y-86169032D01*
X62652065Y-86179615D01*
X62631819Y-86191447D01*
X62610213Y-86203972D01*
X62588203Y-86216631D01*
X62566746Y-86228867D01*
X62549425Y-86238699D01*
X62496227Y-86268927D01*
X62447308Y-86296791D01*
X62402354Y-86322480D01*
X62361054Y-86346187D01*
X62323098Y-86368104D01*
X62288172Y-86388421D01*
X62255965Y-86407330D01*
X62226166Y-86425023D01*
X62198463Y-86441691D01*
X62172544Y-86457525D01*
X62148098Y-86472718D01*
X62124813Y-86487461D01*
X62102377Y-86501945D01*
X62080478Y-86516361D01*
X62058806Y-86530902D01*
X62037048Y-86545758D01*
X62014893Y-86561121D01*
X61992028Y-86577183D01*
X61968143Y-86594136D01*
X61942925Y-86612170D01*
X61913477Y-86633280D01*
X61877759Y-86658842D01*
X61845449Y-86681903D01*
X61816010Y-86702836D01*
X61788908Y-86722010D01*
X61763608Y-86739799D01*
X61739576Y-86756572D01*
X61716276Y-86772702D01*
X61693175Y-86788560D01*
X61669737Y-86804516D01*
X61645428Y-86820943D01*
X61619713Y-86838212D01*
X61592057Y-86856693D01*
X61561925Y-86876759D01*
X61539113Y-86891949D01*
X61495275Y-86921254D01*
X61455403Y-86948099D01*
X61419113Y-86972760D01*
X61386026Y-86995517D01*
X61355759Y-87016649D01*
X61327932Y-87036434D01*
X61319657Y-87042445D01*
X61302164Y-87055150D01*
X61278072Y-87073077D01*
X61255276Y-87090492D01*
X61233394Y-87107674D01*
X61212046Y-87124903D01*
X61190849Y-87142456D01*
X61169423Y-87160612D01*
X61147387Y-87179650D01*
X61107523Y-87215085D01*
X61063303Y-87255808D01*
X61016701Y-87300023D01*
X60968118Y-87347304D01*
X60917957Y-87397223D01*
X60866619Y-87449353D01*
X60814507Y-87503267D01*
X60762021Y-87558538D01*
X60709565Y-87614740D01*
X60657539Y-87671445D01*
X60606346Y-87728226D01*
X60556388Y-87784656D01*
X60508066Y-87840308D01*
X60461783Y-87894755D01*
X60417939Y-87947570D01*
X60376938Y-87998326D01*
X60342828Y-88041777D01*
X60302145Y-88095163D01*
X60261685Y-88150028D01*
X60221192Y-88206757D01*
X60180407Y-88265733D01*
X60139074Y-88327342D01*
X60107207Y-88376216D01*
X60096935Y-88391969D01*
X60053731Y-88459997D01*
X60009207Y-88531813D01*
X59963104Y-88607800D01*
X59915165Y-88688343D01*
X59899255Y-88715390D01*
X59830749Y-88833875D01*
X59765215Y-88950695D01*
X59702311Y-89066551D01*
X59641694Y-89182145D01*
X59583022Y-89298177D01*
X59525950Y-89415349D01*
X59470136Y-89534361D01*
X59415238Y-89655916D01*
X59360911Y-89780714D01*
X59339678Y-89831246D01*
X59306814Y-89909456D01*
X59252603Y-90042844D01*
X59246878Y-90057180D01*
X59217897Y-90130713D01*
X59191232Y-90200098D01*
X59166720Y-90265835D01*
X59144193Y-90328424D01*
X59123488Y-90388364D01*
X59104438Y-90446153D01*
X59086878Y-90502293D01*
X59070642Y-90557283D01*
X59055566Y-90611621D01*
X59041484Y-90665808D01*
X59028230Y-90720342D01*
X59014834Y-90779495D01*
X58999836Y-90850765D01*
X58985021Y-90926355D01*
X58970466Y-91005710D01*
X58956249Y-91088276D01*
X58942446Y-91173497D01*
X58929134Y-91260820D01*
X58916390Y-91349691D01*
X58907020Y-91419277D01*
X58904290Y-91439554D01*
X58892912Y-91529855D01*
X58882332Y-91620039D01*
X58872627Y-91709552D01*
X58863873Y-91797840D01*
X58856148Y-91884348D01*
X58849529Y-91968521D01*
X58844091Y-92049805D01*
X58842742Y-92072930D01*
X58836799Y-92206616D01*
X58833819Y-92342597D01*
X58833806Y-92479183D01*
X58836762Y-92614685D01*
X58842691Y-92747411D01*
X58847469Y-92823702D01*
X58856067Y-92936483D01*
X58866579Y-93051805D01*
X58867421Y-93059804D01*
X58878880Y-93168691D01*
X58892844Y-93286160D01*
X58908347Y-93403235D01*
X58925264Y-93518937D01*
X58943470Y-93632288D01*
X58962840Y-93742308D01*
X58983248Y-93848018D01*
X58989202Y-93877205D01*
X58997709Y-93917981D01*
X59006150Y-93957211D01*
X59014722Y-93995732D01*
X59023622Y-94034381D01*
X59033046Y-94073994D01*
X59043192Y-94115410D01*
X59054256Y-94159465D01*
X59066436Y-94206995D01*
X59079929Y-94258838D01*
X59091378Y-94302752D01*
X59104841Y-94355031D01*
X59116951Y-94402910D01*
X59127798Y-94446810D01*
X59137471Y-94487154D01*
X59146060Y-94524362D01*
X59153654Y-94558857D01*
X59160344Y-94591059D01*
X59166218Y-94621391D01*
X59171368Y-94650272D01*
X59175881Y-94678126D01*
X59179848Y-94705374D01*
X59182194Y-94723457D01*
X59183359Y-94732436D01*
X59186503Y-94759735D01*
X59187598Y-94772401D01*
X59188635Y-94791204D01*
X59189379Y-94813025D01*
X59189830Y-94836816D01*
X59189990Y-94861530D01*
X59189857Y-94886121D01*
X59189434Y-94909541D01*
X59188719Y-94930744D01*
X59187715Y-94948682D01*
X59186420Y-94962309D01*
X59183724Y-94981246D01*
X59175052Y-95027039D01*
X59163379Y-95071694D01*
X59148545Y-95115435D01*
X59130391Y-95158483D01*
X59108758Y-95201062D01*
X59083487Y-95243394D01*
X59054418Y-95285703D01*
X59021393Y-95328211D01*
X58984253Y-95371141D01*
X58942839Y-95414716D01*
X58896991Y-95459159D01*
X58846551Y-95504692D01*
X58791359Y-95551538D01*
X58731256Y-95599920D01*
X58716911Y-95611155D01*
X58662698Y-95652936D01*
X58604785Y-95696596D01*
X58543952Y-95741578D01*
X58480982Y-95787328D01*
X58416657Y-95833291D01*
X58351759Y-95878910D01*
X58287069Y-95923631D01*
X58223370Y-95966898D01*
X58161443Y-96008157D01*
X58102070Y-96046850D01*
X58098884Y-96048900D01*
X58021430Y-96098336D01*
X57947887Y-96144462D01*
X57878043Y-96187389D01*
X57811687Y-96227228D01*
X57748608Y-96264090D01*
X57688595Y-96298087D01*
X57631435Y-96329329D01*
X57576918Y-96357927D01*
X57524832Y-96383993D01*
X57474965Y-96407636D01*
X57427107Y-96428969D01*
X57381046Y-96448103D01*
X57336569Y-96465147D01*
X57293467Y-96480214D01*
X57251528Y-96493414D01*
X57249036Y-96494148D01*
X57224593Y-96500876D01*
X57197864Y-96507496D01*
X57170084Y-96513753D01*
X57142484Y-96519394D01*
X57116299Y-96524166D01*
X57092760Y-96527816D01*
X57073102Y-96530089D01*
X57062032Y-96530753D01*
X57046581Y-96531210D01*
X57028613Y-96531420D01*
X57009443Y-96531393D01*
X56990383Y-96531140D01*
X56972746Y-96530670D01*
X56957846Y-96529994D01*
X56946996Y-96529121D01*
X56931616Y-96527077D01*
X56883780Y-96517167D01*
X56837039Y-96502016D01*
X56791410Y-96481634D01*
X56746911Y-96456034D01*
X56703560Y-96425229D01*
X56661373Y-96389231D01*
X56620370Y-96348051D01*
X56580567Y-96301702D01*
X56541982Y-96250196D01*
X56528410Y-96230426D01*
X56494328Y-96176898D01*
X56460484Y-96118196D01*
X56426933Y-96054456D01*
X56393734Y-95985815D01*
X56360944Y-95912409D01*
X56328619Y-95834374D01*
X56296818Y-95751846D01*
X56265598Y-95664962D01*
X56235015Y-95573857D01*
X56205127Y-95478668D01*
X56175991Y-95379531D01*
X56167230Y-95348388D01*
X56157342Y-95312408D01*
X56147331Y-95275072D01*
X56137118Y-95236056D01*
X56126625Y-95195035D01*
X56115773Y-95151683D01*
X56104482Y-95105675D01*
X56092673Y-95056685D01*
X56080268Y-95004389D01*
X56067188Y-94948461D01*
X56053352Y-94888576D01*
X56038684Y-94824409D01*
X56023102Y-94755633D01*
X56006529Y-94681925D01*
X56003354Y-94667746D01*
X55995479Y-94632359D01*
X56773747Y-94632359D01*
X56774314Y-94672582D01*
X56776714Y-94715566D01*
X56780890Y-94760433D01*
X56786784Y-94806304D01*
X56794340Y-94852302D01*
X56798452Y-94874165D01*
X56803799Y-94900805D01*
X56809577Y-94927566D01*
X56815902Y-94954860D01*
X56822893Y-94983097D01*
X56830664Y-95012687D01*
X56839332Y-95044040D01*
X56849015Y-95077566D01*
X56859827Y-95113675D01*
X56871887Y-95152779D01*
X56885310Y-95195286D01*
X56900213Y-95241607D01*
X56916712Y-95292153D01*
X56934923Y-95347334D01*
X56941818Y-95368181D01*
X56952419Y-95400404D01*
X56963126Y-95433141D01*
X56973681Y-95465590D01*
X56983825Y-95496952D01*
X56993300Y-95526426D01*
X57001847Y-95553212D01*
X57009208Y-95576510D01*
X57015124Y-95595520D01*
X57021323Y-95615583D01*
X57033845Y-95655469D01*
X57045226Y-95690726D01*
X57055615Y-95721739D01*
X57065158Y-95748893D01*
X57074002Y-95772574D01*
X57082293Y-95793167D01*
X57090178Y-95811058D01*
X57097804Y-95826631D01*
X57105317Y-95840273D01*
X57112864Y-95852369D01*
X57123977Y-95867370D01*
X57137380Y-95882024D01*
X57150979Y-95893741D01*
X57163705Y-95901487D01*
X57166542Y-95902682D01*
X57179660Y-95906040D01*
X57194347Y-95906388D01*
X57210824Y-95903615D01*
X57229316Y-95897613D01*
X57250045Y-95888271D01*
X57273235Y-95875479D01*
X57299110Y-95859127D01*
X57327892Y-95839106D01*
X57359806Y-95815305D01*
X57395073Y-95787615D01*
X57400185Y-95783480D01*
X57410476Y-95775059D01*
X57423912Y-95763992D01*
X57439928Y-95750748D01*
X57457959Y-95735793D01*
X57477440Y-95719597D01*
X57497808Y-95702626D01*
X57518496Y-95685349D01*
X57530834Y-95675041D01*
X57569399Y-95642950D01*
X57604693Y-95613805D01*
X57637299Y-95587148D01*
X57667798Y-95562516D01*
X57696772Y-95539449D01*
X57724803Y-95517487D01*
X57752472Y-95496170D01*
X57780361Y-95475035D01*
X57809052Y-95453623D01*
X57839126Y-95431474D01*
X57849881Y-95423615D01*
X57901561Y-95386336D01*
X57952975Y-95350095D01*
X58004850Y-95314406D01*
X58057913Y-95278788D01*
X58112892Y-95242756D01*
X58170513Y-95205826D01*
X58231505Y-95167516D01*
X58296595Y-95127341D01*
X58327982Y-95108031D01*
X58359946Y-95088117D01*
X58388073Y-95070259D01*
X58412808Y-95054144D01*
X58434594Y-95039457D01*
X58453877Y-95025886D01*
X58471101Y-95013116D01*
X58486711Y-95000833D01*
X58501151Y-94988723D01*
X58514865Y-94976473D01*
X58528299Y-94963769D01*
X58552817Y-94938333D01*
X58576022Y-94909728D01*
X58594734Y-94880656D01*
X58609372Y-94850361D01*
X58620353Y-94818086D01*
X58628096Y-94783072D01*
X58630698Y-94765034D01*
X58633506Y-94723457D01*
X58632503Y-94678746D01*
X58627758Y-94631270D01*
X58619339Y-94581397D01*
X58607314Y-94529496D01*
X58591753Y-94475937D01*
X58572725Y-94421089D01*
X58550297Y-94365319D01*
X58546788Y-94357250D01*
X58524294Y-94310020D01*
X58500635Y-94267925D01*
X58475712Y-94230858D01*
X58449428Y-94198708D01*
X58421686Y-94171368D01*
X58392390Y-94148729D01*
X58361443Y-94130681D01*
X58328746Y-94117117D01*
X58321341Y-94114717D01*
X58299740Y-94108957D01*
X58277206Y-94104921D01*
X58252669Y-94102489D01*
X58225056Y-94101541D01*
X58193295Y-94101957D01*
X58189850Y-94102071D01*
X58159202Y-94103682D01*
X58127070Y-94106463D01*
X58093007Y-94110490D01*
X58056566Y-94115839D01*
X58017299Y-94122587D01*
X57974759Y-94130810D01*
X57928499Y-94140584D01*
X57878071Y-94151985D01*
X57823028Y-94165091D01*
X57819757Y-94165887D01*
X57799937Y-94170761D01*
X57776260Y-94176645D01*
X57749230Y-94183411D01*
X57719349Y-94190930D01*
X57687122Y-94199073D01*
X57653052Y-94207711D01*
X57617642Y-94216715D01*
X57581395Y-94225956D01*
X57544815Y-94235305D01*
X57508405Y-94244633D01*
X57472668Y-94253812D01*
X57438108Y-94262712D01*
X57405229Y-94271205D01*
X57374533Y-94279161D01*
X57346524Y-94286452D01*
X57321706Y-94292948D01*
X57300581Y-94298522D01*
X57283653Y-94303042D01*
X57271426Y-94306382D01*
X57209997Y-94323872D01*
X57151870Y-94341237D01*
X57098699Y-94358042D01*
X57050299Y-94374363D01*
X57006487Y-94390277D01*
X56967077Y-94405860D01*
X56931887Y-94421189D01*
X56900731Y-94436340D01*
X56873425Y-94451389D01*
X56849785Y-94466413D01*
X56829627Y-94481489D01*
X56812767Y-94496693D01*
X56805007Y-94504764D01*
X56795023Y-94516872D01*
X56787794Y-94528884D01*
X56782714Y-94542162D01*
X56779177Y-94558070D01*
X56776575Y-94577972D01*
X56775069Y-94595775D01*
X56773747Y-94632359D01*
X55995479Y-94632359D01*
X55981914Y-94571408D01*
X55961810Y-94479926D01*
X55942993Y-94393012D01*
X55925415Y-94310379D01*
X55909031Y-94231739D01*
X55893793Y-94156806D01*
X55879652Y-94085293D01*
X55866563Y-94016912D01*
X55854478Y-93951377D01*
X55843349Y-93888399D01*
X55833130Y-93827693D01*
X55823773Y-93768970D01*
X55815231Y-93711944D01*
X55807456Y-93656328D01*
X55800402Y-93601834D01*
X55794021Y-93548176D01*
X55788265Y-93495065D01*
X55783089Y-93442216D01*
X55778443Y-93389340D01*
X55774282Y-93336152D01*
X55770558Y-93282362D01*
X55767223Y-93227686D01*
X55766921Y-93221938D01*
X55766772Y-93218165D01*
X56390956Y-93218165D01*
X56391930Y-93271089D01*
X56394693Y-93324287D01*
X56399155Y-93377067D01*
X56405228Y-93428737D01*
X56412822Y-93478607D01*
X56421846Y-93525984D01*
X56432213Y-93570178D01*
X56443833Y-93610497D01*
X56456615Y-93646249D01*
X56459734Y-93653824D01*
X56474690Y-93685083D01*
X56491187Y-93711428D01*
X56509527Y-93733125D01*
X56530010Y-93750439D01*
X56552939Y-93763635D01*
X56578615Y-93772979D01*
X56607340Y-93778735D01*
X56610646Y-93779157D01*
X56632452Y-93781018D01*
X56656016Y-93781425D01*
X56681891Y-93780328D01*
X56710630Y-93777678D01*
X56742784Y-93773427D01*
X56778906Y-93767525D01*
X56819549Y-93759923D01*
X56826393Y-93758571D01*
X56846374Y-93754536D01*
X56866666Y-93750295D01*
X56887757Y-93745735D01*
X56910136Y-93740739D01*
X56934290Y-93735195D01*
X56960709Y-93728988D01*
X56989879Y-93722004D01*
X57022291Y-93714128D01*
X57058432Y-93705247D01*
X57098789Y-93695245D01*
X57143853Y-93684008D01*
X57167213Y-93678177D01*
X57212397Y-93666955D01*
X57253497Y-93656843D01*
X57291260Y-93647671D01*
X57326435Y-93639269D01*
X57359769Y-93631467D01*
X57392009Y-93624096D01*
X57423903Y-93616985D01*
X57456199Y-93609965D01*
X57489645Y-93602866D01*
X57524987Y-93595518D01*
X57562975Y-93587751D01*
X57604355Y-93579395D01*
X57614657Y-93577323D01*
X57656423Y-93568880D01*
X57693497Y-93561304D01*
X57726349Y-93554490D01*
X57755450Y-93548332D01*
X57781274Y-93542724D01*
X57804290Y-93537563D01*
X57824971Y-93532742D01*
X57843789Y-93528155D01*
X57861214Y-93523699D01*
X57877718Y-93519266D01*
X57893773Y-93514753D01*
X57931844Y-93503319D01*
X57978150Y-93487734D01*
X58019756Y-93471575D01*
X58057039Y-93454652D01*
X58090378Y-93436776D01*
X58120148Y-93417755D01*
X58146729Y-93397400D01*
X58170496Y-93375522D01*
X58182491Y-93362876D01*
X58205075Y-93335308D01*
X58224243Y-93305972D01*
X58240303Y-93274218D01*
X58253560Y-93239393D01*
X58264322Y-93200846D01*
X58272894Y-93157925D01*
X58274018Y-93150174D01*
X58275856Y-93131745D01*
X58277244Y-93109754D01*
X58278167Y-93085381D01*
X58278610Y-93059804D01*
X58278557Y-93034202D01*
X58277994Y-93009752D01*
X58276907Y-92987634D01*
X58275280Y-92969026D01*
X58273045Y-92951283D01*
X58263444Y-92895648D01*
X58250359Y-92843765D01*
X58233829Y-92795746D01*
X58213890Y-92751706D01*
X58190580Y-92711757D01*
X58177726Y-92693598D01*
X58155017Y-92667044D01*
X58129743Y-92643912D01*
X58101673Y-92624118D01*
X58070571Y-92607576D01*
X58036206Y-92594200D01*
X57998344Y-92583907D01*
X57956753Y-92576610D01*
X57911198Y-92572226D01*
X57861447Y-92570668D01*
X57807266Y-92571851D01*
X57792814Y-92572546D01*
X57773699Y-92573636D01*
X57754541Y-92574955D01*
X57734862Y-92576558D01*
X57714183Y-92578502D01*
X57692027Y-92580843D01*
X57667916Y-92583636D01*
X57641373Y-92586937D01*
X57611919Y-92590803D01*
X57579077Y-92595288D01*
X57542369Y-92600450D01*
X57501317Y-92606344D01*
X57455443Y-92613026D01*
X57435915Y-92615869D01*
X57401021Y-92620854D01*
X57367219Y-92625542D01*
X57333793Y-92630023D01*
X57300029Y-92634383D01*
X57265211Y-92638711D01*
X57228625Y-92643095D01*
X57189555Y-92647624D01*
X57147286Y-92652384D01*
X57101105Y-92657466D01*
X57050295Y-92662955D01*
X57039706Y-92664093D01*
X56989202Y-92669573D01*
X56943585Y-92674636D01*
X56902470Y-92679341D01*
X56865475Y-92683746D01*
X56832218Y-92687912D01*
X56802315Y-92691896D01*
X56775384Y-92695759D01*
X56751043Y-92699560D01*
X56728908Y-92703358D01*
X56708596Y-92707211D01*
X56689726Y-92711181D01*
X56671914Y-92715325D01*
X56654777Y-92719702D01*
X56637933Y-92724373D01*
X56620999Y-92729396D01*
X56609593Y-92732984D01*
X56579252Y-92743864D01*
X56553072Y-92755598D01*
X56530157Y-92768677D01*
X56509609Y-92783591D01*
X56490532Y-92800832D01*
X56490402Y-92800961D01*
X56479337Y-92812285D01*
X56471061Y-92821737D01*
X56464362Y-92830989D01*
X56458026Y-92841716D01*
X56450841Y-92855590D01*
X56439035Y-92881892D01*
X56427029Y-92915921D01*
X56416784Y-92953965D01*
X56408254Y-92996250D01*
X56401396Y-93043000D01*
X56396166Y-93094440D01*
X56392518Y-93150797D01*
X56391861Y-93166205D01*
X56390956Y-93218165D01*
X55766772Y-93218165D01*
X55766146Y-93202366D01*
X55765484Y-93178375D01*
X55764936Y-93150665D01*
X55764503Y-93119933D01*
X55764183Y-93086879D01*
X55763977Y-93052200D01*
X55763885Y-93016597D01*
X55763906Y-92980766D01*
X55764041Y-92945408D01*
X55764290Y-92911220D01*
X55764653Y-92878901D01*
X55765129Y-92849150D01*
X55765719Y-92822666D01*
X55766422Y-92800147D01*
X55767240Y-92782291D01*
X55771707Y-92711150D01*
X55780370Y-92600308D01*
X55791051Y-92491645D01*
X55803868Y-92384513D01*
X55818939Y-92278262D01*
X55836379Y-92172242D01*
X55856306Y-92065803D01*
X55878838Y-91958297D01*
X55904090Y-91849073D01*
X55924163Y-91769331D01*
X56557675Y-91769331D01*
X56560458Y-91808818D01*
X56566117Y-91845306D01*
X56574658Y-91878415D01*
X56586090Y-91907768D01*
X56600418Y-91932986D01*
X56608795Y-91944233D01*
X56628221Y-91964661D01*
X56651321Y-91982326D01*
X56678295Y-91997313D01*
X56709344Y-92009711D01*
X56744667Y-92019606D01*
X56784466Y-92027085D01*
X56828940Y-92032235D01*
X56840992Y-92032988D01*
X56857383Y-92033601D01*
X56876899Y-92034061D01*
X56898415Y-92034361D01*
X56920807Y-92034495D01*
X56942949Y-92034455D01*
X56963718Y-92034235D01*
X56981987Y-92033828D01*
X56996633Y-92033228D01*
X57000694Y-92032993D01*
X57023223Y-92031516D01*
X57050197Y-92029503D01*
X57080882Y-92027019D01*
X57114542Y-92024126D01*
X57150444Y-92020886D01*
X57187854Y-92017362D01*
X57226038Y-92013618D01*
X57244603Y-92011773D01*
X57296906Y-92006722D01*
X57346015Y-92002232D01*
X57392999Y-91998226D01*
X57438929Y-91994626D01*
X57484874Y-91991355D01*
X57531906Y-91988334D01*
X57581093Y-91985488D01*
X57633505Y-91982737D01*
X57690214Y-91980006D01*
X57703686Y-91979377D01*
X57744281Y-91977430D01*
X57780207Y-91975609D01*
X57811999Y-91973875D01*
X57840187Y-91972187D01*
X57865305Y-91970506D01*
X57887884Y-91968793D01*
X57908457Y-91967008D01*
X57927555Y-91965112D01*
X57945712Y-91963065D01*
X57963460Y-91960826D01*
X57981330Y-91958358D01*
X58015302Y-91952887D01*
X58054066Y-91944782D01*
X58088189Y-91935251D01*
X58118005Y-91924147D01*
X58143848Y-91911320D01*
X58166052Y-91896624D01*
X58184952Y-91879908D01*
X58200883Y-91861027D01*
X58215716Y-91838326D01*
X58231036Y-91809132D01*
X58245138Y-91775614D01*
X58258159Y-91737445D01*
X58270234Y-91694299D01*
X58282521Y-91641195D01*
X58292172Y-91587542D01*
X58298891Y-91533700D01*
X58302871Y-91478127D01*
X58304301Y-91419277D01*
X58304234Y-91401491D01*
X58302461Y-91351812D01*
X58298311Y-91306792D01*
X58291756Y-91266303D01*
X58282764Y-91230218D01*
X58271306Y-91198408D01*
X58257352Y-91170745D01*
X58240872Y-91147101D01*
X58235807Y-91141211D01*
X58221010Y-91126709D01*
X58203499Y-91113128D01*
X58182979Y-91100350D01*
X58159155Y-91088258D01*
X58131734Y-91076736D01*
X58100420Y-91065666D01*
X58064919Y-91054931D01*
X58024937Y-91044414D01*
X57980179Y-91033998D01*
X57930352Y-91023565D01*
X57887310Y-91015352D01*
X57813797Y-91003026D01*
X57739643Y-90992642D01*
X57665460Y-90984232D01*
X57591861Y-90977830D01*
X57519459Y-90973470D01*
X57448868Y-90971185D01*
X57380699Y-90971009D01*
X57315567Y-90972975D01*
X57254084Y-90977117D01*
X57196863Y-90983469D01*
X57154403Y-90990093D01*
X57091284Y-91003415D01*
X57032021Y-91020406D01*
X56976530Y-91041118D01*
X56924729Y-91065600D01*
X56876534Y-91093903D01*
X56831862Y-91126079D01*
X56790631Y-91162177D01*
X56752757Y-91202248D01*
X56718158Y-91246343D01*
X56686749Y-91294513D01*
X56677703Y-91310270D01*
X56659022Y-91346054D01*
X56640891Y-91384985D01*
X56623983Y-91425581D01*
X56608968Y-91466361D01*
X56600987Y-91490581D01*
X56586659Y-91540128D01*
X56575166Y-91588943D01*
X56566514Y-91636650D01*
X56560710Y-91682868D01*
X56557762Y-91727222D01*
X56557675Y-91769331D01*
X55924163Y-91769331D01*
X55932180Y-91737481D01*
X55963225Y-91622873D01*
X55997341Y-91504599D01*
X56002399Y-91487581D01*
X56010772Y-91459557D01*
X56019079Y-91431973D01*
X56027490Y-91404276D01*
X56036178Y-91375911D01*
X56045316Y-91346323D01*
X56055075Y-91314958D01*
X56065628Y-91281261D01*
X56077146Y-91244677D01*
X56089803Y-91204653D01*
X56103769Y-91160633D01*
X56119218Y-91112062D01*
X56128906Y-91081633D01*
X56137839Y-91053562D01*
X56146065Y-91027694D01*
X56153720Y-91003600D01*
X56160939Y-90980847D01*
X56167857Y-90959005D01*
X56174609Y-90937643D01*
X56181331Y-90916330D01*
X56188158Y-90894634D01*
X56195225Y-90872124D01*
X56202669Y-90848371D01*
X56210623Y-90822941D01*
X56219224Y-90795405D01*
X56228607Y-90765332D01*
X56238907Y-90732289D01*
X56250260Y-90695847D01*
X56262800Y-90655574D01*
X56276664Y-90611039D01*
X56291986Y-90561811D01*
X56305790Y-90517499D01*
X56329575Y-90441358D01*
X56352008Y-90369849D01*
X56373196Y-90302641D01*
X56393248Y-90239404D01*
X56412272Y-90179807D01*
X56430378Y-90123519D01*
X56447674Y-90070209D01*
X56464267Y-90019548D01*
X56480268Y-89971203D01*
X56492100Y-89935853D01*
X57212714Y-89935853D01*
X57213002Y-89961028D01*
X57213894Y-89984476D01*
X57215392Y-90004995D01*
X57217496Y-90021383D01*
X57217527Y-90021563D01*
X57225368Y-90056445D01*
X57236314Y-90087357D01*
X57250786Y-90114976D01*
X57269207Y-90139978D01*
X57291999Y-90163040D01*
X57319586Y-90184836D01*
X57333877Y-90194524D01*
X57366110Y-90213837D01*
X57403015Y-90233088D01*
X57444130Y-90252146D01*
X57488992Y-90270880D01*
X57537142Y-90289157D01*
X57588116Y-90306845D01*
X57641453Y-90323814D01*
X57696693Y-90339931D01*
X57753374Y-90355064D01*
X57811033Y-90369082D01*
X57869210Y-90381853D01*
X57927443Y-90393245D01*
X57985271Y-90403126D01*
X58042232Y-90411366D01*
X58097865Y-90417831D01*
X58151707Y-90422390D01*
X58153645Y-90422519D01*
X58207042Y-90424539D01*
X58256341Y-90423265D01*
X58301725Y-90418631D01*
X58343379Y-90410571D01*
X58381487Y-90399016D01*
X58416234Y-90383899D01*
X58447804Y-90365154D01*
X58476382Y-90342713D01*
X58502153Y-90316510D01*
X58525300Y-90286476D01*
X58530515Y-90278684D01*
X58552227Y-90242099D01*
X58572032Y-90201980D01*
X58589810Y-90158971D01*
X58605443Y-90113719D01*
X58618815Y-90066868D01*
X58629807Y-90019066D01*
X58638300Y-89970956D01*
X58644178Y-89923186D01*
X58647322Y-89876401D01*
X58647614Y-89831246D01*
X58644937Y-89788367D01*
X58639172Y-89748410D01*
X58630201Y-89712021D01*
X58625505Y-89698167D01*
X58616278Y-89676568D01*
X58604802Y-89655787D01*
X58590794Y-89635570D01*
X58573971Y-89615662D01*
X58554048Y-89595810D01*
X58530744Y-89575758D01*
X58503775Y-89555253D01*
X58472857Y-89534040D01*
X58437707Y-89511865D01*
X58398043Y-89488474D01*
X58353581Y-89463611D01*
X58324038Y-89447704D01*
X58275480Y-89422457D01*
X58223636Y-89396457D01*
X58169613Y-89370222D01*
X58114518Y-89344271D01*
X58059457Y-89319123D01*
X58005537Y-89295296D01*
X57953865Y-89273308D01*
X57905547Y-89253679D01*
X57892823Y-89248683D01*
X57849361Y-89232144D01*
X57809818Y-89218023D01*
X57773596Y-89206153D01*
X57740101Y-89196369D01*
X57708735Y-89188506D01*
X57678904Y-89182398D01*
X57650010Y-89177879D01*
X57621458Y-89174784D01*
X57605580Y-89173698D01*
X57579673Y-89173492D01*
X57557125Y-89175775D01*
X57536932Y-89180752D01*
X57518094Y-89188627D01*
X57499608Y-89199604D01*
X57480886Y-89214093D01*
X57458869Y-89235577D01*
X57436740Y-89261675D01*
X57414672Y-89291995D01*
X57392838Y-89326142D01*
X57371411Y-89363722D01*
X57350565Y-89404340D01*
X57330472Y-89447603D01*
X57311306Y-89493117D01*
X57293239Y-89540486D01*
X57276445Y-89589318D01*
X57261097Y-89639218D01*
X57247368Y-89689792D01*
X57235432Y-89740646D01*
X57225460Y-89791385D01*
X57217627Y-89841615D01*
X57217589Y-89841902D01*
X57215468Y-89861974D01*
X57213948Y-89885125D01*
X57213030Y-89910151D01*
X57212714Y-89935853D01*
X56492100Y-89935853D01*
X56495784Y-89924845D01*
X56510924Y-89880143D01*
X56525796Y-89836766D01*
X56540510Y-89794384D01*
X56555173Y-89752665D01*
X56569894Y-89711280D01*
X56584782Y-89669897D01*
X56590904Y-89653013D01*
X56634333Y-89535778D01*
X56677598Y-89423556D01*
X56720874Y-89316047D01*
X56764334Y-89212954D01*
X56808150Y-89113977D01*
X56852496Y-89018816D01*
X56897545Y-88927173D01*
X56943471Y-88838749D01*
X56990446Y-88753244D01*
X57038643Y-88670361D01*
X57088237Y-88589798D01*
X57139400Y-88511259D01*
X57184095Y-88446363D01*
X57962949Y-88446363D01*
X57963251Y-88462503D01*
X57964356Y-88480311D01*
X57967051Y-88499349D01*
X57971675Y-88516302D01*
X57978741Y-88532943D01*
X57988758Y-88551045D01*
X57998951Y-88566513D01*
X58019705Y-88592213D01*
X58045106Y-88617989D01*
X58074735Y-88643464D01*
X58108173Y-88668258D01*
X58144999Y-88691994D01*
X58157997Y-88699468D01*
X58177205Y-88709797D01*
X58199642Y-88721292D01*
X58224358Y-88733500D01*
X58250405Y-88745968D01*
X58276834Y-88758242D01*
X58302694Y-88769870D01*
X58327038Y-88780398D01*
X58348915Y-88789372D01*
X58351278Y-88790305D01*
X58398252Y-88808120D01*
X58447085Y-88825323D01*
X58496950Y-88841679D01*
X58547020Y-88856955D01*
X58596468Y-88870916D01*
X58644467Y-88883330D01*
X58690191Y-88893961D01*
X58732812Y-88902576D01*
X58771503Y-88908941D01*
X58787315Y-88911024D01*
X58828035Y-88914701D01*
X58865107Y-88915313D01*
X58899126Y-88912793D01*
X58930689Y-88907080D01*
X58960393Y-88898110D01*
X58988834Y-88885819D01*
X59010391Y-88874250D01*
X59048869Y-88849618D01*
X59086569Y-88820568D01*
X59123097Y-88787648D01*
X59158058Y-88751404D01*
X59191057Y-88712384D01*
X59221699Y-88671136D01*
X59249589Y-88628207D01*
X59274332Y-88584144D01*
X59295534Y-88539494D01*
X59312799Y-88494805D01*
X59325733Y-88450624D01*
X59333940Y-88407499D01*
X59335080Y-88396526D01*
X59335921Y-88376216D01*
X59335558Y-88354529D01*
X59334079Y-88333136D01*
X59331571Y-88313703D01*
X59328125Y-88297901D01*
X59321259Y-88277112D01*
X59306762Y-88244542D01*
X59287846Y-88212992D01*
X59264200Y-88181972D01*
X59235517Y-88150992D01*
X59223786Y-88139678D01*
X59185398Y-88106620D01*
X59142635Y-88075002D01*
X59096157Y-88045095D01*
X59046624Y-88017172D01*
X58994699Y-87991503D01*
X58941040Y-87968361D01*
X58886310Y-87948017D01*
X58831168Y-87930743D01*
X58776276Y-87916811D01*
X58722294Y-87906491D01*
X58669883Y-87900057D01*
X58619703Y-87897779D01*
X58584107Y-87898717D01*
X58528430Y-87904408D01*
X58473832Y-87915277D01*
X58420247Y-87931348D01*
X58367612Y-87952646D01*
X58315862Y-87979192D01*
X58264933Y-88011013D01*
X58214760Y-88048131D01*
X58203350Y-88057611D01*
X58185857Y-88073143D01*
X58166776Y-88090995D01*
X58147061Y-88110212D01*
X58127669Y-88129841D01*
X58109556Y-88148926D01*
X58093679Y-88166515D01*
X58080992Y-88181651D01*
X58062621Y-88205723D01*
X58037553Y-88241928D01*
X58015634Y-88277877D01*
X57997136Y-88313038D01*
X57982331Y-88346881D01*
X57971491Y-88378875D01*
X57964888Y-88408489D01*
X57963978Y-88416623D01*
X57963210Y-88430456D01*
X57962949Y-88446363D01*
X57184095Y-88446363D01*
X57192305Y-88434442D01*
X57247125Y-88359050D01*
X57304034Y-88284784D01*
X57363206Y-88211344D01*
X57424812Y-88138431D01*
X57489027Y-88065746D01*
X57556023Y-87992990D01*
X57557460Y-87991460D01*
X57571578Y-87976485D01*
X57585764Y-87961549D01*
X57600218Y-87946453D01*
X57615139Y-87931000D01*
X57630728Y-87914992D01*
X57647184Y-87898231D01*
X57664708Y-87880520D01*
X57683499Y-87861659D01*
X57703757Y-87841452D01*
X57725682Y-87819701D01*
X57749474Y-87796207D01*
X57775333Y-87770772D01*
X57803459Y-87743200D01*
X57834052Y-87713291D01*
X57867311Y-87680849D01*
X57903437Y-87645674D01*
X57942630Y-87607570D01*
X57985088Y-87566338D01*
X58031014Y-87521780D01*
X58080605Y-87473699D01*
X58120439Y-87435103D01*
X58165223Y-87391753D01*
X58206673Y-87351687D01*
X58245059Y-87314650D01*
X58269284Y-87291330D01*
X59165918Y-87291330D01*
X59165954Y-87302784D01*
X59166274Y-87312903D01*
X59167211Y-87320586D01*
X59169093Y-87327430D01*
X59172251Y-87335033D01*
X59177017Y-87344992D01*
X59177811Y-87346613D01*
X59186195Y-87362490D01*
X59195450Y-87377517D01*
X59206357Y-87392799D01*
X59219701Y-87409443D01*
X59236266Y-87428553D01*
X59246096Y-87439362D01*
X59276209Y-87470066D01*
X59309266Y-87500639D01*
X59344737Y-87530747D01*
X59382095Y-87560055D01*
X59420810Y-87588227D01*
X59460354Y-87614929D01*
X59500198Y-87639825D01*
X59539813Y-87662581D01*
X59578671Y-87682861D01*
X59616243Y-87700331D01*
X59652000Y-87714655D01*
X59685413Y-87725499D01*
X59715954Y-87732527D01*
X59733054Y-87734736D01*
X59756004Y-87736118D01*
X59780047Y-87736190D01*
X59803085Y-87734954D01*
X59823017Y-87732414D01*
X59844040Y-87727833D01*
X59873487Y-87718822D01*
X59903767Y-87706535D01*
X59935095Y-87690825D01*
X59967684Y-87671546D01*
X60001749Y-87648549D01*
X60037506Y-87621687D01*
X60075167Y-87590814D01*
X60114949Y-87555782D01*
X60157065Y-87516445D01*
X60201729Y-87472655D01*
X60207232Y-87467132D01*
X60254560Y-87418445D01*
X60297211Y-87372301D01*
X60335213Y-87328667D01*
X60368591Y-87287511D01*
X60397372Y-87248801D01*
X60421583Y-87212503D01*
X60441249Y-87178586D01*
X60444773Y-87171732D01*
X60453385Y-87153553D01*
X60462592Y-87132494D01*
X60471746Y-87110113D01*
X60480202Y-87087969D01*
X60487312Y-87067619D01*
X60489677Y-87059790D01*
X60491490Y-87051048D01*
X60491959Y-87042445D01*
X60490920Y-87033152D01*
X60488208Y-87022342D01*
X60483657Y-87009186D01*
X60477104Y-86992854D01*
X60468382Y-86972518D01*
X60465467Y-86965861D01*
X60450056Y-86931729D01*
X60435824Y-86902199D01*
X60422501Y-86876802D01*
X60409815Y-86855070D01*
X60397498Y-86836535D01*
X60385278Y-86820730D01*
X60372885Y-86807186D01*
X60370939Y-86805265D01*
X60360655Y-86796093D01*
X60350032Y-86788611D01*
X60338235Y-86782502D01*
X60324425Y-86777450D01*
X60307765Y-86773138D01*
X60287417Y-86769250D01*
X60262545Y-86765470D01*
X60246151Y-86763329D01*
X60222241Y-86760546D01*
X60194929Y-86757651D01*
X60165285Y-86754741D01*
X60134383Y-86751915D01*
X60103293Y-86749268D01*
X60073088Y-86746899D01*
X60044839Y-86744905D01*
X60019619Y-86743384D01*
X60014408Y-86743115D01*
X59973098Y-86741817D01*
X59935193Y-86742372D01*
X59899756Y-86744980D01*
X59865848Y-86749844D01*
X59832533Y-86757165D01*
X59798873Y-86767146D01*
X59763929Y-86779987D01*
X59726764Y-86795891D01*
X59686440Y-86815059D01*
X59675525Y-86820515D01*
X59614506Y-86853217D01*
X59553581Y-86889463D01*
X59493629Y-86928630D01*
X59435528Y-86970097D01*
X59380157Y-87013242D01*
X59328392Y-87057444D01*
X59281112Y-87102081D01*
X59272235Y-87111011D01*
X59247905Y-87136448D01*
X59227389Y-87159598D01*
X59210242Y-87181043D01*
X59196016Y-87201366D01*
X59184264Y-87221149D01*
X59174539Y-87240975D01*
X59173001Y-87244489D01*
X59169727Y-87252649D01*
X59167653Y-87259826D01*
X59166508Y-87267607D01*
X59166021Y-87277580D01*
X59165918Y-87291330D01*
X58269284Y-87291330D01*
X58280656Y-87280383D01*
X58313735Y-87248630D01*
X58344570Y-87219134D01*
X58373433Y-87191638D01*
X58400597Y-87165885D01*
X58426334Y-87141618D01*
X58450917Y-87118580D01*
X58474619Y-87096514D01*
X58497713Y-87075163D01*
X58520471Y-87054270D01*
X58543165Y-87033579D01*
X58566070Y-87012831D01*
X58589456Y-86991771D01*
X58613597Y-86970141D01*
X58638765Y-86947685D01*
X58707704Y-86886892D01*
X58790881Y-86815301D01*
X58871738Y-86747778D01*
X58950624Y-86684091D01*
X59027888Y-86624011D01*
X59103878Y-86567308D01*
X59178944Y-86513751D01*
X59179737Y-86513212D01*
X60807367Y-86513212D01*
X60808681Y-86527732D01*
X60809796Y-86531452D01*
X60813112Y-86541233D01*
X60817994Y-86554820D01*
X60824160Y-86571485D01*
X60831326Y-86590497D01*
X60839206Y-86611128D01*
X60847518Y-86632647D01*
X60855978Y-86654325D01*
X60864302Y-86675433D01*
X60872206Y-86695241D01*
X60879406Y-86713019D01*
X60885618Y-86728038D01*
X60890559Y-86739568D01*
X60893945Y-86746880D01*
X60897900Y-86753849D01*
X60902346Y-86758420D01*
X60907940Y-86759757D01*
X60915882Y-86758105D01*
X60927373Y-86753708D01*
X60936693Y-86749557D01*
X60947417Y-86744128D01*
X60958974Y-86737573D01*
X60971586Y-86729716D01*
X60985478Y-86720379D01*
X61000875Y-86709384D01*
X61018000Y-86696554D01*
X61037077Y-86681712D01*
X61058332Y-86664680D01*
X61081988Y-86645280D01*
X61108270Y-86623336D01*
X61137401Y-86598669D01*
X61169606Y-86571103D01*
X61205109Y-86540460D01*
X61244135Y-86506562D01*
X61286908Y-86469233D01*
X61301488Y-86456501D01*
X61353266Y-86411621D01*
X61401746Y-86370183D01*
X61447317Y-86331906D01*
X61490364Y-86296507D01*
X61531274Y-86263705D01*
X61570435Y-86233218D01*
X61608233Y-86204763D01*
X61645055Y-86178059D01*
X61681287Y-86152823D01*
X61717318Y-86128774D01*
X61753533Y-86105630D01*
X61790319Y-86083108D01*
X61828063Y-86060927D01*
X61867152Y-86038804D01*
X61907974Y-86016457D01*
X61917358Y-86011364D01*
X61933871Y-86002199D01*
X61946698Y-85994780D01*
X61955561Y-85989274D01*
X61960185Y-85985849D01*
X61960294Y-85984672D01*
X61957007Y-85984884D01*
X61948804Y-85985656D01*
X61936727Y-85986912D01*
X61921576Y-85988566D01*
X61904147Y-85990532D01*
X61885239Y-85992726D01*
X61826749Y-85999850D01*
X61758298Y-86008928D01*
X61694370Y-86018321D01*
X61634497Y-86028132D01*
X61578212Y-86038464D01*
X61525048Y-86049421D01*
X61474538Y-86061105D01*
X61426213Y-86073620D01*
X61379608Y-86087070D01*
X61334254Y-86101557D01*
X61289685Y-86117184D01*
X61245433Y-86134056D01*
X61206064Y-86150247D01*
X61148384Y-86176478D01*
X61095488Y-86203873D01*
X61047061Y-86232641D01*
X61002785Y-86262988D01*
X60962343Y-86295121D01*
X60925421Y-86329248D01*
X60891700Y-86365575D01*
X60884128Y-86374513D01*
X60861891Y-86402533D01*
X60843262Y-86428922D01*
X60828369Y-86453432D01*
X60817337Y-86475815D01*
X60810294Y-86495824D01*
X60807367Y-86513212D01*
X59179737Y-86513212D01*
X59253434Y-86463111D01*
X59327698Y-86415157D01*
X59402084Y-86369659D01*
X59476941Y-86326388D01*
X59552618Y-86285112D01*
X59629465Y-86245602D01*
X59707829Y-86207629D01*
X59788060Y-86170960D01*
X59870507Y-86135368D01*
X59896265Y-86124601D01*
X59925398Y-86112556D01*
X59954161Y-86100825D01*
X59982973Y-86089250D01*
X60012253Y-86077672D01*
X60042420Y-86065934D01*
X60073893Y-86053877D01*
X60107090Y-86041344D01*
X60142430Y-86028177D01*
X60180334Y-86014217D01*
X60221218Y-85999306D01*
X60265503Y-85983287D01*
X60313608Y-85966002D01*
X60365950Y-85947292D01*
X60422950Y-85927000D01*
X60473207Y-85909113D01*
X60521162Y-85891981D01*
X60565137Y-85876185D01*
X60605689Y-85861513D01*
X60643374Y-85847751D01*
X60678749Y-85834687D01*
X60712372Y-85822106D01*
X60744798Y-85809797D01*
X60776586Y-85797546D01*
X60808292Y-85785140D01*
X60840472Y-85772365D01*
X60873684Y-85759010D01*
X60908485Y-85744860D01*
X60945432Y-85729703D01*
X60985081Y-85713326D01*
X61027989Y-85695515D01*
X61032944Y-85693455D01*
X61082561Y-85672948D01*
X61127780Y-85654503D01*
X61169044Y-85637964D01*
X61206793Y-85623177D01*
X61241468Y-85609987D01*
X61273511Y-85598238D01*
X61303362Y-85587776D01*
X61331464Y-85578446D01*
X61358257Y-85570092D01*
X61384182Y-85562560D01*
X61409681Y-85555695D01*
X61435195Y-85549342D01*
X61461165Y-85543345D01*
X61469629Y-85541478D01*
X61495591Y-85536001D01*
X61521396Y-85530976D01*
X61547439Y-85526367D01*
X61574114Y-85522133D01*
X61601816Y-85518239D01*
X61630939Y-85514647D01*
X61661877Y-85511317D01*
X61695025Y-85508214D01*
X61730778Y-85505298D01*
X61769530Y-85502533D01*
X61811675Y-85499880D01*
X61857607Y-85497301D01*
X61907722Y-85494760D01*
X61962414Y-85492218D01*
X62022077Y-85489637D01*
X62078639Y-85487276D01*
X62148848Y-85484387D01*
X62214140Y-85481756D01*
X62274768Y-85479379D01*
X62330984Y-85477252D01*
X62383038Y-85475369D01*
X62431185Y-85473726D01*
X62475675Y-85472319D01*
X62516761Y-85471144D01*
X62554695Y-85470195D01*
X62589729Y-85469469D01*
X62622115Y-85468961D01*
X62652105Y-85468667D01*
X62679951Y-85468581D01*
X62705906Y-85468700D01*
X62730221Y-85469020D01*
X62753148Y-85469535D01*
X62774940Y-85470241D01*
X62795849Y-85471135D01*
X62816126Y-85472210D01*
X62836025Y-85473464D01*
X62855796Y-85474891D01*
X62872305Y-85476225D01*
X62927250Y-85481864D01*
X62977259Y-85489001D01*
X63022516Y-85497697D01*
X63063208Y-85508008D01*
X63099519Y-85519996D01*
X63131635Y-85533718D01*
X63159741Y-85549233D01*
X63184022Y-85566601D01*
X63204663Y-85585880D01*
X63205491Y-85586772D01*
X63218027Y-85601263D01*
X63226777Y-85614025D01*
X63232321Y-85626329D01*
X63235240Y-85639443D01*
X63236115Y-85654640D01*
X63236110Y-85656870D01*
X63235737Y-85666284D01*
X63234559Y-85675024D01*
X63232271Y-85683528D01*
X63228562Y-85692233D01*
X63223127Y-85701578D01*
X63215656Y-85712001D01*
X63205842Y-85723938D01*
X63193377Y-85737829D01*
X63177953Y-85754111D01*
X63159262Y-85773221D01*
X63136997Y-85795598D01*
X63093158Y-85838814D01*
X63041168Y-85888254D01*
X62990837Y-85933961D01*
X62941567Y-85976417D01*
X62931416Y-85984672D01*
X62892759Y-86016108D01*
G37*
%TD.AperFunction*%
%TD*%
D11*
%TO.P,J6,1,Pin_1*%
%TO.N,/RTX_(NC)*%
X62000000Y-55950000D03*
D12*
%TO.P,J6,2,Pin_2*%
%TO.N,/UART_RX*%
X62000000Y-53410000D03*
%TO.P,J6,3,Pin_3*%
%TO.N,/UART_TX*%
X62000000Y-50870000D03*
%TO.P,J6,4,Pin_4*%
%TO.N,/VCC_(NC)*%
X62000000Y-48330000D03*
%TO.P,J6,5,Pin_5*%
%TO.N,/CTS_(NC)*%
X62000000Y-45790000D03*
%TO.P,J6,6,Pin_6*%
%TO.N,GND*%
X62000000Y-43250000D03*
%TD*%
D13*
%TO.P,H3,1,1*%
%TO.N,GND*%
X137000000Y-3000000D03*
D14*
X137000000Y-3000000D03*
%TD*%
D15*
%TO.P,J1,S1,SHIELD*%
%TO.N,GND*%
X7250000Y-11250000D03*
D16*
X3050000Y-11250000D03*
D15*
X7250000Y-19890000D03*
D16*
X3050000Y-19890000D03*
%TD*%
D13*
%TO.P,H5,1,1*%
%TO.N,GND*%
X65000000Y-97000000D03*
D14*
X65000000Y-97000000D03*
%TD*%
D13*
%TO.P,H6,1,1*%
%TO.N,GND*%
X137000000Y-97000000D03*
D14*
X137000000Y-97000000D03*
%TD*%
D11*
%TO.P,J7,1,Pin_1*%
%TO.N,/PHOTORESISTOR*%
X21460000Y-50750000D03*
D12*
%TO.P,J7,2,Pin_2*%
%TO.N,GND*%
X24000000Y-50750000D03*
%TD*%
D13*
%TO.P,H4,1,1*%
%TO.N,GND*%
X3000000Y-97000000D03*
D14*
X3000000Y-97000000D03*
%TD*%
D13*
%TO.P,H1,1,1*%
%TO.N,GND*%
X3000000Y-3000000D03*
D14*
X3000000Y-3000000D03*
%TD*%
D13*
%TO.P,H2,1,1*%
%TO.N,GND*%
X65000000Y-3000000D03*
D14*
X65000000Y-3000000D03*
%TD*%
D11*
%TO.P,J8,1,Pin_1*%
%TO.N,/RESET*%
X31750000Y-11340000D03*
D12*
%TO.P,J8,2,Pin_2*%
%TO.N,+3V3*%
X31750000Y-13880000D03*
%TO.P,J8,3,Pin_3*%
%TO.N,/SWDIO*%
X31750000Y-16420000D03*
%TO.P,J8,4,Pin_4*%
%TO.N,/SWCLK*%
X31750000Y-18960000D03*
%TO.P,J8,5,Pin_5*%
%TO.N,unconnected-(J8-Pin_5-Pad5)*%
X31750000Y-21500000D03*
%TO.P,J8,6,Pin_6*%
%TO.N,GND*%
X31750000Y-24040000D03*
%TD*%
D17*
%TO.N,/Button Matrix/R5*%
X112500000Y-41500000D03*
X112250000Y-30500000D03*
X112250000Y-21750000D03*
X112250000Y-19250000D03*
X112250000Y-33250000D03*
%TO.N,/SPI_MISO*%
X26000000Y-25000000D03*
%TO.N,/Button Matrix/C2*%
X95250000Y-15250000D03*
X97000000Y-16600000D03*
%TO.N,/Button Matrix/C3*%
X108500000Y-16650000D03*
%TO.N,/Button Matrix/C1*%
X74000000Y-15400000D03*
X79250000Y-18000000D03*
%TO.N,/Button Matrix/R2*%
X71750000Y-15400000D03*
X71750000Y-17250000D03*
%TO.N,GND*%
X26000000Y-63000000D03*
X34650000Y-42950000D03*
X18850000Y-30050000D03*
X46850000Y-15450000D03*
X35250000Y-17450000D03*
X31500000Y-90500000D03*
X45050000Y-36250000D03*
X37750000Y-33500000D03*
X42450000Y-24500000D03*
X18850000Y-27050000D03*
X27500000Y-68750000D03*
X43750000Y-15750000D03*
X45750000Y-91250000D03*
X24250000Y-41000000D03*
X58500000Y-79000000D03*
X31000000Y-43000000D03*
X37250000Y-22450000D03*
X38250000Y-67500000D03*
X10650000Y-20050000D03*
X36650000Y-47950000D03*
X44750000Y-90250000D03*
X45750000Y-90250000D03*
X44650000Y-52200000D03*
X45000000Y-91250000D03*
X44650000Y-11050000D03*
X16000000Y-90250000D03*
X16250000Y-91250000D03*
X52250000Y-79250000D03*
X34650000Y-47450000D03*
X10250000Y-11450000D03*
X5000000Y-38500000D03*
X48400000Y-43950000D03*
X46850000Y-22050000D03*
X16750000Y-90250000D03*
X20450000Y-13450000D03*
X32500000Y-91250000D03*
X18650000Y-23250000D03*
X49900000Y-55950000D03*
X60050000Y-29250000D03*
X39750000Y-62500000D03*
X17500000Y-90250000D03*
X36400000Y-57700000D03*
X30500000Y-91500000D03*
X46750000Y-91250000D03*
X44500000Y-91750000D03*
X37850000Y-26850000D03*
X30000000Y-90500000D03*
X27250000Y-64750000D03*
X48650000Y-45200000D03*
X52850000Y-30650000D03*
X36250000Y-18250000D03*
X44250000Y-30450000D03*
X17000000Y-91250000D03*
X23250000Y-13450000D03*
X31500000Y-91500000D03*
X9650000Y-19250000D03*
X37250000Y-27650000D03*
X46850000Y-25450000D03*
X50850000Y-27650000D03*
X52050000Y-22450000D03*
X12050000Y-10450000D03*
X46500000Y-90250000D03*
X42850000Y-30450000D03*
X45000000Y-15750000D03*
X17750000Y-91000000D03*
X50850000Y-14650000D03*
X11050000Y-12650000D03*
X30750000Y-90500000D03*
X29250000Y-73500000D03*
X43450000Y-11050000D03*
%TO.N,/RESET*%
X42850000Y-21250000D03*
X39750000Y-11500000D03*
X40250000Y-19900000D03*
%TO.N,+1V1*%
X45015422Y-27850745D03*
X43650000Y-21250000D03*
X40150000Y-30250000D03*
X42556740Y-28191787D03*
%TO.N,+5V*%
X9874265Y-12674265D03*
X13250000Y-91500000D03*
X40750000Y-64750000D03*
X12250000Y-90500000D03*
X42000000Y-89750000D03*
X12000000Y-91500000D03*
X15250000Y-12050000D03*
X42750000Y-91250000D03*
X13000000Y-90750000D03*
X14500000Y-90750000D03*
X28250000Y-91250000D03*
X27500000Y-90250000D03*
X41000000Y-91250000D03*
X11000000Y-91500000D03*
X14500000Y-89750000D03*
X28500000Y-90250000D03*
X26250000Y-91250000D03*
X11250000Y-90750000D03*
X14500000Y-91500000D03*
X42750000Y-90500000D03*
X38750000Y-63750000D03*
X41750000Y-91500000D03*
X25250000Y-91250000D03*
X40250000Y-91250000D03*
X13500000Y-89750000D03*
X11500000Y-89750000D03*
X12500000Y-89750000D03*
X26750000Y-90250000D03*
X9450000Y-18050000D03*
X27250000Y-91250000D03*
X26000000Y-90250000D03*
X41750000Y-90500000D03*
%TO.N,/PHOTORESISTOR*%
X31000000Y-31250000D03*
X29750000Y-32500000D03*
%TO.N,/BUTTON*%
X15250000Y-38750000D03*
X34750000Y-30250000D03*
%TO.N,/SD_CS*%
X36250000Y-24050000D03*
X22850000Y-33250000D03*
%TO.N,/SPI_SCK*%
X30250000Y-25225000D03*
X27500000Y-25225000D03*
%TO.N,/SCL*%
X53250000Y-24850000D03*
X46050000Y-49850000D03*
X45900000Y-55950000D03*
X50850000Y-39450000D03*
%TO.N,/SDA*%
X46900000Y-56200000D03*
X53850000Y-25515642D03*
X48850000Y-46650000D03*
X53050000Y-39650000D03*
%TO.N,/SPI_MISO*%
X20622342Y-29533923D03*
X36026328Y-21635089D03*
%TO.N,/SPI_MOSI*%
X37050000Y-21250000D03*
X21050000Y-25850000D03*
%TO.N,/UART_TX*%
X60500000Y-32750000D03*
X60250000Y-41450000D03*
%TO.N,/UART_RX*%
X55250000Y-44750000D03*
X57750000Y-50500000D03*
X54500000Y-28250000D03*
%TO.N,Net-(U4-USB_DP)*%
X43550001Y-30837301D03*
X44069951Y-25950000D03*
%TO.N,Net-(U4-USB_DM)*%
X43156740Y-26012033D03*
X41450000Y-31650000D03*
%TO.N,Net-(U4-GPIO4)*%
X47050000Y-24050000D03*
X30850000Y-34250000D03*
%TO.N,/Button Matrix/C1*%
X96528765Y-31028765D03*
X108250000Y-42750000D03*
X69750000Y-14750000D03*
X129750000Y-64250000D03*
X119250000Y-53750000D03*
%TO.N,/Button Matrix/C2*%
X85500000Y-88000000D03*
X105750000Y-62250000D03*
X116000000Y-62250000D03*
X57000000Y-14250000D03*
X65250000Y-8750000D03*
X98750000Y-18250000D03*
X93500000Y-74250000D03*
X121625000Y-41125000D03*
X128250000Y-61750000D03*
X101250000Y-64250000D03*
X86000000Y-7250000D03*
X90000000Y-76500000D03*
X130000000Y-51000000D03*
X110500000Y-30100000D03*
X75000000Y-77000000D03*
X54250000Y-14250000D03*
X90000000Y-83250000D03*
X111500000Y-62250000D03*
X42362859Y-18590317D03*
%TO.N,/Button Matrix/C3*%
X109750000Y-18250000D03*
X97750000Y-7000000D03*
X74750000Y-65000000D03*
X41500000Y-10250000D03*
X129750000Y-41750000D03*
X98250000Y-97000000D03*
X73750000Y-62750000D03*
X56750000Y-13000000D03*
X41590606Y-18799185D03*
X96750000Y-88500000D03*
X86000000Y-76000000D03*
X121750000Y-30250000D03*
%TO.N,/Button Matrix/C4*%
X107750000Y-88500000D03*
X64500000Y-52035714D03*
X70850000Y-51250000D03*
X98750000Y-75850000D03*
X69500000Y-51750000D03*
X87250000Y-64250000D03*
X42039527Y-22031353D03*
X119500000Y-18500000D03*
X108000000Y-7500000D03*
X76000000Y-53000000D03*
X137500000Y-86000000D03*
X129750000Y-30250000D03*
X41250000Y-19900000D03*
%TO.N,/Button Matrix/C5*%
X72000000Y-40850000D03*
X118750000Y-7500000D03*
X118750000Y-88500000D03*
X129750000Y-18750000D03*
X74750000Y-42000000D03*
X41000000Y-34250000D03*
X85750000Y-53500000D03*
X128350000Y-26501472D03*
X42500000Y-36000000D03*
X40250000Y-23050000D03*
X108375000Y-76125000D03*
X96625000Y-64375000D03*
X40250000Y-27000000D03*
X80500000Y-27250000D03*
%TO.N,/Button Matrix/C6*%
X48500000Y-27250000D03*
X120625000Y-75875000D03*
X50750000Y-31500000D03*
X97500000Y-52750000D03*
X129750000Y-88000000D03*
X75000000Y-30750000D03*
X135750000Y-88000000D03*
X134250000Y-89750000D03*
X137250000Y-88750000D03*
X109000000Y-64250000D03*
X42243503Y-23727108D03*
X85750000Y-41000000D03*
X134250000Y-88500000D03*
%TO.N,/Button Matrix/C7*%
X39480329Y-23268198D03*
X54000000Y-22450000D03*
X120107842Y-63142158D03*
X71000000Y-24000000D03*
X129750000Y-76500000D03*
X57250000Y-84500000D03*
X109232842Y-52267158D03*
X59250000Y-81000000D03*
X74750000Y-18750000D03*
X97732842Y-40767158D03*
X86732842Y-29767158D03*
%TO.N,/Button Matrix/R2*%
X67250000Y-19450000D03*
X80750000Y-17250000D03*
%TO.N,/Button Matrix/R3*%
X68500000Y-40250000D03*
X68650000Y-18250000D03*
%TO.N,/Button Matrix/R4*%
X72750000Y-52100000D03*
X69250000Y-50500000D03*
X69650000Y-17500000D03*
X72750000Y-50500000D03*
%TO.N,+3V3*%
X18650000Y-29250000D03*
X67750000Y-23750000D03*
X40850000Y-27850000D03*
X65250000Y-54250000D03*
X64750000Y-41750000D03*
X55450000Y-36650000D03*
X19050000Y-35450000D03*
X38850000Y-26850000D03*
X68000000Y-61000000D03*
X40750000Y-17250000D03*
X21450000Y-10250000D03*
X38250000Y-66250000D03*
X45025735Y-18225735D03*
X38650000Y-23250000D03*
X50850000Y-42450000D03*
X48250000Y-35650000D03*
X18750000Y-38750000D03*
X48750000Y-51750000D03*
X47050000Y-37250000D03*
X51850000Y-42650000D03*
X49250000Y-26850000D03*
X18750000Y-63250000D03*
X66500000Y-12750000D03*
X21650000Y-35450000D03*
X21050000Y-26650000D03*
X10750000Y-40250000D03*
X67500000Y-10750000D03*
X51250000Y-51250000D03*
X23850000Y-25050000D03*
X50829636Y-21665518D03*
X22250000Y-28850000D03*
X39650000Y-27650000D03*
X47000000Y-43250000D03*
X22050000Y-24250000D03*
X137250000Y-91750000D03*
X45050000Y-28650000D03*
%TO.N,/Button Matrix/R5*%
X70250000Y-16000000D03*
%TO.N,/Button Matrix/R6*%
X66250000Y-50750000D03*
X66750000Y-54750000D03*
X68000000Y-72500000D03*
X63250000Y-16500000D03*
%TO.N,/Button Matrix/R7*%
X61000000Y-59500000D03*
X59500000Y-48500000D03*
X54500000Y-21250000D03*
X46268601Y-20924354D03*
X62750000Y-63750000D03*
X56750000Y-21500000D03*
%TO.N,/RGB_3*%
X57750000Y-30000000D03*
X41000000Y-60250000D03*
%TO.N,/RGB_2*%
X57100000Y-31000000D03*
X37174265Y-61924265D03*
%TO.N,/RGB_1*%
X39000000Y-59250000D03*
X56500000Y-30250000D03*
%TO.N,Net-(U3-IO3)*%
X44950000Y-30850000D03*
X45850000Y-25650000D03*
%TO.N,/RTC_INT*%
X35650000Y-36654800D03*
X35650000Y-34950000D03*
X36000000Y-31750000D03*
X42250000Y-25500000D03*
%TO.N,/BRIGHTNESS_POT*%
X31750000Y-32000000D03*
X29750000Y-53500000D03*
%TO.N,/SWCLK*%
X34000000Y-12000000D03*
%TD*%
D18*
%TO.N,/Button Matrix/R5*%
X112500000Y-33500000D02*
X112250000Y-33250000D01*
X70250000Y-16000000D02*
X111500000Y-16000000D01*
X112500000Y-41500000D02*
X112500000Y-33500000D01*
X112250000Y-30500000D02*
X112250000Y-21750000D01*
X112250000Y-19250000D02*
X112250000Y-16750000D01*
X112250000Y-16750000D02*
X111500000Y-16000000D01*
%TO.N,/SPI_MISO*%
X22949264Y-24199264D02*
X21898529Y-25250000D01*
X26000000Y-25000000D02*
X25199264Y-24199264D01*
X25199264Y-24199264D02*
X22949264Y-24199264D01*
%TO.N,/Button Matrix/C2*%
X98750000Y-18250000D02*
X97100000Y-16600000D01*
X97100000Y-16600000D02*
X97000000Y-16600000D01*
X95250000Y-14750000D02*
X88500000Y-8000000D01*
X88500000Y-8000000D02*
X86750000Y-8000000D01*
X95250000Y-15250000D02*
X95250000Y-14750000D01*
X86750000Y-8000000D02*
X86000000Y-7250000D01*
%TO.N,/Button Matrix/C3*%
X109750000Y-18250000D02*
X109500000Y-18000000D01*
X109500000Y-18000000D02*
X109500000Y-17650000D01*
X109500000Y-17650000D02*
X108500000Y-16650000D01*
%TO.N,/Button Matrix/C1*%
X69750000Y-14750000D02*
X73500000Y-14750000D01*
X74000000Y-15400000D02*
X74000000Y-15250000D01*
X74000000Y-15250000D02*
X73500000Y-14750000D01*
X96528765Y-31028765D02*
X83500000Y-18000000D01*
X83500000Y-18000000D02*
X79250000Y-18000000D01*
X108250000Y-42750000D02*
X96528765Y-31028765D01*
%TO.N,/Button Matrix/R2*%
X74098529Y-17250000D02*
X71750000Y-17250000D01*
X71750000Y-15400000D02*
X70001471Y-15400000D01*
%TO.N,/SPI_MISO*%
X36026328Y-21635089D02*
X36026328Y-21730116D01*
%TO.N,/RESET*%
X39750000Y-11500000D02*
X39750000Y-19400000D01*
X39750000Y-19400000D02*
X40250000Y-19900000D01*
%TO.N,+1V1*%
X43650000Y-21250000D02*
X45015422Y-22015422D01*
X45015422Y-22015422D02*
X45015422Y-27850745D01*
X42208213Y-28191787D02*
X42556740Y-28191787D01*
X40150000Y-30250000D02*
X42208213Y-28191787D01*
%TO.N,/PHOTORESISTOR*%
X29750000Y-32500000D02*
X31000000Y-31250000D01*
%TO.N,/BUTTON*%
X16000000Y-38750000D02*
X15250000Y-38750000D01*
X34750000Y-30250000D02*
X31151471Y-30250000D01*
X23500000Y-37500000D02*
X17250000Y-37500000D01*
X23901471Y-37500000D02*
X23500000Y-37500000D01*
X17250000Y-37500000D02*
X16000000Y-38750000D01*
X31151471Y-30250000D02*
X23901471Y-37500000D01*
D19*
%TO.N,/SD_CS*%
X32650000Y-26450000D02*
X33850000Y-26450000D01*
X29650000Y-26450000D02*
X32650000Y-26450000D01*
X33850000Y-26450000D02*
X36250000Y-24050000D01*
X22850000Y-33250000D02*
X29650000Y-26450000D01*
D18*
%TO.N,/SPI_SCK*%
X30250000Y-25225000D02*
X27500000Y-25225000D01*
%TO.N,/SCL*%
X51550000Y-37750000D02*
X46050000Y-43250000D01*
X50850000Y-38450000D02*
X51550000Y-37750000D01*
X51650000Y-37650000D02*
X51550000Y-37750000D01*
X45900000Y-55950000D02*
X46050000Y-55800000D01*
X46050000Y-55800000D02*
X46050000Y-49850000D01*
X46050000Y-43250000D02*
X46050000Y-49850000D01*
X51650000Y-27698529D02*
X51650000Y-37650000D01*
X53250000Y-26098529D02*
X51650000Y-27698529D01*
X53250000Y-24850000D02*
X53250000Y-26098529D01*
X50850000Y-39450000D02*
X50850000Y-38450000D01*
%TO.N,/SDA*%
X46900000Y-48600000D02*
X48850000Y-46650000D01*
X46900000Y-56200000D02*
X46900000Y-48600000D01*
X53850000Y-38850000D02*
X53850000Y-38650000D01*
X53850000Y-41650000D02*
X48850000Y-46650000D01*
X53850000Y-25515642D02*
X53850000Y-38650000D01*
X53850000Y-38650000D02*
X53850000Y-41650000D01*
X53050000Y-39650000D02*
X53850000Y-38850000D01*
D19*
%TO.N,/SPI_MOSI*%
X36625000Y-22670100D02*
X33445100Y-25850000D01*
X36625000Y-22191116D02*
X36625000Y-22670100D01*
D18*
X36625000Y-21675000D02*
X36625000Y-22191116D01*
D19*
X33445100Y-25850000D02*
X21050000Y-25850000D01*
D18*
X37050000Y-21250000D02*
X36625000Y-21675000D01*
%TO.N,/UART_TX*%
X60650000Y-32900000D02*
X60500000Y-32750000D01*
X60650000Y-41050000D02*
X60650000Y-32900000D01*
X60250000Y-41450000D02*
X60650000Y-41050000D01*
%TO.N,/UART_RX*%
X54500000Y-28250000D02*
X54500000Y-44000000D01*
X60660000Y-53410000D02*
X62000000Y-53410000D01*
X54500000Y-44000000D02*
X55250000Y-44750000D01*
X57750000Y-50500000D02*
X60660000Y-53410000D01*
%TO.N,Net-(U4-USB_DP)*%
X43650000Y-26369951D02*
X44069951Y-25950000D01*
X43762700Y-31050000D02*
X43650000Y-30937300D01*
X43550001Y-30837301D02*
X43762700Y-31050000D01*
X43650000Y-30937300D02*
X43650000Y-26369951D01*
%TO.N,Net-(U4-USB_DM)*%
X42250000Y-30201471D02*
X42601471Y-29850000D01*
X43156740Y-29543260D02*
X43156740Y-26012033D01*
X42250000Y-30850000D02*
X42250000Y-30201471D01*
X42850000Y-29850000D02*
X43156740Y-29543260D01*
X41450000Y-31650000D02*
X42250000Y-30850000D01*
X42601471Y-29850000D02*
X42850000Y-29850000D01*
%TO.N,Net-(U4-GPIO4)*%
X32450000Y-32650000D02*
X30850000Y-34250000D01*
X47450000Y-29198529D02*
X43998529Y-32650000D01*
X43998529Y-32650000D02*
X32450000Y-32650000D01*
X47450000Y-24450000D02*
X47450000Y-29198529D01*
X47050000Y-24050000D02*
X47450000Y-24450000D01*
%TO.N,/Button Matrix/C1*%
X119250000Y-53750000D02*
X129750000Y-64250000D01*
X108250000Y-42750000D02*
X119250000Y-53750000D01*
%TO.N,/Button Matrix/C2*%
X47898529Y-15250000D02*
X53250000Y-15250000D01*
X103250000Y-62250000D02*
X105750000Y-62250000D01*
X53250000Y-15250000D02*
X54250000Y-14250000D01*
X128250000Y-61750000D02*
X130000000Y-60000000D01*
X65250000Y-8750000D02*
X64375000Y-7875000D01*
X47498529Y-14850000D02*
X47898529Y-15250000D01*
X42500000Y-15500000D02*
X43150000Y-14850000D01*
X85500000Y-88000000D02*
X85500000Y-87750000D01*
X130000000Y-49500000D02*
X130000000Y-51000000D01*
X64000000Y-7250000D02*
X63375000Y-7875000D01*
X85500000Y-87500000D02*
X75000000Y-77000000D01*
X63375000Y-7875000D02*
X57000000Y-14250000D01*
X42362859Y-18590317D02*
X42500000Y-18453176D01*
X64375000Y-7875000D02*
X63375000Y-7875000D01*
X98750000Y-18250000D02*
X121625000Y-41125000D01*
X85500000Y-88000000D02*
X85500000Y-87500000D01*
X92250000Y-74250000D02*
X93500000Y-74250000D01*
X42500000Y-18453176D02*
X42500000Y-15500000D01*
X43150000Y-14850000D02*
X47498529Y-14850000D01*
X86000000Y-7250000D02*
X64000000Y-7250000D01*
X85500000Y-87750000D02*
X90000000Y-83250000D01*
X121625000Y-41125000D02*
X130000000Y-49500000D01*
X111500000Y-62250000D02*
X116000000Y-62250000D01*
X130000000Y-60000000D02*
X130000000Y-51000000D01*
X101250000Y-64250000D02*
X103250000Y-62250000D01*
X90000000Y-76500000D02*
X92250000Y-74250000D01*
%TO.N,/Button Matrix/C3*%
X86000000Y-76000000D02*
X75000000Y-65000000D01*
X41450000Y-10300000D02*
X41450000Y-18658579D01*
X75000000Y-65000000D02*
X74750000Y-65000000D01*
X98250000Y-97000000D02*
X98250000Y-90000000D01*
X41500000Y-10250000D02*
X41450000Y-10300000D01*
X89750000Y-79750000D02*
X86000000Y-76000000D01*
X97250000Y-6500000D02*
X63250000Y-6500000D01*
X41450000Y-18658579D02*
X41590606Y-18799185D01*
X89750000Y-81500000D02*
X89750000Y-79750000D01*
X98250000Y-90000000D02*
X96750000Y-88500000D01*
X129750000Y-38250000D02*
X129750000Y-41750000D01*
X74750000Y-63750000D02*
X74750000Y-65000000D01*
X109750000Y-18250000D02*
X121750000Y-30250000D01*
X63250000Y-6500000D02*
X56750000Y-13000000D01*
X73750000Y-62750000D02*
X74750000Y-63750000D01*
X96750000Y-88500000D02*
X89750000Y-81500000D01*
X97750000Y-7000000D02*
X97250000Y-6500000D01*
X121750000Y-30250000D02*
X129750000Y-38250000D01*
%TO.N,/Button Matrix/C4*%
X54650000Y-25900000D02*
X58500000Y-29750000D01*
X58500000Y-29750000D02*
X58500000Y-48750000D01*
X54248529Y-21850000D02*
X54650000Y-22251471D01*
X50000000Y-23050000D02*
X52551471Y-23050000D01*
X135498529Y-89100000D02*
X108350000Y-89100000D01*
X70850000Y-51250000D02*
X71051471Y-51250000D01*
X108000000Y-7500000D02*
X108500000Y-7500000D01*
X44348529Y-19900000D02*
X46250000Y-21801471D01*
X107750000Y-84750000D02*
X87250000Y-64250000D01*
X48400000Y-21450000D02*
X50000000Y-23050000D01*
X54650000Y-22251471D02*
X54650000Y-25900000D01*
X46250000Y-21801471D02*
X46601471Y-21450000D01*
X107750000Y-88500000D02*
X107750000Y-84750000D01*
X129750000Y-28750000D02*
X129750000Y-30250000D01*
X60250000Y-50500000D02*
X60750000Y-52250000D01*
X64500000Y-52035714D02*
X69500000Y-51750000D01*
X52551471Y-23050000D02*
X53751471Y-21850000D01*
X72801471Y-53000000D02*
X76000000Y-53000000D01*
X87250000Y-64250000D02*
X76000000Y-53000000D01*
X108500000Y-7500000D02*
X119500000Y-18500000D01*
X41250000Y-19900000D02*
X44348529Y-19900000D01*
X137500000Y-87098529D02*
X135498529Y-89100000D01*
X53751471Y-21850000D02*
X54248529Y-21850000D01*
X58500000Y-48750000D02*
X60250000Y-50500000D01*
X108350000Y-89100000D02*
X107750000Y-88500000D01*
X71051471Y-51250000D02*
X72801471Y-53000000D01*
X46601471Y-21450000D02*
X48400000Y-21450000D01*
X119500000Y-18500000D02*
X129750000Y-28750000D01*
X137500000Y-86000000D02*
X137500000Y-87098529D01*
X60750000Y-52250000D02*
X64500000Y-52035714D01*
%TO.N,/Button Matrix/C5*%
X72000000Y-40850000D02*
X73600000Y-40850000D01*
X118750000Y-88500000D02*
X118750000Y-86500000D01*
X125000000Y-9750000D02*
X129750000Y-14500000D01*
X74400000Y-30501471D02*
X74400000Y-41650000D01*
X96625000Y-64375000D02*
X85750000Y-53500000D01*
X129750000Y-14500000D02*
X129750000Y-18750000D01*
X108750000Y-76500000D02*
X108375000Y-76125000D01*
X85750000Y-53500000D02*
X74750000Y-42500000D01*
X129750000Y-18750000D02*
X129750000Y-25101472D01*
X74750000Y-42500000D02*
X74750000Y-42000000D01*
X77651471Y-27250000D02*
X74400000Y-30501471D01*
X40250000Y-23050000D02*
X40250000Y-27000000D01*
X80500000Y-27250000D02*
X77651471Y-27250000D01*
X74400000Y-41650000D02*
X74750000Y-42000000D01*
X118750000Y-86500000D02*
X108750000Y-76500000D01*
X108375000Y-76125000D02*
X96625000Y-64375000D01*
X41000000Y-34250000D02*
X42500000Y-35750000D01*
X73600000Y-40850000D02*
X74750000Y-42000000D01*
X42500000Y-35750000D02*
X42500000Y-36000000D01*
X122750000Y-7500000D02*
X125000000Y-9750000D01*
X118750000Y-7500000D02*
X122750000Y-7500000D01*
X129750000Y-25101472D02*
X128350000Y-26501472D01*
%TO.N,/Button Matrix/C6*%
X134750000Y-88000000D02*
X135000000Y-88000000D01*
X124000000Y-79250000D02*
X120625000Y-75875000D01*
X120625000Y-75875000D02*
X109000000Y-64250000D01*
X129750000Y-88000000D02*
X129750000Y-85000000D01*
X109000000Y-64250000D02*
X97500000Y-52750000D01*
X97500000Y-52750000D02*
X85750000Y-41000000D01*
X136250000Y-89750000D02*
X134250000Y-89750000D01*
X129750000Y-85000000D02*
X124000000Y-79250000D01*
X137250000Y-88750000D02*
X136250000Y-89750000D01*
X75000000Y-30750000D02*
X75500000Y-30750000D01*
X50750000Y-31500000D02*
X50750000Y-29500000D01*
X50750000Y-29500000D02*
X48500000Y-27250000D01*
X135750000Y-88000000D02*
X135000000Y-88000000D01*
X135000000Y-88000000D02*
X129750000Y-88000000D01*
X134250000Y-88500000D02*
X134750000Y-88000000D01*
X75500000Y-30750000D02*
X85750000Y-41000000D01*
%TO.N,/Button Matrix/C7*%
X40250000Y-20500000D02*
X39480329Y-21269671D01*
X129750000Y-76500000D02*
X123000000Y-69750000D01*
X54000000Y-22450000D02*
X53000000Y-23450000D01*
X39480329Y-21269671D02*
X39480329Y-23268198D01*
X74750000Y-18750000D02*
X71000000Y-22500000D01*
X53000000Y-23450000D02*
X47200000Y-23450000D01*
X123000000Y-66500000D02*
X123000000Y-66034315D01*
X120107842Y-63142158D02*
X109232842Y-52267158D01*
X59250000Y-82500000D02*
X57250000Y-84500000D01*
X47200000Y-23450000D02*
X44250000Y-20500000D01*
X44250000Y-20500000D02*
X40250000Y-20500000D01*
X75715685Y-18750000D02*
X74750000Y-18750000D01*
X71000000Y-22500000D02*
X71000000Y-24000000D01*
X123000000Y-66034315D02*
X120107842Y-63142158D01*
X109232842Y-52267158D02*
X97732842Y-40767158D01*
X59250000Y-81000000D02*
X59250000Y-82500000D01*
X86732842Y-29767158D02*
X75715685Y-18750000D01*
X123000000Y-69750000D02*
X123000000Y-66500000D01*
X97732842Y-40767158D02*
X86732842Y-29767158D01*
%TO.N,/Button Matrix/R2*%
X67250000Y-18151471D02*
X70001471Y-15400000D01*
X67250000Y-19450000D02*
X67250000Y-18151471D01*
X74098529Y-17250000D02*
X80750000Y-17250000D01*
%TO.N,/Button Matrix/R3*%
X68650000Y-18250000D02*
X68650000Y-40100000D01*
X68650000Y-40100000D02*
X68500000Y-40250000D01*
%TO.N,/Button Matrix/R4*%
X69250000Y-17900000D02*
X69250000Y-50500000D01*
X72750000Y-50500000D02*
X72750000Y-52100000D01*
X69650000Y-17500000D02*
X69250000Y-17900000D01*
%TO.N,/Button Matrix/R6*%
X63250000Y-16500000D02*
X63250000Y-47750000D01*
X63250000Y-47750000D02*
X66250000Y-50750000D01*
X66750000Y-54750000D02*
X66750000Y-71250000D01*
X66750000Y-71250000D02*
X68000000Y-72500000D01*
%TO.N,/Button Matrix/R7*%
X62750000Y-61250000D02*
X62750000Y-63750000D01*
X54174354Y-20924354D02*
X54500000Y-21250000D01*
X46268601Y-20924354D02*
X54174354Y-20924354D01*
X61000000Y-59500000D02*
X62750000Y-61250000D01*
X56750000Y-27000000D02*
X59500000Y-29750000D01*
X59500000Y-29750000D02*
X59500000Y-48500000D01*
X56750000Y-21500000D02*
X56750000Y-27000000D01*
%TO.N,/RGB_3*%
X41000000Y-60250000D02*
X46448529Y-60250000D01*
X46448529Y-60250000D02*
X57750000Y-48948529D01*
X57750000Y-48948529D02*
X57750000Y-30000000D01*
%TO.N,/RGB_2*%
X39448530Y-59650000D02*
X37174265Y-61924265D01*
X44864215Y-59650000D02*
X39448530Y-59650000D01*
X57100000Y-31000000D02*
X57100000Y-30498529D01*
X57100000Y-47414215D02*
X44864215Y-59650000D01*
X57100000Y-30498529D02*
X57100000Y-47414215D01*
%TO.N,/RGB_1*%
X56500000Y-47448529D02*
X44698529Y-59250000D01*
X56500000Y-30250000D02*
X56500000Y-47448529D01*
X44698529Y-59250000D02*
X39000000Y-59250000D01*
%TO.N,Net-(U3-IO3)*%
X45850000Y-29950000D02*
X45850000Y-25650000D01*
X44950000Y-30850000D02*
X45850000Y-29950000D01*
%TO.N,/RTC_INT*%
X42250000Y-25500000D02*
X42250000Y-27298529D01*
X37798529Y-31750000D02*
X36000000Y-31750000D01*
X42250000Y-27298529D02*
X37798529Y-31750000D01*
X35650000Y-34950000D02*
X35650000Y-36654800D01*
%TO.N,/BRIGHTNESS_POT*%
X31750000Y-32000000D02*
X29750000Y-34000000D01*
X29750000Y-34000000D02*
X29750000Y-53500000D01*
%TO.N,/SWCLK*%
X33500000Y-12500000D02*
X33500000Y-17210000D01*
X33500000Y-17210000D02*
X31750000Y-18960000D01*
X34000000Y-12000000D02*
X33500000Y-12500000D01*
%TO.N,/SPI_MISO*%
X21898529Y-25250000D02*
X20801471Y-25250000D01*
X20450000Y-25601471D02*
X20450000Y-29361581D01*
X20801471Y-25250000D02*
X20450000Y-25601471D01*
X20450000Y-29361581D02*
X20622342Y-29533923D01*
%TD*%
%TA.AperFunction,Conductor*%
%TO.N,+5V*%
G36*
X19693039Y-520185D02*
G01*
X19738794Y-572989D01*
X19750000Y-624500D01*
X19750000Y-16200700D01*
X19730315Y-16267739D01*
X19716150Y-16285841D01*
X15500000Y-20749999D01*
X15499999Y-20750001D01*
X15187314Y-38156171D01*
X15166429Y-38222846D01*
X15112811Y-38267645D01*
X15098270Y-38272921D01*
X15039948Y-38290046D01*
X14918873Y-38367856D01*
X14824623Y-38476626D01*
X14824622Y-38476628D01*
X14764834Y-38607543D01*
X14744353Y-38750000D01*
X14764834Y-38892456D01*
X14795660Y-38959954D01*
X14824623Y-39023373D01*
X14918872Y-39132143D01*
X15039947Y-39209953D01*
X15076965Y-39220822D01*
X15135742Y-39258594D01*
X15164768Y-39322149D01*
X15166011Y-39342026D01*
X14750000Y-62499999D01*
X14750000Y-62500000D01*
X25499474Y-62500000D01*
X25566513Y-62519685D01*
X25612268Y-62572489D01*
X25622212Y-62641647D01*
X25593187Y-62705202D01*
X25574625Y-62726622D01*
X25574622Y-62726628D01*
X25514834Y-62857543D01*
X25494353Y-63000000D01*
X25514834Y-63142456D01*
X25563949Y-63250000D01*
X25574623Y-63273373D01*
X25668872Y-63382143D01*
X25789947Y-63459953D01*
X25789950Y-63459954D01*
X25789949Y-63459954D01*
X25928036Y-63500499D01*
X25928038Y-63500500D01*
X25928039Y-63500500D01*
X26071962Y-63500500D01*
X26071962Y-63500499D01*
X26210053Y-63459953D01*
X26331128Y-63382143D01*
X26425377Y-63273373D01*
X26485165Y-63142457D01*
X26505647Y-63000000D01*
X26485165Y-62857543D01*
X26425377Y-62726627D01*
X26425375Y-62726625D01*
X26425374Y-62726622D01*
X26406813Y-62705202D01*
X26377788Y-62641647D01*
X26387732Y-62572488D01*
X26433487Y-62519684D01*
X26500526Y-62500000D01*
X39136906Y-62500000D01*
X39203945Y-62519685D01*
X39249700Y-62572489D01*
X39259644Y-62606353D01*
X39264834Y-62642456D01*
X39303275Y-62726628D01*
X39324623Y-62773373D01*
X39418872Y-62882143D01*
X39539947Y-62959953D01*
X39539950Y-62959954D01*
X39539949Y-62959954D01*
X39596737Y-62976628D01*
X39676336Y-63000000D01*
X39678036Y-63000499D01*
X39678038Y-63000500D01*
X39678039Y-63000500D01*
X39821962Y-63000500D01*
X39821962Y-63000499D01*
X39960053Y-62959953D01*
X40081128Y-62882143D01*
X40175377Y-62773373D01*
X40235165Y-62642457D01*
X40240356Y-62606353D01*
X40269381Y-62542797D01*
X40328159Y-62505023D01*
X40363094Y-62500000D01*
X51376000Y-62500000D01*
X51443039Y-62519685D01*
X51488794Y-62572489D01*
X51500000Y-62624000D01*
X51500000Y-99375500D01*
X51480315Y-99442539D01*
X51427511Y-99488294D01*
X51376000Y-99499500D01*
X4874277Y-99499500D01*
X4807238Y-99479815D01*
X4761483Y-99427011D01*
X4751539Y-99357853D01*
X4780564Y-99294297D01*
X4794571Y-99280511D01*
X4848257Y-99235462D01*
X4993817Y-99113323D01*
X5225678Y-98867565D01*
X5427440Y-98596552D01*
X5596375Y-98303948D01*
X5730198Y-97993711D01*
X5827100Y-97670035D01*
X5885771Y-97337298D01*
X5905416Y-97000000D01*
X5885771Y-96662702D01*
X5827100Y-96329965D01*
X5730198Y-96006289D01*
X5596375Y-95696052D01*
X5427440Y-95403448D01*
X5427439Y-95403446D01*
X5225681Y-95132438D01*
X5225676Y-95132432D01*
X5113564Y-95013601D01*
X4993817Y-94886677D01*
X4993810Y-94886671D01*
X4993808Y-94886669D01*
X4734998Y-94669500D01*
X4593851Y-94576667D01*
X4452708Y-94483836D01*
X4447593Y-94481267D01*
X4150783Y-94332203D01*
X4150777Y-94332200D01*
X3833284Y-94216642D01*
X3833281Y-94216641D01*
X3606639Y-94162926D01*
X3504520Y-94138724D01*
X3168935Y-94099500D01*
X2831065Y-94099500D01*
X2495480Y-94138724D01*
X2166718Y-94216641D01*
X2166715Y-94216642D01*
X1849222Y-94332200D01*
X1849216Y-94332203D01*
X1547295Y-94483834D01*
X1265001Y-94669500D01*
X1006191Y-94886669D01*
X1006181Y-94886679D01*
X774323Y-95132432D01*
X774318Y-95132438D01*
X723963Y-95200078D01*
X668140Y-95242097D01*
X598462Y-95247265D01*
X537051Y-95213943D01*
X503404Y-95152708D01*
X500500Y-95126030D01*
X500500Y-90250000D01*
X15494353Y-90250000D01*
X15514834Y-90392456D01*
X15563949Y-90500000D01*
X15574623Y-90523373D01*
X15668872Y-90632143D01*
X15789947Y-90709953D01*
X15789950Y-90709954D01*
X15789949Y-90709954D01*
X15816663Y-90717798D01*
X15875441Y-90755572D01*
X15904467Y-90819127D01*
X15894524Y-90888286D01*
X15875443Y-90917977D01*
X15824623Y-90976627D01*
X15824622Y-90976628D01*
X15764834Y-91107543D01*
X15744353Y-91250000D01*
X15764834Y-91392456D01*
X15803275Y-91476628D01*
X15824623Y-91523373D01*
X15918872Y-91632143D01*
X16039947Y-91709953D01*
X16039950Y-91709954D01*
X16039949Y-91709954D01*
X16147107Y-91741417D01*
X16176336Y-91750000D01*
X16178036Y-91750499D01*
X16178038Y-91750500D01*
X16178039Y-91750500D01*
X16321962Y-91750500D01*
X16321962Y-91750499D01*
X16460053Y-91709953D01*
X16557960Y-91647031D01*
X16625000Y-91627347D01*
X16692039Y-91647032D01*
X16692040Y-91647032D01*
X16789947Y-91709953D01*
X16789948Y-91709953D01*
X16789949Y-91709954D01*
X16897107Y-91741417D01*
X16926336Y-91750000D01*
X16928036Y-91750499D01*
X16928038Y-91750500D01*
X16928039Y-91750500D01*
X17071962Y-91750500D01*
X17071962Y-91750499D01*
X17210053Y-91709953D01*
X17331128Y-91632143D01*
X17425377Y-91523373D01*
X17425382Y-91523359D01*
X17427658Y-91519821D01*
X17430857Y-91517048D01*
X17431185Y-91516670D01*
X17431239Y-91516717D01*
X17480457Y-91474060D01*
X17549615Y-91464109D01*
X17566915Y-91467872D01*
X17658894Y-91494878D01*
X17676336Y-91500000D01*
X17678036Y-91500499D01*
X17678038Y-91500500D01*
X17678039Y-91500500D01*
X17821962Y-91500500D01*
X17821962Y-91500499D01*
X17960053Y-91459953D01*
X18081128Y-91382143D01*
X18175377Y-91273373D01*
X18235165Y-91142457D01*
X18255647Y-91000000D01*
X18235165Y-90857543D01*
X18175377Y-90726627D01*
X18081128Y-90617857D01*
X18081125Y-90617855D01*
X18081126Y-90617855D01*
X18017747Y-90577124D01*
X17971993Y-90524320D01*
X17968496Y-90500000D01*
X29494353Y-90500000D01*
X29514834Y-90642456D01*
X29553275Y-90726628D01*
X29574623Y-90773373D01*
X29668872Y-90882143D01*
X29789947Y-90959953D01*
X29789950Y-90959954D01*
X29789949Y-90959954D01*
X29846737Y-90976628D01*
X29926336Y-91000000D01*
X29928036Y-91000499D01*
X29928038Y-91000500D01*
X29999041Y-91000500D01*
X30066080Y-91020185D01*
X30111835Y-91072989D01*
X30121779Y-91142147D01*
X30092754Y-91205703D01*
X30074623Y-91226627D01*
X30074622Y-91226628D01*
X30014834Y-91357543D01*
X29994353Y-91500000D01*
X30014834Y-91642456D01*
X30045660Y-91709954D01*
X30074623Y-91773373D01*
X30168872Y-91882143D01*
X30289947Y-91959953D01*
X30289950Y-91959954D01*
X30289949Y-91959954D01*
X30428036Y-92000499D01*
X30428038Y-92000500D01*
X30428039Y-92000500D01*
X30571962Y-92000500D01*
X30571962Y-92000499D01*
X30710053Y-91959953D01*
X30831128Y-91882143D01*
X30906287Y-91795403D01*
X30965064Y-91757629D01*
X31034934Y-91757629D01*
X31093711Y-91795402D01*
X31168872Y-91882143D01*
X31289947Y-91959953D01*
X31289950Y-91959954D01*
X31289949Y-91959954D01*
X31428036Y-92000499D01*
X31428038Y-92000500D01*
X31428039Y-92000500D01*
X31571962Y-92000500D01*
X31571962Y-92000499D01*
X31710053Y-91959953D01*
X31831128Y-91882143D01*
X31925377Y-91773373D01*
X31971814Y-91671690D01*
X32017569Y-91618887D01*
X32084608Y-91599203D01*
X32151648Y-91618888D01*
X32165813Y-91629492D01*
X32168870Y-91632141D01*
X32168872Y-91632143D01*
X32289947Y-91709953D01*
X32289950Y-91709954D01*
X32289949Y-91709954D01*
X32397107Y-91741417D01*
X32426336Y-91750000D01*
X32428036Y-91750499D01*
X32428038Y-91750500D01*
X32428039Y-91750500D01*
X32571962Y-91750500D01*
X32571962Y-91750499D01*
X32573661Y-91750000D01*
X43994353Y-91750000D01*
X44014834Y-91892456D01*
X44045660Y-91959954D01*
X44074623Y-92023373D01*
X44168872Y-92132143D01*
X44289947Y-92209953D01*
X44289950Y-92209954D01*
X44289949Y-92209954D01*
X44428036Y-92250499D01*
X44428038Y-92250500D01*
X44428039Y-92250500D01*
X44571962Y-92250500D01*
X44571962Y-92250499D01*
X44710053Y-92209953D01*
X44831128Y-92132143D01*
X44925377Y-92023373D01*
X44985165Y-91892457D01*
X44991308Y-91849731D01*
X45020333Y-91786175D01*
X45079107Y-91748401D01*
X45134359Y-91732178D01*
X45210051Y-91709954D01*
X45210051Y-91709953D01*
X45210053Y-91709953D01*
X45307960Y-91647031D01*
X45375000Y-91627347D01*
X45442039Y-91647032D01*
X45442040Y-91647032D01*
X45539947Y-91709953D01*
X45539948Y-91709953D01*
X45539949Y-91709954D01*
X45647107Y-91741417D01*
X45676336Y-91750000D01*
X45678036Y-91750499D01*
X45678038Y-91750500D01*
X45678039Y-91750500D01*
X45821962Y-91750500D01*
X45821962Y-91750499D01*
X45960053Y-91709953D01*
X46081128Y-91632143D01*
X46156287Y-91545403D01*
X46215064Y-91507629D01*
X46284934Y-91507629D01*
X46343712Y-91545403D01*
X46343713Y-91545404D01*
X46407386Y-91618888D01*
X46418872Y-91632143D01*
X46539947Y-91709953D01*
X46539950Y-91709954D01*
X46539949Y-91709954D01*
X46647107Y-91741417D01*
X46676336Y-91750000D01*
X46678036Y-91750499D01*
X46678038Y-91750500D01*
X46678039Y-91750500D01*
X46821962Y-91750500D01*
X46821962Y-91750499D01*
X46960053Y-91709953D01*
X47081128Y-91632143D01*
X47175377Y-91523373D01*
X47235165Y-91392457D01*
X47255647Y-91250000D01*
X47235165Y-91107543D01*
X47175377Y-90976627D01*
X47081128Y-90867857D01*
X46960053Y-90790047D01*
X46960052Y-90790046D01*
X46960051Y-90790046D01*
X46933334Y-90782201D01*
X46874556Y-90744426D01*
X46845532Y-90680870D01*
X46855476Y-90611711D01*
X46874553Y-90582026D01*
X46925377Y-90523373D01*
X46985165Y-90392457D01*
X47005647Y-90250000D01*
X46985165Y-90107543D01*
X46925377Y-89976627D01*
X46831128Y-89867857D01*
X46710053Y-89790047D01*
X46710051Y-89790046D01*
X46710049Y-89790045D01*
X46710050Y-89790045D01*
X46571963Y-89749500D01*
X46571961Y-89749500D01*
X46428039Y-89749500D01*
X46428036Y-89749500D01*
X46289949Y-89790045D01*
X46192039Y-89852968D01*
X46124999Y-89872652D01*
X46057961Y-89852968D01*
X45960050Y-89790045D01*
X45821963Y-89749500D01*
X45821961Y-89749500D01*
X45678039Y-89749500D01*
X45678036Y-89749500D01*
X45539949Y-89790045D01*
X45418873Y-89867856D01*
X45343713Y-89954596D01*
X45284935Y-89992370D01*
X45215065Y-89992370D01*
X45156287Y-89954596D01*
X45081128Y-89867857D01*
X44960053Y-89790047D01*
X44960051Y-89790046D01*
X44960049Y-89790045D01*
X44960050Y-89790045D01*
X44821963Y-89749500D01*
X44821961Y-89749500D01*
X44678039Y-89749500D01*
X44678036Y-89749500D01*
X44539949Y-89790045D01*
X44418873Y-89867856D01*
X44324623Y-89976626D01*
X44324622Y-89976628D01*
X44264834Y-90107543D01*
X44244353Y-90250000D01*
X44264834Y-90392456D01*
X44313949Y-90500000D01*
X44324623Y-90523373D01*
X44418872Y-90632143D01*
X44539947Y-90709953D01*
X44539950Y-90709954D01*
X44539949Y-90709954D01*
X44566663Y-90717798D01*
X44625441Y-90755572D01*
X44654467Y-90819127D01*
X44644524Y-90888286D01*
X44625443Y-90917977D01*
X44574623Y-90976627D01*
X44574622Y-90976628D01*
X44514835Y-91107543D01*
X44508691Y-91150271D01*
X44479665Y-91213826D01*
X44420888Y-91251599D01*
X44289948Y-91290045D01*
X44168873Y-91367856D01*
X44074623Y-91476626D01*
X44074622Y-91476628D01*
X44014834Y-91607543D01*
X43994353Y-91750000D01*
X32573661Y-91750000D01*
X32710053Y-91709953D01*
X32831128Y-91632143D01*
X32925377Y-91523373D01*
X32985165Y-91392457D01*
X33005647Y-91250000D01*
X32985165Y-91107543D01*
X32925377Y-90976627D01*
X32831128Y-90867857D01*
X32710053Y-90790047D01*
X32710051Y-90790046D01*
X32710049Y-90790045D01*
X32710050Y-90790045D01*
X32571963Y-90749500D01*
X32571961Y-90749500D01*
X32428039Y-90749500D01*
X32428036Y-90749500D01*
X32289949Y-90790045D01*
X32168872Y-90867856D01*
X32126604Y-90916636D01*
X32067825Y-90954410D01*
X31997956Y-90954409D01*
X31939178Y-90916633D01*
X31910154Y-90853077D01*
X31920098Y-90783919D01*
X31922918Y-90778755D01*
X31925374Y-90773375D01*
X31925377Y-90773373D01*
X31985165Y-90642457D01*
X32005647Y-90500000D01*
X31985165Y-90357543D01*
X31925377Y-90226627D01*
X31831128Y-90117857D01*
X31710053Y-90040047D01*
X31710051Y-90040046D01*
X31710049Y-90040045D01*
X31710050Y-90040045D01*
X31571963Y-89999500D01*
X31571961Y-89999500D01*
X31428039Y-89999500D01*
X31428036Y-89999500D01*
X31289949Y-90040045D01*
X31192039Y-90102968D01*
X31124999Y-90122652D01*
X31057961Y-90102968D01*
X30960050Y-90040045D01*
X30821963Y-89999500D01*
X30821961Y-89999500D01*
X30678039Y-89999500D01*
X30678036Y-89999500D01*
X30539949Y-90040045D01*
X30442039Y-90102968D01*
X30374999Y-90122652D01*
X30307961Y-90102968D01*
X30210050Y-90040045D01*
X30071963Y-89999500D01*
X30071961Y-89999500D01*
X29928039Y-89999500D01*
X29928036Y-89999500D01*
X29789949Y-90040045D01*
X29668873Y-90117856D01*
X29574623Y-90226626D01*
X29574622Y-90226628D01*
X29514834Y-90357543D01*
X29494353Y-90500000D01*
X17968496Y-90500000D01*
X17962049Y-90455162D01*
X17971992Y-90421301D01*
X17985165Y-90392457D01*
X18005647Y-90250000D01*
X17985165Y-90107543D01*
X17925377Y-89976627D01*
X17831128Y-89867857D01*
X17710053Y-89790047D01*
X17710051Y-89790046D01*
X17710049Y-89790045D01*
X17710050Y-89790045D01*
X17571963Y-89749500D01*
X17571961Y-89749500D01*
X17428039Y-89749500D01*
X17428036Y-89749500D01*
X17289949Y-89790045D01*
X17192039Y-89852968D01*
X17124999Y-89872652D01*
X17057961Y-89852968D01*
X16960050Y-89790045D01*
X16821963Y-89749500D01*
X16821961Y-89749500D01*
X16678039Y-89749500D01*
X16678036Y-89749500D01*
X16539949Y-89790045D01*
X16442039Y-89852968D01*
X16374999Y-89872652D01*
X16307961Y-89852968D01*
X16210050Y-89790045D01*
X16071963Y-89749500D01*
X16071961Y-89749500D01*
X15928039Y-89749500D01*
X15928036Y-89749500D01*
X15789949Y-89790045D01*
X15668873Y-89867856D01*
X15574623Y-89976626D01*
X15574622Y-89976628D01*
X15514834Y-90107543D01*
X15494353Y-90250000D01*
X500500Y-90250000D01*
X500500Y-73500000D01*
X28744353Y-73500000D01*
X28764834Y-73642456D01*
X28824622Y-73773371D01*
X28824623Y-73773373D01*
X28918872Y-73882143D01*
X29039947Y-73959953D01*
X29039950Y-73959954D01*
X29039949Y-73959954D01*
X29178036Y-74000499D01*
X29178038Y-74000500D01*
X29178039Y-74000500D01*
X29321962Y-74000500D01*
X29321962Y-74000499D01*
X29460053Y-73959953D01*
X29581128Y-73882143D01*
X29675377Y-73773373D01*
X29735165Y-73642457D01*
X29755647Y-73500000D01*
X29735165Y-73357543D01*
X29675377Y-73226627D01*
X29581128Y-73117857D01*
X29460053Y-73040047D01*
X29460051Y-73040046D01*
X29460049Y-73040045D01*
X29460050Y-73040045D01*
X29321963Y-72999500D01*
X29321961Y-72999500D01*
X29178039Y-72999500D01*
X29178036Y-72999500D01*
X29039949Y-73040045D01*
X28918873Y-73117856D01*
X28824623Y-73226626D01*
X28824622Y-73226628D01*
X28764834Y-73357543D01*
X28744353Y-73500000D01*
X500500Y-73500000D01*
X500500Y-68750000D01*
X26994353Y-68750000D01*
X27014834Y-68892456D01*
X27074622Y-69023371D01*
X27074623Y-69023373D01*
X27168872Y-69132143D01*
X27289947Y-69209953D01*
X27289950Y-69209954D01*
X27289949Y-69209954D01*
X27428036Y-69250499D01*
X27428038Y-69250500D01*
X27428039Y-69250500D01*
X27571962Y-69250500D01*
X27571962Y-69250499D01*
X27710053Y-69209953D01*
X27831128Y-69132143D01*
X27925377Y-69023373D01*
X27985165Y-68892457D01*
X28005647Y-68750000D01*
X27985165Y-68607543D01*
X27925377Y-68476627D01*
X27831128Y-68367857D01*
X27710053Y-68290047D01*
X27710051Y-68290046D01*
X27710049Y-68290045D01*
X27710050Y-68290045D01*
X27571963Y-68249500D01*
X27571961Y-68249500D01*
X27428039Y-68249500D01*
X27428036Y-68249500D01*
X27289949Y-68290045D01*
X27168873Y-68367856D01*
X27074623Y-68476626D01*
X27074622Y-68476628D01*
X27014834Y-68607543D01*
X26994353Y-68750000D01*
X500500Y-68750000D01*
X500500Y-67500000D01*
X37744353Y-67500000D01*
X37764834Y-67642456D01*
X37824622Y-67773371D01*
X37824623Y-67773373D01*
X37918872Y-67882143D01*
X38039947Y-67959953D01*
X38039950Y-67959954D01*
X38039949Y-67959954D01*
X38178036Y-68000499D01*
X38178038Y-68000500D01*
X38178039Y-68000500D01*
X38321962Y-68000500D01*
X38321962Y-68000499D01*
X38460053Y-67959953D01*
X38581128Y-67882143D01*
X38675377Y-67773373D01*
X38735165Y-67642457D01*
X38755647Y-67500000D01*
X38735165Y-67357543D01*
X38675377Y-67226627D01*
X38581128Y-67117857D01*
X38460053Y-67040047D01*
X38460051Y-67040046D01*
X38460049Y-67040045D01*
X38460050Y-67040045D01*
X38321963Y-66999500D01*
X38321961Y-66999500D01*
X38178039Y-66999500D01*
X38178036Y-66999500D01*
X38039949Y-67040045D01*
X37918873Y-67117856D01*
X37824623Y-67226626D01*
X37824622Y-67226628D01*
X37764834Y-67357543D01*
X37744353Y-67500000D01*
X500500Y-67500000D01*
X500500Y-66250000D01*
X37744353Y-66250000D01*
X37764834Y-66392456D01*
X37824622Y-66523371D01*
X37824623Y-66523373D01*
X37918872Y-66632143D01*
X38039947Y-66709953D01*
X38039950Y-66709954D01*
X38039949Y-66709954D01*
X38178036Y-66750499D01*
X38178038Y-66750500D01*
X38178039Y-66750500D01*
X38321962Y-66750500D01*
X38321962Y-66750499D01*
X38460053Y-66709953D01*
X38581128Y-66632143D01*
X38675377Y-66523373D01*
X38735165Y-66392457D01*
X38755647Y-66250000D01*
X38735165Y-66107543D01*
X38675377Y-65976627D01*
X38581128Y-65867857D01*
X38460053Y-65790047D01*
X38460051Y-65790046D01*
X38460049Y-65790045D01*
X38460050Y-65790045D01*
X38321963Y-65749500D01*
X38321961Y-65749500D01*
X38178039Y-65749500D01*
X38178036Y-65749500D01*
X38039949Y-65790045D01*
X37918873Y-65867856D01*
X37824623Y-65976626D01*
X37824622Y-65976628D01*
X37764834Y-66107543D01*
X37744353Y-66250000D01*
X500500Y-66250000D01*
X500500Y-64750000D01*
X26744353Y-64750000D01*
X26764834Y-64892456D01*
X26824622Y-65023371D01*
X26824623Y-65023373D01*
X26918872Y-65132143D01*
X27039947Y-65209953D01*
X27039950Y-65209954D01*
X27039949Y-65209954D01*
X27178036Y-65250499D01*
X27178038Y-65250500D01*
X27178039Y-65250500D01*
X27321962Y-65250500D01*
X27321962Y-65250499D01*
X27460053Y-65209953D01*
X27581128Y-65132143D01*
X27675377Y-65023373D01*
X27735165Y-64892457D01*
X27755647Y-64750000D01*
X27735165Y-64607543D01*
X27675377Y-64476627D01*
X27581128Y-64367857D01*
X27460053Y-64290047D01*
X27460051Y-64290046D01*
X27460049Y-64290045D01*
X27460050Y-64290045D01*
X27321963Y-64249500D01*
X27321961Y-64249500D01*
X27178039Y-64249500D01*
X27178036Y-64249500D01*
X27039949Y-64290045D01*
X26918873Y-64367856D01*
X26824623Y-64476626D01*
X26824622Y-64476628D01*
X26764834Y-64607543D01*
X26744353Y-64750000D01*
X500500Y-64750000D01*
X500500Y-63250000D01*
X18244353Y-63250000D01*
X18264834Y-63392456D01*
X18295660Y-63459954D01*
X18324623Y-63523373D01*
X18418872Y-63632143D01*
X18539947Y-63709953D01*
X18539950Y-63709954D01*
X18539949Y-63709954D01*
X18678036Y-63750499D01*
X18678038Y-63750500D01*
X18678039Y-63750500D01*
X18821962Y-63750500D01*
X18821962Y-63750499D01*
X18960053Y-63709953D01*
X19081128Y-63632143D01*
X19175377Y-63523373D01*
X19235165Y-63392457D01*
X19255647Y-63250000D01*
X19235165Y-63107543D01*
X19175377Y-62976627D01*
X19081128Y-62867857D01*
X18960053Y-62790047D01*
X18960051Y-62790046D01*
X18960049Y-62790045D01*
X18960050Y-62790045D01*
X18821963Y-62749500D01*
X18821961Y-62749500D01*
X18678039Y-62749500D01*
X18678036Y-62749500D01*
X18539949Y-62790045D01*
X18418873Y-62867856D01*
X18324623Y-62976626D01*
X18324622Y-62976628D01*
X18264834Y-63107543D01*
X18244353Y-63250000D01*
X500500Y-63250000D01*
X500500Y-40250000D01*
X10244353Y-40250000D01*
X10264834Y-40392456D01*
X10313720Y-40499500D01*
X10324623Y-40523373D01*
X10418872Y-40632143D01*
X10539947Y-40709953D01*
X10539950Y-40709954D01*
X10539949Y-40709954D01*
X10678036Y-40750499D01*
X10678038Y-40750500D01*
X10678039Y-40750500D01*
X10821962Y-40750500D01*
X10821962Y-40750499D01*
X10960053Y-40709953D01*
X11081128Y-40632143D01*
X11175377Y-40523373D01*
X11235165Y-40392457D01*
X11255647Y-40250000D01*
X11235165Y-40107543D01*
X11175377Y-39976627D01*
X11081128Y-39867857D01*
X10960053Y-39790047D01*
X10960051Y-39790046D01*
X10960049Y-39790045D01*
X10960050Y-39790045D01*
X10821963Y-39749500D01*
X10821961Y-39749500D01*
X10678039Y-39749500D01*
X10678036Y-39749500D01*
X10539949Y-39790045D01*
X10418873Y-39867856D01*
X10324623Y-39976626D01*
X10324622Y-39976628D01*
X10264834Y-40107543D01*
X10244353Y-40250000D01*
X500500Y-40250000D01*
X500500Y-38500000D01*
X4494353Y-38500000D01*
X4514834Y-38642456D01*
X4563949Y-38750000D01*
X4574623Y-38773373D01*
X4668872Y-38882143D01*
X4789947Y-38959953D01*
X4789950Y-38959954D01*
X4789949Y-38959954D01*
X4928036Y-39000499D01*
X4928038Y-39000500D01*
X4928039Y-39000500D01*
X5071962Y-39000500D01*
X5071962Y-39000499D01*
X5210053Y-38959953D01*
X5331128Y-38882143D01*
X5425377Y-38773373D01*
X5485165Y-38642457D01*
X5505647Y-38500000D01*
X5485165Y-38357543D01*
X5425377Y-38226627D01*
X5331128Y-38117857D01*
X5210053Y-38040047D01*
X5210051Y-38040046D01*
X5210049Y-38040045D01*
X5210050Y-38040045D01*
X5071963Y-37999500D01*
X5071961Y-37999500D01*
X4928039Y-37999500D01*
X4928036Y-37999500D01*
X4789949Y-38040045D01*
X4668873Y-38117856D01*
X4574623Y-38226626D01*
X4574622Y-38226628D01*
X4514834Y-38357543D01*
X4494353Y-38500000D01*
X500500Y-38500000D01*
X500500Y-19958995D01*
X1949499Y-19958995D01*
X1976418Y-20094322D01*
X1976421Y-20094332D01*
X2029221Y-20221804D01*
X2029228Y-20221817D01*
X2105885Y-20336541D01*
X2105888Y-20336545D01*
X2203454Y-20434111D01*
X2203458Y-20434114D01*
X2318182Y-20510771D01*
X2318195Y-20510778D01*
X2414094Y-20550500D01*
X2445672Y-20563580D01*
X2445676Y-20563580D01*
X2445677Y-20563581D01*
X2581004Y-20590500D01*
X2581007Y-20590500D01*
X3518995Y-20590500D01*
X3610041Y-20572389D01*
X3654328Y-20563580D01*
X3781811Y-20510775D01*
X3896542Y-20434114D01*
X3994114Y-20336542D01*
X4070775Y-20221811D01*
X4080017Y-20199500D01*
X4123578Y-20094332D01*
X4123580Y-20094328D01*
X4133898Y-20042457D01*
X4150500Y-19958995D01*
X5999499Y-19958995D01*
X6026418Y-20094322D01*
X6026421Y-20094332D01*
X6079221Y-20221804D01*
X6079228Y-20221817D01*
X6155885Y-20336541D01*
X6155888Y-20336545D01*
X6253454Y-20434111D01*
X6253458Y-20434114D01*
X6368182Y-20510771D01*
X6368195Y-20510778D01*
X6464094Y-20550500D01*
X6495672Y-20563580D01*
X6495676Y-20563580D01*
X6495677Y-20563581D01*
X6631004Y-20590500D01*
X6631007Y-20590500D01*
X7868995Y-20590500D01*
X7960041Y-20572389D01*
X8004328Y-20563580D01*
X8131811Y-20510775D01*
X8246542Y-20434114D01*
X8344114Y-20336542D01*
X8420775Y-20221811D01*
X8430017Y-20199500D01*
X8473578Y-20094332D01*
X8473580Y-20094328D01*
X8482398Y-20050000D01*
X10144353Y-20050000D01*
X10164834Y-20192456D01*
X10224622Y-20323371D01*
X10224623Y-20323373D01*
X10318872Y-20432143D01*
X10439947Y-20509953D01*
X10439950Y-20509954D01*
X10439949Y-20509954D01*
X10578036Y-20550499D01*
X10578038Y-20550500D01*
X10578039Y-20550500D01*
X10721962Y-20550500D01*
X10721962Y-20550499D01*
X10829121Y-20519035D01*
X10860050Y-20509954D01*
X10860050Y-20509953D01*
X10860053Y-20509953D01*
X10981128Y-20432143D01*
X11075377Y-20323373D01*
X11135165Y-20192457D01*
X11155647Y-20050000D01*
X11135165Y-19907543D01*
X11075377Y-19776627D01*
X10981128Y-19667857D01*
X10860053Y-19590047D01*
X10860051Y-19590046D01*
X10860049Y-19590045D01*
X10860050Y-19590045D01*
X10721963Y-19549500D01*
X10721961Y-19549500D01*
X10578039Y-19549500D01*
X10578036Y-19549500D01*
X10439949Y-19590045D01*
X10318873Y-19667856D01*
X10224623Y-19776626D01*
X10224622Y-19776628D01*
X10164834Y-19907543D01*
X10144353Y-20050000D01*
X8482398Y-20050000D01*
X8483898Y-20042457D01*
X8500500Y-19958995D01*
X8500500Y-19821004D01*
X8473581Y-19685677D01*
X8473580Y-19685676D01*
X8473580Y-19685672D01*
X8466201Y-19667857D01*
X8420778Y-19558195D01*
X8420771Y-19558182D01*
X8344114Y-19443458D01*
X8344111Y-19443454D01*
X8246545Y-19345888D01*
X8246541Y-19345885D01*
X8131817Y-19269228D01*
X8131804Y-19269221D01*
X8085400Y-19250000D01*
X9144353Y-19250000D01*
X9164834Y-19392456D01*
X9221251Y-19515989D01*
X9224623Y-19523373D01*
X9318872Y-19632143D01*
X9439947Y-19709953D01*
X9439950Y-19709954D01*
X9439949Y-19709954D01*
X9578036Y-19750499D01*
X9578038Y-19750500D01*
X9578039Y-19750500D01*
X9721962Y-19750500D01*
X9721962Y-19750499D01*
X9860053Y-19709953D01*
X9981128Y-19632143D01*
X10075377Y-19523373D01*
X10135165Y-19392457D01*
X10155647Y-19250000D01*
X10135165Y-19107543D01*
X10075377Y-18976627D01*
X9981128Y-18867857D01*
X9860053Y-18790047D01*
X9860051Y-18790046D01*
X9860049Y-18790045D01*
X9860050Y-18790045D01*
X9721963Y-18749500D01*
X9721961Y-18749500D01*
X9578039Y-18749500D01*
X9578036Y-18749500D01*
X9439949Y-18790045D01*
X9318873Y-18867856D01*
X9224623Y-18976626D01*
X9224622Y-18976628D01*
X9164834Y-19107543D01*
X9144353Y-19250000D01*
X8085400Y-19250000D01*
X8004332Y-19216421D01*
X8004322Y-19216418D01*
X7868995Y-19189500D01*
X7868993Y-19189500D01*
X7080244Y-19189500D01*
X7013205Y-19169815D01*
X6967450Y-19117011D01*
X6957506Y-19047853D01*
X6986531Y-18984297D01*
X7018244Y-18958113D01*
X7046772Y-18941642D01*
X7083365Y-18920515D01*
X7190515Y-18813365D01*
X7266281Y-18682135D01*
X7305500Y-18535766D01*
X7305500Y-18384234D01*
X7266281Y-18237865D01*
X7190515Y-18106635D01*
X7083365Y-17999485D01*
X6998521Y-17950500D01*
X6952136Y-17923719D01*
X6878950Y-17904109D01*
X6805766Y-17884500D01*
X6654234Y-17884500D01*
X6507863Y-17923719D01*
X6376635Y-17999485D01*
X6376632Y-17999487D01*
X6269487Y-18106632D01*
X6269485Y-18106635D01*
X6193719Y-18237863D01*
X6154500Y-18384234D01*
X6154500Y-18535765D01*
X6193719Y-18682136D01*
X6231602Y-18747750D01*
X6269485Y-18813365D01*
X6376635Y-18920515D01*
X6473825Y-18976628D01*
X6507023Y-18995795D01*
X6555239Y-19046362D01*
X6568461Y-19114969D01*
X6542493Y-19179834D01*
X6492476Y-19217743D01*
X6368192Y-19269223D01*
X6368182Y-19269228D01*
X6253458Y-19345885D01*
X6253454Y-19345888D01*
X6155888Y-19443454D01*
X6155885Y-19443458D01*
X6079228Y-19558182D01*
X6079221Y-19558195D01*
X6026421Y-19685667D01*
X6026418Y-19685677D01*
X5999500Y-19821004D01*
X5999500Y-19821007D01*
X5999500Y-19958993D01*
X5999500Y-19958995D01*
X5999499Y-19958995D01*
X4150500Y-19958995D01*
X4150500Y-19821004D01*
X4123581Y-19685677D01*
X4123580Y-19685676D01*
X4123580Y-19685672D01*
X4116201Y-19667857D01*
X4070778Y-19558195D01*
X4070771Y-19558182D01*
X3994114Y-19443458D01*
X3994111Y-19443454D01*
X3896545Y-19345888D01*
X3896541Y-19345885D01*
X3781817Y-19269228D01*
X3781804Y-19269221D01*
X3654332Y-19216421D01*
X3654322Y-19216418D01*
X3518995Y-19189500D01*
X3518993Y-19189500D01*
X2581007Y-19189500D01*
X2581005Y-19189500D01*
X2445677Y-19216418D01*
X2445667Y-19216421D01*
X2318195Y-19269221D01*
X2318182Y-19269228D01*
X2203458Y-19345885D01*
X2203454Y-19345888D01*
X2105888Y-19443454D01*
X2105885Y-19443458D01*
X2029228Y-19558182D01*
X2029221Y-19558195D01*
X1976421Y-19685667D01*
X1976418Y-19685677D01*
X1949500Y-19821004D01*
X1949500Y-19821007D01*
X1949500Y-19958993D01*
X1949500Y-19958995D01*
X1949499Y-19958995D01*
X500500Y-19958995D01*
X500500Y-11318995D01*
X1949499Y-11318995D01*
X1976418Y-11454322D01*
X1976421Y-11454332D01*
X2029221Y-11581804D01*
X2029228Y-11581817D01*
X2105885Y-11696541D01*
X2105888Y-11696545D01*
X2203454Y-11794111D01*
X2203458Y-11794114D01*
X2318182Y-11870771D01*
X2318195Y-11870778D01*
X2445667Y-11923578D01*
X2445672Y-11923580D01*
X2445676Y-11923580D01*
X2445677Y-11923581D01*
X2581004Y-11950500D01*
X2581007Y-11950500D01*
X3518995Y-11950500D01*
X3610041Y-11932389D01*
X3654328Y-11923580D01*
X3781811Y-11870775D01*
X3896542Y-11794114D01*
X3994114Y-11696542D01*
X4070775Y-11581811D01*
X4123580Y-11454328D01*
X4150500Y-11318995D01*
X5999499Y-11318995D01*
X6026418Y-11454322D01*
X6026421Y-11454332D01*
X6079221Y-11581804D01*
X6079228Y-11581817D01*
X6155885Y-11696541D01*
X6155888Y-11696545D01*
X6253454Y-11794111D01*
X6253458Y-11794114D01*
X6368182Y-11870771D01*
X6368195Y-11870778D01*
X6492475Y-11922256D01*
X6546879Y-11966097D01*
X6568944Y-12032391D01*
X6551665Y-12100090D01*
X6507024Y-12144204D01*
X6376635Y-12219485D01*
X6376632Y-12219487D01*
X6269487Y-12326632D01*
X6269485Y-12326635D01*
X6193719Y-12457863D01*
X6154500Y-12604234D01*
X6154500Y-12755765D01*
X6193719Y-12902136D01*
X6221065Y-12949500D01*
X6269485Y-13033365D01*
X6376635Y-13140515D01*
X6507865Y-13216281D01*
X6654234Y-13255500D01*
X6654236Y-13255500D01*
X6805764Y-13255500D01*
X6805766Y-13255500D01*
X6952135Y-13216281D01*
X7083365Y-13140515D01*
X7190515Y-13033365D01*
X7266281Y-12902135D01*
X7305500Y-12755766D01*
X7305500Y-12650000D01*
X10544353Y-12650000D01*
X10564834Y-12792456D01*
X10614924Y-12902135D01*
X10624623Y-12923373D01*
X10718872Y-13032143D01*
X10839947Y-13109953D01*
X10839950Y-13109954D01*
X10839949Y-13109954D01*
X10978036Y-13150499D01*
X10978038Y-13150500D01*
X10978039Y-13150500D01*
X11121962Y-13150500D01*
X11121962Y-13150499D01*
X11260053Y-13109953D01*
X11381128Y-13032143D01*
X11475377Y-12923373D01*
X11535165Y-12792457D01*
X11555647Y-12650000D01*
X11535165Y-12507543D01*
X11475377Y-12376627D01*
X11381128Y-12267857D01*
X11260053Y-12190047D01*
X11260051Y-12190046D01*
X11260049Y-12190045D01*
X11260050Y-12190045D01*
X11121963Y-12149500D01*
X11121961Y-12149500D01*
X10978039Y-12149500D01*
X10978036Y-12149500D01*
X10839949Y-12190045D01*
X10718873Y-12267856D01*
X10624623Y-12376626D01*
X10624622Y-12376628D01*
X10564834Y-12507543D01*
X10544353Y-12650000D01*
X7305500Y-12650000D01*
X7305500Y-12604234D01*
X7266281Y-12457865D01*
X7190515Y-12326635D01*
X7083365Y-12219485D01*
X7083363Y-12219484D01*
X7083361Y-12219482D01*
X7018244Y-12181887D01*
X6970028Y-12131320D01*
X6956806Y-12062713D01*
X6982774Y-11997848D01*
X7039688Y-11957320D01*
X7080244Y-11950500D01*
X7868995Y-11950500D01*
X7960041Y-11932389D01*
X8004328Y-11923580D01*
X8131811Y-11870775D01*
X8246542Y-11794114D01*
X8344114Y-11696542D01*
X8420775Y-11581811D01*
X8473580Y-11454328D01*
X8474441Y-11450000D01*
X9744353Y-11450000D01*
X9764834Y-11592456D01*
X9812371Y-11696545D01*
X9824623Y-11723373D01*
X9918872Y-11832143D01*
X10039947Y-11909953D01*
X10039950Y-11909954D01*
X10039949Y-11909954D01*
X10178036Y-11950499D01*
X10178038Y-11950500D01*
X10178039Y-11950500D01*
X10321962Y-11950500D01*
X10321962Y-11950499D01*
X10460053Y-11909953D01*
X10581128Y-11832143D01*
X10675377Y-11723373D01*
X10735165Y-11592457D01*
X10755647Y-11450000D01*
X10735165Y-11307543D01*
X10675377Y-11176627D01*
X10581128Y-11067857D01*
X10460053Y-10990047D01*
X10460051Y-10990046D01*
X10460049Y-10990045D01*
X10460050Y-10990045D01*
X10321963Y-10949500D01*
X10321961Y-10949500D01*
X10178039Y-10949500D01*
X10178036Y-10949500D01*
X10039949Y-10990045D01*
X9918873Y-11067856D01*
X9824623Y-11176626D01*
X9824622Y-11176628D01*
X9764834Y-11307543D01*
X9744353Y-11450000D01*
X8474441Y-11450000D01*
X8500500Y-11318993D01*
X8500500Y-11181007D01*
X8500500Y-11181004D01*
X8473581Y-11045677D01*
X8473580Y-11045676D01*
X8473580Y-11045672D01*
X8454455Y-10999500D01*
X8420778Y-10918195D01*
X8420771Y-10918182D01*
X8344114Y-10803458D01*
X8344111Y-10803454D01*
X8246545Y-10705888D01*
X8246541Y-10705885D01*
X8131817Y-10629228D01*
X8131804Y-10629221D01*
X8004332Y-10576421D01*
X8004322Y-10576418D01*
X7868995Y-10549500D01*
X7868993Y-10549500D01*
X6631007Y-10549500D01*
X6631005Y-10549500D01*
X6495677Y-10576418D01*
X6495667Y-10576421D01*
X6368195Y-10629221D01*
X6368182Y-10629228D01*
X6253458Y-10705885D01*
X6253454Y-10705888D01*
X6155888Y-10803454D01*
X6155885Y-10803458D01*
X6079228Y-10918182D01*
X6079221Y-10918195D01*
X6026421Y-11045667D01*
X6026418Y-11045677D01*
X5999500Y-11181004D01*
X5999500Y-11181007D01*
X5999500Y-11318993D01*
X5999500Y-11318995D01*
X5999499Y-11318995D01*
X4150500Y-11318995D01*
X4150500Y-11318993D01*
X4150500Y-11181007D01*
X4150500Y-11181004D01*
X4123581Y-11045677D01*
X4123580Y-11045676D01*
X4123580Y-11045672D01*
X4104455Y-10999500D01*
X4070778Y-10918195D01*
X4070771Y-10918182D01*
X3994114Y-10803458D01*
X3994111Y-10803454D01*
X3896545Y-10705888D01*
X3896541Y-10705885D01*
X3781817Y-10629228D01*
X3781804Y-10629221D01*
X3654332Y-10576421D01*
X3654322Y-10576418D01*
X3518995Y-10549500D01*
X3518993Y-10549500D01*
X2581007Y-10549500D01*
X2581005Y-10549500D01*
X2445677Y-10576418D01*
X2445667Y-10576421D01*
X2318195Y-10629221D01*
X2318182Y-10629228D01*
X2203458Y-10705885D01*
X2203454Y-10705888D01*
X2105888Y-10803454D01*
X2105885Y-10803458D01*
X2029228Y-10918182D01*
X2029221Y-10918195D01*
X1976421Y-11045667D01*
X1976418Y-11045677D01*
X1949500Y-11181004D01*
X1949500Y-11181007D01*
X1949500Y-11318993D01*
X1949500Y-11318995D01*
X1949499Y-11318995D01*
X500500Y-11318995D01*
X500500Y-10450000D01*
X11544353Y-10450000D01*
X11564834Y-10592456D01*
X11581628Y-10629228D01*
X11624623Y-10723373D01*
X11718872Y-10832143D01*
X11839947Y-10909953D01*
X11839950Y-10909954D01*
X11839949Y-10909954D01*
X11947107Y-10941417D01*
X11974633Y-10949500D01*
X11978036Y-10950499D01*
X11978038Y-10950500D01*
X11978039Y-10950500D01*
X12121962Y-10950500D01*
X12121962Y-10950499D01*
X12260053Y-10909953D01*
X12381128Y-10832143D01*
X12475377Y-10723373D01*
X12535165Y-10592457D01*
X12555647Y-10450000D01*
X12535165Y-10307543D01*
X12475377Y-10176627D01*
X12381128Y-10067857D01*
X12260053Y-9990047D01*
X12260051Y-9990046D01*
X12260049Y-9990045D01*
X12260050Y-9990045D01*
X12121963Y-9949500D01*
X12121961Y-9949500D01*
X11978039Y-9949500D01*
X11978036Y-9949500D01*
X11839949Y-9990045D01*
X11718873Y-10067856D01*
X11624623Y-10176626D01*
X11624622Y-10176628D01*
X11564834Y-10307543D01*
X11544353Y-10450000D01*
X500500Y-10450000D01*
X500500Y-4873969D01*
X520185Y-4806930D01*
X572989Y-4761175D01*
X642147Y-4751231D01*
X705703Y-4780256D01*
X723964Y-4799922D01*
X774321Y-4867564D01*
X774323Y-4867567D01*
X894069Y-4994489D01*
X1006183Y-5113323D01*
X1006189Y-5113328D01*
X1006191Y-5113330D01*
X1265001Y-5330499D01*
X1265006Y-5330502D01*
X1547292Y-5516164D01*
X1849224Y-5667800D01*
X2166717Y-5783358D01*
X2495480Y-5861276D01*
X2831065Y-5900500D01*
X2831072Y-5900500D01*
X3168928Y-5900500D01*
X3168935Y-5900500D01*
X3504520Y-5861276D01*
X3833283Y-5783358D01*
X4150776Y-5667800D01*
X4452708Y-5516164D01*
X4734994Y-5330502D01*
X4993817Y-5113323D01*
X5225678Y-4867565D01*
X5427440Y-4596552D01*
X5596375Y-4303948D01*
X5730198Y-3993711D01*
X5827100Y-3670035D01*
X5885771Y-3337298D01*
X5905416Y-3000000D01*
X5885771Y-2662702D01*
X5827100Y-2329965D01*
X5730198Y-2006289D01*
X5596375Y-1696052D01*
X5427440Y-1403448D01*
X5427439Y-1403446D01*
X5225681Y-1132438D01*
X5225676Y-1132432D01*
X5113564Y-1013601D01*
X4993817Y-886677D01*
X4993810Y-886671D01*
X4993808Y-886669D01*
X4794571Y-719489D01*
X4755869Y-661318D01*
X4754761Y-591457D01*
X4791598Y-532087D01*
X4854685Y-502058D01*
X4874277Y-500500D01*
X19626000Y-500500D01*
X19693039Y-520185D01*
G37*
%TD.AperFunction*%
%TD*%
%TA.AperFunction,Conductor*%
%TO.N,+1V1*%
G36*
X42755703Y-26315423D02*
G01*
X42768209Y-26327929D01*
X42825612Y-26394176D01*
X42825614Y-26394177D01*
X42825953Y-26394568D01*
X42854978Y-26458123D01*
X42856240Y-26475771D01*
X42856240Y-29367427D01*
X42836555Y-29434466D01*
X42819921Y-29455108D01*
X42761848Y-29513181D01*
X42700525Y-29546666D01*
X42674167Y-29549500D01*
X42561909Y-29549500D01*
X42523695Y-29559739D01*
X42485480Y-29569979D01*
X42485475Y-29569982D01*
X42416966Y-29609535D01*
X42416958Y-29609541D01*
X42009541Y-30016958D01*
X42009535Y-30016966D01*
X41969982Y-30085475D01*
X41969979Y-30085480D01*
X41949500Y-30161910D01*
X41949500Y-30674166D01*
X41929815Y-30741205D01*
X41913181Y-30761847D01*
X41561847Y-31113181D01*
X41500524Y-31146666D01*
X41474166Y-31149500D01*
X41378036Y-31149500D01*
X41239950Y-31190045D01*
X41239948Y-31190045D01*
X41177286Y-31230316D01*
X41110248Y-31250000D01*
X39051362Y-31250000D01*
X38984323Y-31230315D01*
X38963681Y-31213681D01*
X38949431Y-31199431D01*
X38915946Y-31138108D01*
X38920930Y-31068416D01*
X38949431Y-31024069D01*
X40658985Y-29314515D01*
X42490460Y-27483040D01*
X42530022Y-27414517D01*
X42550500Y-27338091D01*
X42550500Y-27258967D01*
X42550500Y-26409136D01*
X42570185Y-26342097D01*
X42622989Y-26296342D01*
X42692147Y-26286398D01*
X42755703Y-26315423D01*
G37*
%TD.AperFunction*%
%TA.AperFunction,Conductor*%
G36*
X42379149Y-20820185D02*
G01*
X42424904Y-20872989D01*
X42434848Y-20942147D01*
X42424904Y-20976012D01*
X42364834Y-21107543D01*
X42344353Y-21250000D01*
X42364834Y-21392457D01*
X42367333Y-21400964D01*
X42365736Y-21401432D01*
X42374206Y-21460377D01*
X42345176Y-21523930D01*
X42286395Y-21561700D01*
X42216535Y-21561697D01*
X42111489Y-21530853D01*
X42111488Y-21530853D01*
X41967566Y-21530853D01*
X41967563Y-21530853D01*
X41829476Y-21571398D01*
X41708400Y-21649209D01*
X41614150Y-21757979D01*
X41614149Y-21757981D01*
X41554361Y-21888896D01*
X41533880Y-22031353D01*
X41554361Y-22173809D01*
X41614149Y-22304724D01*
X41614150Y-22304726D01*
X41708399Y-22413496D01*
X41829474Y-22491306D01*
X41829477Y-22491307D01*
X41829476Y-22491307D01*
X41967563Y-22531852D01*
X41967565Y-22531853D01*
X41967566Y-22531853D01*
X42111489Y-22531853D01*
X42111489Y-22531852D01*
X42249580Y-22491306D01*
X42370655Y-22413496D01*
X42464904Y-22304726D01*
X42524692Y-22173810D01*
X42545174Y-22031353D01*
X42524692Y-21888896D01*
X42524692Y-21888895D01*
X42522194Y-21880389D01*
X42523791Y-21879919D01*
X42515318Y-21820983D01*
X42544344Y-21757428D01*
X42603123Y-21719654D01*
X42672989Y-21719654D01*
X42738242Y-21738814D01*
X42778038Y-21750500D01*
X42778039Y-21750500D01*
X42921962Y-21750500D01*
X42921962Y-21750499D01*
X43060053Y-21709953D01*
X43181128Y-21632143D01*
X43275377Y-21523373D01*
X43335165Y-21392457D01*
X43355647Y-21250000D01*
X43335165Y-21107543D01*
X43275377Y-20976627D01*
X43275376Y-20976626D01*
X43275096Y-20976012D01*
X43265152Y-20906853D01*
X43294177Y-20843298D01*
X43352955Y-20805523D01*
X43387890Y-20800500D01*
X44074167Y-20800500D01*
X44141206Y-20820185D01*
X44161848Y-20836819D01*
X46776877Y-23451848D01*
X46810362Y-23513171D01*
X46805378Y-23582863D01*
X46763506Y-23638796D01*
X46756236Y-23643844D01*
X46718874Y-23667855D01*
X46624623Y-23776626D01*
X46624622Y-23776628D01*
X46564834Y-23907543D01*
X46544353Y-24050000D01*
X46564834Y-24192456D01*
X46609103Y-24289389D01*
X46624623Y-24323373D01*
X46718872Y-24432143D01*
X46839947Y-24509953D01*
X46839950Y-24509954D01*
X46839949Y-24509954D01*
X46947107Y-24541417D01*
X46975280Y-24549690D01*
X46978036Y-24550499D01*
X46978038Y-24550500D01*
X47025500Y-24550500D01*
X47092539Y-24570185D01*
X47138294Y-24622989D01*
X47149500Y-24674500D01*
X47149500Y-24850666D01*
X47129815Y-24917705D01*
X47077011Y-24963460D01*
X47007853Y-24973404D01*
X46990566Y-24969643D01*
X46921964Y-24949500D01*
X46921961Y-24949500D01*
X46778039Y-24949500D01*
X46778036Y-24949500D01*
X46639949Y-24990045D01*
X46518873Y-25067856D01*
X46424623Y-25176626D01*
X46424621Y-25176628D01*
X46393452Y-25244880D01*
X46347697Y-25297684D01*
X46280657Y-25317368D01*
X46213618Y-25297683D01*
X46186947Y-25274573D01*
X46181128Y-25267857D01*
X46060053Y-25190047D01*
X46060051Y-25190046D01*
X46060049Y-25190045D01*
X46060050Y-25190045D01*
X45921963Y-25149500D01*
X45921961Y-25149500D01*
X45778039Y-25149500D01*
X45778036Y-25149500D01*
X45639949Y-25190045D01*
X45518873Y-25267856D01*
X45424623Y-25376626D01*
X45424622Y-25376628D01*
X45364834Y-25507543D01*
X45344353Y-25650000D01*
X45364834Y-25792456D01*
X45414783Y-25901826D01*
X45424623Y-25923373D01*
X45518872Y-26032143D01*
X45518875Y-26032144D01*
X45519213Y-26032535D01*
X45548238Y-26096091D01*
X45549500Y-26113738D01*
X45549500Y-28148973D01*
X45529815Y-28216012D01*
X45477011Y-28261767D01*
X45407853Y-28271711D01*
X45358461Y-28253289D01*
X45260050Y-28190045D01*
X45121963Y-28149500D01*
X45121961Y-28149500D01*
X44978039Y-28149500D01*
X44978036Y-28149500D01*
X44839949Y-28190045D01*
X44718873Y-28267856D01*
X44624623Y-28376626D01*
X44624622Y-28376628D01*
X44564834Y-28507543D01*
X44544353Y-28650000D01*
X44564834Y-28792456D01*
X44624622Y-28923371D01*
X44624623Y-28923373D01*
X44718872Y-29032143D01*
X44839947Y-29109953D01*
X44839950Y-29109954D01*
X44839949Y-29109954D01*
X44978036Y-29150499D01*
X44978038Y-29150500D01*
X44978039Y-29150500D01*
X45121962Y-29150500D01*
X45121962Y-29150499D01*
X45229121Y-29119035D01*
X45260050Y-29109954D01*
X45260050Y-29109953D01*
X45260053Y-29109953D01*
X45358461Y-29046709D01*
X45425500Y-29027026D01*
X45492540Y-29046711D01*
X45538294Y-29099515D01*
X45549500Y-29151026D01*
X45549500Y-29774166D01*
X45529815Y-29841205D01*
X45513181Y-29861847D01*
X45061847Y-30313181D01*
X45000524Y-30346666D01*
X44974166Y-30349500D01*
X44878037Y-30349500D01*
X44872038Y-30351261D01*
X44802168Y-30351256D01*
X44743393Y-30313477D01*
X44724318Y-30283792D01*
X44675379Y-30176630D01*
X44675376Y-30176626D01*
X44581128Y-30067857D01*
X44460053Y-29990047D01*
X44460051Y-29990046D01*
X44460049Y-29990045D01*
X44460050Y-29990045D01*
X44321963Y-29949500D01*
X44321961Y-29949500D01*
X44178039Y-29949500D01*
X44178035Y-29949500D01*
X44109434Y-29969643D01*
X44039564Y-29969643D01*
X43980786Y-29931868D01*
X43951762Y-29868312D01*
X43950500Y-29850666D01*
X43950500Y-26574500D01*
X43970185Y-26507461D01*
X44022989Y-26461706D01*
X44074500Y-26450500D01*
X44141913Y-26450500D01*
X44141913Y-26450499D01*
X44280004Y-26409953D01*
X44401079Y-26332143D01*
X44495328Y-26223373D01*
X44555116Y-26092457D01*
X44575598Y-25950000D01*
X44555116Y-25807543D01*
X44495328Y-25676627D01*
X44401079Y-25567857D01*
X44280004Y-25490047D01*
X44280002Y-25490046D01*
X44280000Y-25490045D01*
X44280001Y-25490045D01*
X44141914Y-25449500D01*
X44141912Y-25449500D01*
X43997990Y-25449500D01*
X43997987Y-25449500D01*
X43859900Y-25490045D01*
X43738823Y-25567857D01*
X43738820Y-25567859D01*
X43680181Y-25635532D01*
X43621403Y-25673306D01*
X43551533Y-25673306D01*
X43492756Y-25635531D01*
X43487869Y-25629891D01*
X43487868Y-25629890D01*
X43366793Y-25552080D01*
X43366791Y-25552079D01*
X43366789Y-25552078D01*
X43366790Y-25552078D01*
X43228703Y-25511533D01*
X43228701Y-25511533D01*
X43084779Y-25511533D01*
X43084776Y-25511533D01*
X42946689Y-25552078D01*
X42946687Y-25552079D01*
X42940972Y-25555752D01*
X42873931Y-25575432D01*
X42806893Y-25555743D01*
X42761141Y-25502936D01*
X42751201Y-25469078D01*
X42735165Y-25357543D01*
X42716817Y-25317368D01*
X42675377Y-25226627D01*
X42613946Y-25155731D01*
X42584922Y-25092177D01*
X42594866Y-25023018D01*
X42640621Y-24970214D01*
X42656152Y-24961734D01*
X42660046Y-24959954D01*
X42660053Y-24959953D01*
X42781128Y-24882143D01*
X42875377Y-24773373D01*
X42935165Y-24642457D01*
X42955647Y-24500000D01*
X42935165Y-24357543D01*
X42875377Y-24226627D01*
X42781128Y-24117857D01*
X42767737Y-24109251D01*
X42743297Y-24093544D01*
X42697542Y-24040740D01*
X42687599Y-23971581D01*
X42697540Y-23937722D01*
X42728668Y-23869565D01*
X42749150Y-23727108D01*
X42728668Y-23584651D01*
X42668880Y-23453735D01*
X42574631Y-23344965D01*
X42453556Y-23267155D01*
X42453554Y-23267154D01*
X42453552Y-23267153D01*
X42453553Y-23267153D01*
X42315466Y-23226608D01*
X42315464Y-23226608D01*
X42171542Y-23226608D01*
X42171539Y-23226608D01*
X42033452Y-23267153D01*
X41912376Y-23344964D01*
X41818126Y-23453734D01*
X41818125Y-23453736D01*
X41758337Y-23584651D01*
X41737856Y-23727108D01*
X41758337Y-23869564D01*
X41818125Y-24000479D01*
X41818126Y-24000481D01*
X41912375Y-24109251D01*
X41929932Y-24120534D01*
X41950204Y-24133562D01*
X41995959Y-24186366D01*
X42005903Y-24255525D01*
X41995960Y-24289389D01*
X41964834Y-24357545D01*
X41944353Y-24500000D01*
X41964834Y-24642456D01*
X42024622Y-24773371D01*
X42024623Y-24773373D01*
X42086052Y-24844266D01*
X42115077Y-24907822D01*
X42105133Y-24976981D01*
X42059378Y-25029785D01*
X42043858Y-25038260D01*
X42039951Y-25040044D01*
X41918873Y-25117856D01*
X41824623Y-25226626D01*
X41824622Y-25226628D01*
X41764834Y-25357543D01*
X41744353Y-25500000D01*
X41764834Y-25642456D01*
X41808770Y-25738660D01*
X41824623Y-25773373D01*
X41918872Y-25882143D01*
X41918875Y-25882144D01*
X41919213Y-25882535D01*
X41948238Y-25946091D01*
X41949500Y-25963738D01*
X41949500Y-27122695D01*
X41929815Y-27189734D01*
X41913181Y-27210376D01*
X41486796Y-27636760D01*
X41425473Y-27670245D01*
X41355781Y-27665261D01*
X41299848Y-27623389D01*
X41286321Y-27600590D01*
X41275379Y-27576630D01*
X41275376Y-27576626D01*
X41181128Y-27467857D01*
X41060053Y-27390047D01*
X41060051Y-27390046D01*
X41060049Y-27390045D01*
X41060050Y-27390045D01*
X40921963Y-27349500D01*
X40921961Y-27349500D01*
X40833559Y-27349500D01*
X40766520Y-27329815D01*
X40720765Y-27277011D01*
X40710821Y-27207853D01*
X40720765Y-27173988D01*
X40724811Y-27165128D01*
X40735165Y-27142457D01*
X40755647Y-27000000D01*
X40735165Y-26857543D01*
X40675377Y-26726627D01*
X40675375Y-26726625D01*
X40675374Y-26726622D01*
X40580787Y-26617462D01*
X40551762Y-26553906D01*
X40550500Y-26536260D01*
X40550500Y-23513738D01*
X40570185Y-23446699D01*
X40580787Y-23432535D01*
X40581124Y-23432144D01*
X40581128Y-23432143D01*
X40675377Y-23323373D01*
X40735165Y-23192457D01*
X40755647Y-23050000D01*
X40735165Y-22907543D01*
X40675377Y-22776627D01*
X40581128Y-22667857D01*
X40460053Y-22590047D01*
X40460051Y-22590046D01*
X40460049Y-22590045D01*
X40460050Y-22590045D01*
X40321963Y-22549500D01*
X40321961Y-22549500D01*
X40178039Y-22549500D01*
X40178036Y-22549500D01*
X40039949Y-22590045D01*
X39971868Y-22633798D01*
X39904828Y-22653482D01*
X39837789Y-22633797D01*
X39792034Y-22580992D01*
X39780829Y-22529482D01*
X39780829Y-21445504D01*
X39800514Y-21378465D01*
X39817148Y-21357823D01*
X40338152Y-20836819D01*
X40399475Y-20803334D01*
X40425833Y-20800500D01*
X42312110Y-20800500D01*
X42379149Y-20820185D01*
G37*
%TD.AperFunction*%
%TD*%
M02*
