%TF.GenerationSoftware,KiCad,Pcbnew,8.0.9-8.0.9-0~ubuntu22.04.1*%
%TF.CreationDate,2025-08-02T16:06:53-04:00*%
%TF.ProjectId,task-controller,7461736b-2d63-46f6-9e74-726f6c6c6572,rev?*%
%TF.SameCoordinates,Original*%
%TF.FileFunction,Copper,L1,Top*%
%TF.FilePolarity,Positive*%
%FSLAX46Y46*%
G04 Gerber Fmt 4.6, Leading zero omitted, Abs format (unit mm)*
G04 Created by KiCad (PCBNEW 8.0.9-8.0.9-0~ubuntu22.04.1) date 2025-08-02 16:06:53*
%MOMM*%
%LPD*%
G01*
G04 APERTURE LIST*
G04 Aperture macros list*
%AMRoundRect*
0 Rectangle with rounded corners*
0 $1 Rounding radius*
0 $2 $3 $4 $5 $6 $7 $8 $9 X,Y pos of 4 corners*
0 Add a 4 corners polygon primitive as box body*
4,1,4,$2,$3,$4,$5,$6,$7,$8,$9,$2,$3,0*
0 Add four circle primitives for the rounded corners*
1,1,$1+$1,$2,$3*
1,1,$1+$1,$4,$5*
1,1,$1+$1,$6,$7*
1,1,$1+$1,$8,$9*
0 Add four rect primitives between the rounded corners*
20,1,$1+$1,$2,$3,$4,$5,0*
20,1,$1+$1,$4,$5,$6,$7,0*
20,1,$1+$1,$6,$7,$8,$9,0*
20,1,$1+$1,$8,$9,$2,$3,0*%
G04 Aperture macros list end*
%TA.AperFunction,EtchedComponent*%
%ADD10C,0.000000*%
%TD*%
%TA.AperFunction,SMDPad,CuDef*%
%ADD11RoundRect,0.250000X0.475000X-0.250000X0.475000X0.250000X-0.475000X0.250000X-0.475000X-0.250000X0*%
%TD*%
%TA.AperFunction,SMDPad,CuDef*%
%ADD12RoundRect,0.150000X-0.825000X-0.150000X0.825000X-0.150000X0.825000X0.150000X-0.825000X0.150000X0*%
%TD*%
%TA.AperFunction,ComponentPad*%
%ADD13R,1.700000X1.700000*%
%TD*%
%TA.AperFunction,ComponentPad*%
%ADD14O,1.700000X1.700000*%
%TD*%
%TA.AperFunction,ComponentPad*%
%ADD15C,3.100000*%
%TD*%
%TA.AperFunction,ConnectorPad*%
%ADD16C,5.400000*%
%TD*%
%TA.AperFunction,SMDPad,CuDef*%
%ADD17RoundRect,0.250000X-0.250000X-2.500000X0.250000X-2.500000X0.250000X2.500000X-0.250000X2.500000X0*%
%TD*%
%TA.AperFunction,SMDPad,CuDef*%
%ADD18RoundRect,0.250000X-0.550000X-1.250000X0.550000X-1.250000X0.550000X1.250000X-0.550000X1.250000X0*%
%TD*%
%TA.AperFunction,SMDPad,CuDef*%
%ADD19RoundRect,0.135000X-0.135000X-0.185000X0.135000X-0.185000X0.135000X0.185000X-0.135000X0.185000X0*%
%TD*%
%TA.AperFunction,SMDPad,CuDef*%
%ADD20RoundRect,0.135000X-0.185000X0.135000X-0.185000X-0.135000X0.185000X-0.135000X0.185000X0.135000X0*%
%TD*%
%TA.AperFunction,SMDPad,CuDef*%
%ADD21RoundRect,0.200000X-0.275000X0.200000X-0.275000X-0.200000X0.275000X-0.200000X0.275000X0.200000X0*%
%TD*%
%TA.AperFunction,SMDPad,CuDef*%
%ADD22R,1.240000X0.600000*%
%TD*%
%TA.AperFunction,SMDPad,CuDef*%
%ADD23R,1.240000X0.300000*%
%TD*%
%TA.AperFunction,HeatsinkPad*%
%ADD24O,2.100000X1.000000*%
%TD*%
%TA.AperFunction,HeatsinkPad*%
%ADD25O,1.800000X1.000000*%
%TD*%
%TA.AperFunction,SMDPad,CuDef*%
%ADD26RoundRect,0.135000X0.135000X0.185000X-0.135000X0.185000X-0.135000X-0.185000X0.135000X-0.185000X0*%
%TD*%
%TA.AperFunction,SMDPad,CuDef*%
%ADD27RoundRect,0.150000X0.512500X0.150000X-0.512500X0.150000X-0.512500X-0.150000X0.512500X-0.150000X0*%
%TD*%
%TA.AperFunction,SMDPad,CuDef*%
%ADD28RoundRect,0.140000X-0.140000X-0.170000X0.140000X-0.170000X0.140000X0.170000X-0.140000X0.170000X0*%
%TD*%
%TA.AperFunction,SMDPad,CuDef*%
%ADD29RoundRect,0.140000X0.140000X0.170000X-0.140000X0.170000X-0.140000X-0.170000X0.140000X-0.170000X0*%
%TD*%
%TA.AperFunction,SMDPad,CuDef*%
%ADD30R,1.200000X0.700000*%
%TD*%
%TA.AperFunction,SMDPad,CuDef*%
%ADD31R,0.800000X1.000000*%
%TD*%
%TA.AperFunction,SMDPad,CuDef*%
%ADD32R,1.200000X1.000000*%
%TD*%
%TA.AperFunction,SMDPad,CuDef*%
%ADD33R,2.800000X1.000000*%
%TD*%
%TA.AperFunction,SMDPad,CuDef*%
%ADD34R,1.900000X1.300000*%
%TD*%
%TA.AperFunction,SMDPad,CuDef*%
%ADD35RoundRect,0.135000X0.185000X-0.135000X0.185000X0.135000X-0.185000X0.135000X-0.185000X-0.135000X0*%
%TD*%
%TA.AperFunction,SMDPad,CuDef*%
%ADD36RoundRect,0.250000X-1.412500X-0.550000X1.412500X-0.550000X1.412500X0.550000X-1.412500X0.550000X0*%
%TD*%
%TA.AperFunction,SMDPad,CuDef*%
%ADD37RoundRect,0.225000X0.250000X-0.225000X0.250000X0.225000X-0.250000X0.225000X-0.250000X-0.225000X0*%
%TD*%
%TA.AperFunction,SMDPad,CuDef*%
%ADD38RoundRect,0.250000X-0.250000X-0.475000X0.250000X-0.475000X0.250000X0.475000X-0.250000X0.475000X0*%
%TD*%
%TA.AperFunction,SMDPad,CuDef*%
%ADD39RoundRect,0.243750X0.456250X-0.243750X0.456250X0.243750X-0.456250X0.243750X-0.456250X-0.243750X0*%
%TD*%
%TA.AperFunction,SMDPad,CuDef*%
%ADD40RoundRect,0.140000X-0.170000X0.140000X-0.170000X-0.140000X0.170000X-0.140000X0.170000X0.140000X0*%
%TD*%
%TA.AperFunction,SMDPad,CuDef*%
%ADD41RoundRect,0.050000X0.387500X0.050000X-0.387500X0.050000X-0.387500X-0.050000X0.387500X-0.050000X0*%
%TD*%
%TA.AperFunction,SMDPad,CuDef*%
%ADD42RoundRect,0.050000X0.050000X0.387500X-0.050000X0.387500X-0.050000X-0.387500X0.050000X-0.387500X0*%
%TD*%
%TA.AperFunction,HeatsinkPad*%
%ADD43R,3.200000X3.200000*%
%TD*%
%TA.AperFunction,SMDPad,CuDef*%
%ADD44R,2.000000X1.050000*%
%TD*%
%TA.AperFunction,SMDPad,CuDef*%
%ADD45RoundRect,0.225000X-0.225000X-0.250000X0.225000X-0.250000X0.225000X0.250000X-0.225000X0.250000X0*%
%TD*%
%TA.AperFunction,SMDPad,CuDef*%
%ADD46R,1.400000X1.200000*%
%TD*%
%TA.AperFunction,SMDPad,CuDef*%
%ADD47RoundRect,0.150000X0.650000X0.150000X-0.650000X0.150000X-0.650000X-0.150000X0.650000X-0.150000X0*%
%TD*%
%TA.AperFunction,SMDPad,CuDef*%
%ADD48R,1.800000X1.000000*%
%TD*%
%TA.AperFunction,SMDPad,CuDef*%
%ADD49RoundRect,0.140000X0.170000X-0.140000X0.170000X0.140000X-0.170000X0.140000X-0.170000X-0.140000X0*%
%TD*%
%TA.AperFunction,SMDPad,CuDef*%
%ADD50RoundRect,0.225000X-0.250000X0.225000X-0.250000X-0.225000X0.250000X-0.225000X0.250000X0.225000X0*%
%TD*%
%TA.AperFunction,SMDPad,CuDef*%
%ADD51R,2.300000X4.350000*%
%TD*%
%TA.AperFunction,SMDPad,CuDef*%
%ADD52R,2.300000X4.040000*%
%TD*%
%TA.AperFunction,SMDPad,CuDef*%
%ADD53R,1.050000X2.000000*%
%TD*%
%TA.AperFunction,ViaPad*%
%ADD54C,0.600000*%
%TD*%
%TA.AperFunction,Conductor*%
%ADD55C,0.200000*%
%TD*%
%TA.AperFunction,Conductor*%
%ADD56C,0.500000*%
%TD*%
%TA.AperFunction,Conductor*%
%ADD57C,0.250000*%
%TD*%
%TA.AperFunction,Conductor*%
%ADD58C,0.203200*%
%TD*%
G04 APERTURE END LIST*
D10*
%TA.AperFunction,EtchedComponent*%
%TO.C,G1*%
G36*
X2047906Y-48373798D02*
G01*
X2087893Y-48374190D01*
X2131074Y-48374867D01*
X2177786Y-48375836D01*
X2228365Y-48377100D01*
X2283146Y-48378668D01*
X2342466Y-48380543D01*
X2406661Y-48382734D01*
X2476068Y-48385244D01*
X2551022Y-48388081D01*
X2631859Y-48391251D01*
X2718915Y-48394758D01*
X2812528Y-48398610D01*
X2887943Y-48401758D01*
X2967494Y-48405199D01*
X3040416Y-48408589D01*
X3107236Y-48411977D01*
X3168480Y-48415415D01*
X3224673Y-48418952D01*
X3276342Y-48422640D01*
X3324012Y-48426527D01*
X3368210Y-48430665D01*
X3409461Y-48435104D01*
X3448291Y-48439895D01*
X3485227Y-48445087D01*
X3520794Y-48450731D01*
X3555518Y-48456877D01*
X3589925Y-48463577D01*
X3624541Y-48470879D01*
X3635826Y-48473369D01*
X3670453Y-48481365D01*
X3704471Y-48489836D01*
X3738470Y-48498989D01*
X3773037Y-48509032D01*
X3808760Y-48520170D01*
X3846229Y-48532610D01*
X3886031Y-48546559D01*
X3928755Y-48562224D01*
X3974989Y-48579811D01*
X4025320Y-48599528D01*
X4080339Y-48621579D01*
X4140631Y-48646173D01*
X4206787Y-48673516D01*
X4213394Y-48676262D01*
X4270605Y-48700010D01*
X4323470Y-48721846D01*
X4372732Y-48742056D01*
X4419133Y-48760922D01*
X4463416Y-48778729D01*
X4506324Y-48795762D01*
X4548598Y-48812303D01*
X4590981Y-48828638D01*
X4634217Y-48845051D01*
X4679047Y-48861824D01*
X4726214Y-48879244D01*
X4776461Y-48897593D01*
X4830530Y-48917156D01*
X4889163Y-48938217D01*
X4953104Y-48961060D01*
X5020112Y-48984909D01*
X5096112Y-49011965D01*
X5165902Y-49036912D01*
X5230041Y-49059959D01*
X5289088Y-49081317D01*
X5343601Y-49101198D01*
X5394139Y-49119811D01*
X5441260Y-49137368D01*
X5485522Y-49154079D01*
X5527486Y-49170154D01*
X5567708Y-49185805D01*
X5606748Y-49201242D01*
X5645164Y-49216676D01*
X5683515Y-49232317D01*
X5722360Y-49248377D01*
X5756704Y-49262733D01*
X5866633Y-49310189D01*
X5973608Y-49359080D01*
X6078093Y-49409712D01*
X6180555Y-49462391D01*
X6281458Y-49517426D01*
X6381267Y-49575121D01*
X6480448Y-49635785D01*
X6579467Y-49699723D01*
X6678787Y-49767243D01*
X6778875Y-49838652D01*
X6880195Y-49914257D01*
X6983213Y-49994363D01*
X7088395Y-50079279D01*
X7196204Y-50169310D01*
X7307108Y-50264764D01*
X7399025Y-50345822D01*
X7432583Y-50375764D01*
X7464771Y-50404604D01*
X7495953Y-50432684D01*
X7526492Y-50460347D01*
X7556751Y-50487936D01*
X7587095Y-50515793D01*
X7617887Y-50544261D01*
X7649490Y-50573682D01*
X7682267Y-50604400D01*
X7716584Y-50636756D01*
X7752802Y-50671093D01*
X7791286Y-50707755D01*
X7832399Y-50747082D01*
X7876505Y-50789420D01*
X7923967Y-50835108D01*
X7975149Y-50884492D01*
X8030415Y-50937912D01*
X8090127Y-50995712D01*
X8143239Y-51047174D01*
X8209361Y-51111282D01*
X8270595Y-51170692D01*
X8327206Y-51225668D01*
X8379463Y-51276474D01*
X8427631Y-51323374D01*
X8471977Y-51366630D01*
X8512767Y-51406509D01*
X8550268Y-51443272D01*
X8584747Y-51477184D01*
X8616470Y-51508510D01*
X8645703Y-51537512D01*
X8672714Y-51564454D01*
X8697769Y-51589602D01*
X8721133Y-51613217D01*
X8743075Y-51635565D01*
X8763860Y-51656909D01*
X8783755Y-51677513D01*
X8803027Y-51697640D01*
X8821941Y-51717556D01*
X8840766Y-51737523D01*
X8842682Y-51739563D01*
X8932010Y-51836570D01*
X9017630Y-51933483D01*
X9099772Y-52030700D01*
X9178667Y-52128621D01*
X9254546Y-52227643D01*
X9327640Y-52328165D01*
X9398180Y-52430587D01*
X9466397Y-52535307D01*
X9532521Y-52642723D01*
X9596785Y-52753235D01*
X9659418Y-52867241D01*
X9720652Y-52985140D01*
X9780718Y-53107330D01*
X9839846Y-53234211D01*
X9898267Y-53366181D01*
X9956213Y-53503639D01*
X10013915Y-53646983D01*
X10071602Y-53796612D01*
X10129507Y-53952926D01*
X10137670Y-53975438D01*
X10157521Y-54030615D01*
X10177149Y-54085796D01*
X10196700Y-54141421D01*
X10216318Y-54197931D01*
X10236148Y-54255767D01*
X10256334Y-54315369D01*
X10277022Y-54377180D01*
X10298356Y-54441639D01*
X10320481Y-54509188D01*
X10343542Y-54580267D01*
X10367683Y-54655318D01*
X10393049Y-54734781D01*
X10419785Y-54819097D01*
X10448035Y-54908707D01*
X10477945Y-55004053D01*
X10509659Y-55105574D01*
X10528065Y-55164657D01*
X10548494Y-55230294D01*
X10566979Y-55289674D01*
X10583700Y-55343371D01*
X10598837Y-55391961D01*
X10612570Y-55436018D01*
X10625080Y-55476116D01*
X10636548Y-55512830D01*
X10647154Y-55546736D01*
X10657079Y-55578408D01*
X10666502Y-55608421D01*
X10675605Y-55637348D01*
X10684568Y-55665766D01*
X10693570Y-55694249D01*
X10702794Y-55723372D01*
X10712419Y-55753709D01*
X10722625Y-55785835D01*
X10733594Y-55820325D01*
X10745505Y-55857753D01*
X10758422Y-55898325D01*
X10779020Y-55963086D01*
X10797642Y-56021779D01*
X10814518Y-56075145D01*
X10829876Y-56123923D01*
X10843946Y-56168853D01*
X10856958Y-56210673D01*
X10869141Y-56250124D01*
X10880726Y-56287944D01*
X10891941Y-56324873D01*
X10903016Y-56361651D01*
X10914181Y-56399017D01*
X10920924Y-56421708D01*
X10966413Y-56579407D01*
X11007806Y-56732217D01*
X11045260Y-56881006D01*
X11078929Y-57026638D01*
X11108971Y-57169980D01*
X11135540Y-57311898D01*
X11158794Y-57453258D01*
X11178888Y-57594926D01*
X11195978Y-57737769D01*
X11210220Y-57882652D01*
X11221770Y-58030442D01*
X11227726Y-58125297D01*
X11228816Y-58149104D01*
X11229754Y-58179130D01*
X11230540Y-58214442D01*
X11231175Y-58254110D01*
X11231659Y-58297202D01*
X11231991Y-58342786D01*
X11232171Y-58389930D01*
X11232200Y-58437704D01*
X11232077Y-58485176D01*
X11231802Y-58531414D01*
X11231375Y-58575486D01*
X11230797Y-58616462D01*
X11230067Y-58653409D01*
X11229185Y-58685397D01*
X11228151Y-58711493D01*
X11227748Y-58719156D01*
X11223302Y-58792059D01*
X11218336Y-58863778D01*
X11212788Y-58934696D01*
X11206594Y-59005197D01*
X11199692Y-59075663D01*
X11192018Y-59146476D01*
X11183510Y-59218021D01*
X11174104Y-59290680D01*
X11163738Y-59364835D01*
X11152349Y-59440869D01*
X11139872Y-59519166D01*
X11126247Y-59600108D01*
X11111409Y-59684078D01*
X11095295Y-59771459D01*
X11077843Y-59862633D01*
X11058989Y-59957984D01*
X11038671Y-60057894D01*
X11016825Y-60162747D01*
X10993389Y-60272925D01*
X10968299Y-60388810D01*
X10941493Y-60510787D01*
X10912907Y-60639237D01*
X10908674Y-60658142D01*
X10886576Y-60756420D01*
X10865801Y-60848120D01*
X10846243Y-60933677D01*
X10827796Y-61013524D01*
X10810355Y-61088095D01*
X10793815Y-61157823D01*
X10778070Y-61223142D01*
X10763015Y-61284486D01*
X10748546Y-61342289D01*
X10734555Y-61396984D01*
X10720938Y-61449005D01*
X10707590Y-61498786D01*
X10694406Y-61546760D01*
X10682725Y-61588283D01*
X10643877Y-61720466D01*
X10604026Y-61847385D01*
X10563249Y-61968858D01*
X10521621Y-62084704D01*
X10479220Y-62194741D01*
X10436121Y-62298787D01*
X10392400Y-62396662D01*
X10348135Y-62488184D01*
X10303401Y-62573170D01*
X10258275Y-62651439D01*
X10212833Y-62722810D01*
X10194736Y-62749170D01*
X10143290Y-62817845D01*
X10090219Y-62879643D01*
X10035548Y-62934550D01*
X9979300Y-62982548D01*
X9921497Y-63023621D01*
X9862165Y-63057754D01*
X9801327Y-63084930D01*
X9739005Y-63105132D01*
X9675225Y-63118345D01*
X9654718Y-63121070D01*
X9640251Y-63122234D01*
X9620384Y-63123136D01*
X9596868Y-63123762D01*
X9571455Y-63124100D01*
X9545895Y-63124135D01*
X9521938Y-63123856D01*
X9501337Y-63123247D01*
X9486577Y-63122361D01*
X9460365Y-63119330D01*
X9428981Y-63114464D01*
X9394067Y-63108101D01*
X9357268Y-63100580D01*
X9320227Y-63092237D01*
X9284589Y-63083411D01*
X9251998Y-63074440D01*
X9248676Y-63073460D01*
X9192756Y-63055860D01*
X9135287Y-63035772D01*
X9075985Y-63013046D01*
X9014570Y-62987535D01*
X8950759Y-62959091D01*
X8884270Y-62927566D01*
X8814822Y-62892812D01*
X8742132Y-62854681D01*
X8665919Y-62813025D01*
X8585901Y-62767696D01*
X8501796Y-62718546D01*
X8413322Y-62665427D01*
X8320197Y-62608191D01*
X8222139Y-62546690D01*
X8118867Y-62480776D01*
X8114619Y-62478043D01*
X8035455Y-62426451D01*
X7952886Y-62371440D01*
X7867953Y-62313750D01*
X7781700Y-62254122D01*
X7695169Y-62193296D01*
X7609403Y-62132013D01*
X7525443Y-62071013D01*
X7444333Y-62011036D01*
X7367115Y-61952824D01*
X7294831Y-61897116D01*
X7275704Y-61882136D01*
X7195567Y-61817626D01*
X7121978Y-61755164D01*
X7054724Y-61694454D01*
X6993594Y-61635197D01*
X6938375Y-61577097D01*
X6888855Y-61519857D01*
X6844822Y-61463180D01*
X6806064Y-61406768D01*
X6772369Y-61350325D01*
X6743525Y-61293553D01*
X6719319Y-61236155D01*
X6699540Y-61177835D01*
X6683976Y-61118294D01*
X6672414Y-61057236D01*
X6668819Y-61031987D01*
X6667093Y-61013818D01*
X6665753Y-60989900D01*
X6664801Y-60961630D01*
X6664236Y-60930403D01*
X6664060Y-60897615D01*
X6664272Y-60864663D01*
X6664874Y-60832942D01*
X6665866Y-60803848D01*
X6667249Y-60778777D01*
X6668709Y-60761889D01*
X6672901Y-60725490D01*
X6674454Y-60713519D01*
X7406038Y-60713519D01*
X7409782Y-60768955D01*
X7413251Y-60793005D01*
X7423575Y-60839690D01*
X7438217Y-60882724D01*
X7457733Y-60923117D01*
X7482683Y-60961879D01*
X7513623Y-61000020D01*
X7546314Y-61033935D01*
X7564226Y-61050873D01*
X7582511Y-61067206D01*
X7601764Y-61083352D01*
X7622577Y-61099730D01*
X7645543Y-61116757D01*
X7671254Y-61134852D01*
X7700302Y-61154434D01*
X7733282Y-61175921D01*
X7770784Y-61199731D01*
X7813403Y-61226283D01*
X7855253Y-61252030D01*
X7942039Y-61305597D01*
X8023362Y-61356677D01*
X8100190Y-61405917D01*
X8173495Y-61453959D01*
X8244246Y-61501451D01*
X8313412Y-61549035D01*
X8381964Y-61597357D01*
X8450872Y-61647062D01*
X8465211Y-61657540D01*
X8505310Y-61687073D01*
X8543565Y-61715622D01*
X8580750Y-61743802D01*
X8617642Y-61772225D01*
X8655016Y-61801508D01*
X8693648Y-61832263D01*
X8734313Y-61865106D01*
X8777788Y-61900649D01*
X8824848Y-61939508D01*
X8876268Y-61982297D01*
X8892718Y-61996040D01*
X8920302Y-62019077D01*
X8947459Y-62041704D01*
X8973434Y-62063300D01*
X8997475Y-62083239D01*
X9018829Y-62100899D01*
X9036744Y-62115654D01*
X9050466Y-62126882D01*
X9057281Y-62132395D01*
X9104305Y-62169316D01*
X9146856Y-62201050D01*
X9185233Y-62227745D01*
X9219732Y-62249548D01*
X9250653Y-62266604D01*
X9278292Y-62279060D01*
X9302947Y-62287063D01*
X9324917Y-62290759D01*
X9344499Y-62290295D01*
X9361990Y-62285818D01*
X9365773Y-62284225D01*
X9382741Y-62273897D01*
X9400872Y-62258275D01*
X9418743Y-62238735D01*
X9433561Y-62218735D01*
X9443623Y-62202607D01*
X9453641Y-62184417D01*
X9463808Y-62163652D01*
X9474322Y-62139798D01*
X9485376Y-62112341D01*
X9497168Y-62080766D01*
X9509892Y-62044561D01*
X9523744Y-62003210D01*
X9538920Y-61956201D01*
X9555615Y-61903019D01*
X9563881Y-61876269D01*
X9571768Y-61850923D01*
X9581583Y-61819858D01*
X9592979Y-61784143D01*
X9605613Y-61744845D01*
X9619138Y-61703029D01*
X9633212Y-61659763D01*
X9647487Y-61616115D01*
X9661621Y-61573150D01*
X9670815Y-61545354D01*
X9695097Y-61471780D01*
X9717096Y-61404385D01*
X9736966Y-61342623D01*
X9754863Y-61285947D01*
X9770943Y-61233809D01*
X9785359Y-61185663D01*
X9798269Y-61140962D01*
X9809827Y-61099158D01*
X9820189Y-61059705D01*
X9829509Y-61022056D01*
X9837944Y-60985664D01*
X9845648Y-60949982D01*
X9852777Y-60914463D01*
X9858259Y-60885311D01*
X9868334Y-60823981D01*
X9876193Y-60762820D01*
X9881760Y-60702997D01*
X9884960Y-60645684D01*
X9885716Y-60592054D01*
X9883954Y-60543276D01*
X9881945Y-60519538D01*
X9878476Y-60493003D01*
X9873760Y-60471792D01*
X9866987Y-60454087D01*
X9857349Y-60438072D01*
X9844036Y-60421928D01*
X9833689Y-60411166D01*
X9811209Y-60390894D01*
X9784332Y-60370793D01*
X9752813Y-60350761D01*
X9716405Y-60330695D01*
X9674864Y-60310494D01*
X9627943Y-60290056D01*
X9575397Y-60269278D01*
X9516980Y-60248059D01*
X9452447Y-60226298D01*
X9381552Y-60203891D01*
X9304050Y-60180738D01*
X9222145Y-60157418D01*
X9205842Y-60152965D01*
X9183271Y-60146938D01*
X9155105Y-60139507D01*
X9122014Y-60130845D01*
X9084668Y-60121124D01*
X9043741Y-60110516D01*
X8999901Y-60099192D01*
X8953822Y-60087325D01*
X8906173Y-60075087D01*
X8857626Y-60062649D01*
X8808853Y-60050183D01*
X8760524Y-60037862D01*
X8713310Y-60025856D01*
X8667883Y-60014339D01*
X8624913Y-60003482D01*
X8585073Y-59993457D01*
X8549033Y-59984436D01*
X8517464Y-59976590D01*
X8491037Y-59970092D01*
X8486676Y-59969030D01*
X8413285Y-59951556D01*
X8346047Y-59936354D01*
X8284367Y-59923322D01*
X8227647Y-59912358D01*
X8175291Y-59903361D01*
X8126703Y-59896229D01*
X8081286Y-59890859D01*
X8038443Y-59887152D01*
X7997579Y-59885003D01*
X7992986Y-59884852D01*
X7950638Y-59884297D01*
X7913821Y-59885561D01*
X7881104Y-59888804D01*
X7851060Y-59894185D01*
X7822257Y-59901865D01*
X7812384Y-59905065D01*
X7768789Y-59923151D01*
X7727525Y-59947214D01*
X7688464Y-59977400D01*
X7651475Y-60013853D01*
X7616430Y-60056719D01*
X7583199Y-60106143D01*
X7551653Y-60162269D01*
X7521662Y-60225242D01*
X7516983Y-60236001D01*
X7487080Y-60310360D01*
X7461708Y-60383492D01*
X7440960Y-60454904D01*
X7424928Y-60524104D01*
X7413702Y-60590602D01*
X7407375Y-60653904D01*
X7406038Y-60713519D01*
X6674454Y-60713519D01*
X6677582Y-60689407D01*
X6682871Y-60653077D01*
X6688889Y-60615939D01*
X6695755Y-60577430D01*
X6703587Y-60536988D01*
X6712507Y-60494052D01*
X6722633Y-60448059D01*
X6734084Y-60398448D01*
X6746982Y-60344656D01*
X6761444Y-60286122D01*
X6777591Y-60222283D01*
X6795542Y-60152578D01*
X6810808Y-60094026D01*
X6828798Y-60024902D01*
X6845038Y-59961529D01*
X6859790Y-59902789D01*
X6873318Y-59847568D01*
X6885884Y-59794750D01*
X6897750Y-59743218D01*
X6909179Y-59691856D01*
X6920434Y-59639550D01*
X6931777Y-59585182D01*
X6939715Y-59546267D01*
X6966926Y-59405319D01*
X6992752Y-59258626D01*
X7017027Y-59107492D01*
X7039583Y-58953223D01*
X7060254Y-58797122D01*
X7078873Y-58640496D01*
X7094151Y-58495315D01*
X7879233Y-58495315D01*
X7879823Y-58529417D01*
X7881053Y-58561914D01*
X7882904Y-58591235D01*
X7885356Y-58615808D01*
X7886853Y-58626142D01*
X7898284Y-58683370D01*
X7912633Y-58734766D01*
X7930309Y-58781199D01*
X7951722Y-58823539D01*
X7977280Y-58862653D01*
X8007391Y-58899410D01*
X8023384Y-58916271D01*
X8055074Y-58945442D01*
X8090515Y-58972582D01*
X8130209Y-58997943D01*
X8174660Y-59021779D01*
X8224371Y-59044342D01*
X8279846Y-59065887D01*
X8341587Y-59086667D01*
X8392348Y-59101913D01*
X8413755Y-59107931D01*
X8435761Y-59113840D01*
X8458994Y-59119783D01*
X8484084Y-59125898D01*
X8511659Y-59132326D01*
X8542348Y-59139208D01*
X8576779Y-59146684D01*
X8615581Y-59154895D01*
X8659383Y-59163981D01*
X8708815Y-59174082D01*
X8764503Y-59185339D01*
X8778239Y-59188102D01*
X8833413Y-59199243D01*
X8884063Y-59209599D01*
X8931186Y-59219397D01*
X8975780Y-59228862D01*
X9018842Y-59238222D01*
X9061368Y-59247704D01*
X9104354Y-59257532D01*
X9148799Y-59267934D01*
X9195699Y-59279137D01*
X9246050Y-59291367D01*
X9300850Y-59304849D01*
X9361095Y-59319812D01*
X9392242Y-59327586D01*
X9452327Y-59342568D01*
X9506137Y-59355904D01*
X9554325Y-59367747D01*
X9597540Y-59378248D01*
X9636434Y-59387560D01*
X9671659Y-59395836D01*
X9703865Y-59403228D01*
X9733703Y-59409888D01*
X9761825Y-59415969D01*
X9788881Y-59421624D01*
X9815522Y-59427004D01*
X9824648Y-59428807D01*
X9878838Y-59438942D01*
X9927001Y-59446811D01*
X9969873Y-59452480D01*
X10008191Y-59456012D01*
X10042691Y-59457475D01*
X10074110Y-59456933D01*
X10103184Y-59454451D01*
X10107593Y-59453888D01*
X10145892Y-59446214D01*
X10180127Y-59433756D01*
X10210699Y-59416161D01*
X10238010Y-59393075D01*
X10262463Y-59364146D01*
X10284459Y-59329019D01*
X10304401Y-59287341D01*
X10308559Y-59277241D01*
X10325602Y-59229571D01*
X10341095Y-59175812D01*
X10354917Y-59116887D01*
X10366951Y-59053718D01*
X10377075Y-58987225D01*
X10385172Y-58918331D01*
X10391122Y-58847958D01*
X10394806Y-58777028D01*
X10396104Y-58706462D01*
X10394898Y-58637182D01*
X10394022Y-58616638D01*
X10389158Y-58541496D01*
X10382184Y-58472908D01*
X10373040Y-58410575D01*
X10361668Y-58354196D01*
X10348007Y-58303470D01*
X10331999Y-58258098D01*
X10316258Y-58223029D01*
X10306678Y-58204530D01*
X10298230Y-58190228D01*
X10289298Y-58177891D01*
X10278263Y-58165288D01*
X10263510Y-58150190D01*
X10263337Y-58150018D01*
X10237900Y-58127030D01*
X10210503Y-58107144D01*
X10179949Y-58089706D01*
X10145043Y-58074061D01*
X10104589Y-58059554D01*
X10089380Y-58054771D01*
X10066802Y-58048073D01*
X10044343Y-58041845D01*
X10021494Y-58036008D01*
X9997745Y-58030483D01*
X9972584Y-58025191D01*
X9945502Y-58020052D01*
X9915989Y-58014989D01*
X9883533Y-58009921D01*
X9847626Y-58004770D01*
X9807755Y-57999458D01*
X9763412Y-57993904D01*
X9714086Y-57988030D01*
X9659266Y-57981757D01*
X9598443Y-57975007D01*
X9531105Y-57967699D01*
X9516986Y-57966182D01*
X9449239Y-57958863D01*
X9387664Y-57952088D01*
X9331306Y-57945741D01*
X9279213Y-57939703D01*
X9230431Y-57933857D01*
X9184007Y-57928086D01*
X9138988Y-57922273D01*
X9094420Y-57916299D01*
X9049351Y-57910047D01*
X9002826Y-57903401D01*
X8976788Y-57899610D01*
X8915624Y-57890701D01*
X8860888Y-57882842D01*
X8811943Y-57875960D01*
X8768154Y-57869979D01*
X8728882Y-57864825D01*
X8693491Y-57860423D01*
X8661343Y-57856699D01*
X8631802Y-57853578D01*
X8604230Y-57850986D01*
X8577991Y-57848848D01*
X8552447Y-57847090D01*
X8526961Y-57845637D01*
X8507691Y-57844710D01*
X8435450Y-57843132D01*
X8369115Y-57845210D01*
X8308376Y-57851056D01*
X8252920Y-57860785D01*
X8202437Y-57874509D01*
X8156617Y-57892343D01*
X8115149Y-57914399D01*
X8077721Y-57940792D01*
X8044023Y-57971634D01*
X8013744Y-58007040D01*
X7996605Y-58031252D01*
X7965525Y-58084517D01*
X7938940Y-58143237D01*
X7916900Y-58207262D01*
X7899454Y-58276439D01*
X7886652Y-58350619D01*
X7883673Y-58374276D01*
X7881503Y-58399088D01*
X7880053Y-58428579D01*
X7879303Y-58461178D01*
X7879233Y-58495315D01*
X7094151Y-58495315D01*
X7095273Y-58484649D01*
X7109289Y-58330886D01*
X7120753Y-58180512D01*
X7127124Y-58078790D01*
X7135030Y-57901822D01*
X7138972Y-57721153D01*
X7138954Y-57539038D01*
X7134981Y-57357730D01*
X7127057Y-57179482D01*
X7125257Y-57148649D01*
X7118007Y-57040270D01*
X7109181Y-56928040D01*
X7098882Y-56812696D01*
X7087210Y-56694979D01*
X7074270Y-56575627D01*
X7060163Y-56455382D01*
X7044992Y-56334980D01*
X7041352Y-56307945D01*
X7844978Y-56307945D01*
X7846885Y-56386411D01*
X7852191Y-56460509D01*
X7861150Y-56532298D01*
X7874018Y-56603836D01*
X7890400Y-56674640D01*
X7906501Y-56732169D01*
X7923862Y-56783061D01*
X7942665Y-56827752D01*
X7963091Y-56866677D01*
X7982869Y-56896944D01*
X8004109Y-56922120D01*
X8029310Y-56944407D01*
X8058916Y-56964002D01*
X8093373Y-56981104D01*
X8133127Y-56995910D01*
X8178624Y-57008618D01*
X8230310Y-57019425D01*
X8275605Y-57026720D01*
X8299433Y-57030011D01*
X8323096Y-57032995D01*
X8347305Y-57035725D01*
X8372770Y-57038253D01*
X8400201Y-57040633D01*
X8430306Y-57042917D01*
X8463796Y-57045158D01*
X8501381Y-57047408D01*
X8543769Y-57049721D01*
X8591672Y-57052149D01*
X8645798Y-57054745D01*
X8663760Y-57055583D01*
X8739372Y-57059225D01*
X8809256Y-57062893D01*
X8874838Y-57066688D01*
X8937547Y-57070715D01*
X8998808Y-57075077D01*
X9060047Y-57079877D01*
X9122693Y-57085219D01*
X9188171Y-57091205D01*
X9257908Y-57097940D01*
X9282662Y-57100400D01*
X9333573Y-57105392D01*
X9383453Y-57110090D01*
X9431323Y-57114410D01*
X9476204Y-57118267D01*
X9517116Y-57121580D01*
X9553081Y-57124263D01*
X9583121Y-57126233D01*
X9588535Y-57126546D01*
X9608063Y-57127346D01*
X9632422Y-57127888D01*
X9660114Y-57128182D01*
X9689637Y-57128235D01*
X9719493Y-57128057D01*
X9748181Y-57127657D01*
X9774202Y-57127044D01*
X9796057Y-57126226D01*
X9812126Y-57125223D01*
X9871425Y-57118356D01*
X9924489Y-57108384D01*
X9971587Y-57095190D01*
X10012986Y-57078660D01*
X10048951Y-57058677D01*
X10079751Y-57035124D01*
X10105652Y-57007887D01*
X10116822Y-56992890D01*
X10135926Y-56959266D01*
X10151168Y-56920129D01*
X10162557Y-56875983D01*
X10170102Y-56827333D01*
X10173812Y-56774684D01*
X10173697Y-56718538D01*
X10169766Y-56659400D01*
X10162028Y-56597775D01*
X10150492Y-56534167D01*
X10135167Y-56469079D01*
X10116064Y-56403017D01*
X10105422Y-56370723D01*
X10085402Y-56316351D01*
X10062857Y-56262222D01*
X10038683Y-56210314D01*
X10013775Y-56162602D01*
X10001714Y-56141593D01*
X9959836Y-56077367D01*
X9913703Y-56018573D01*
X9863204Y-55965145D01*
X9808229Y-55917014D01*
X9748667Y-55874113D01*
X9684408Y-55836375D01*
X9615339Y-55803732D01*
X9541351Y-55776117D01*
X9462334Y-55753462D01*
X9378175Y-55735699D01*
X9321562Y-55726867D01*
X9245267Y-55718399D01*
X9163290Y-55712876D01*
X9076447Y-55710254D01*
X8985556Y-55710489D01*
X8891434Y-55713536D01*
X8794898Y-55719349D01*
X8696766Y-55727884D01*
X8597855Y-55739098D01*
X8498983Y-55752944D01*
X8400965Y-55769378D01*
X8343577Y-55780328D01*
X8277140Y-55794239D01*
X8217463Y-55808128D01*
X8164154Y-55822151D01*
X8116820Y-55836464D01*
X8075068Y-55851224D01*
X8038505Y-55866587D01*
X8006741Y-55882709D01*
X7979380Y-55899746D01*
X7956032Y-55917854D01*
X7936303Y-55937190D01*
X7929550Y-55945043D01*
X7907577Y-55976568D01*
X7888972Y-56013452D01*
X7873694Y-56055866D01*
X7861705Y-56103979D01*
X7852964Y-56157964D01*
X7847431Y-56217991D01*
X7845068Y-56284230D01*
X7844978Y-56307945D01*
X7041352Y-56307945D01*
X7028859Y-56215163D01*
X7011867Y-56096669D01*
X6994117Y-55980238D01*
X6975714Y-55866610D01*
X6956757Y-55756522D01*
X6937352Y-55650716D01*
X6917598Y-55549929D01*
X6897600Y-55454903D01*
X6879740Y-55376032D01*
X6862067Y-55303319D01*
X6843291Y-55231070D01*
X6823189Y-55158619D01*
X6801542Y-55085300D01*
X6778129Y-55010447D01*
X6752729Y-54933394D01*
X6725121Y-54853474D01*
X6695086Y-54770023D01*
X6662403Y-54682373D01*
X6626850Y-54589860D01*
X6588208Y-54491816D01*
X6580576Y-54472701D01*
X6508294Y-54294850D01*
X6464475Y-54190570D01*
X7387227Y-54190570D01*
X7387617Y-54250776D01*
X7391809Y-54313157D01*
X7399646Y-54376851D01*
X7410970Y-54440996D01*
X7425626Y-54504733D01*
X7443455Y-54567201D01*
X7464300Y-54627537D01*
X7488004Y-54684882D01*
X7514409Y-54738375D01*
X7543360Y-54787154D01*
X7550313Y-54797544D01*
X7581176Y-54837589D01*
X7615536Y-54872527D01*
X7653640Y-54902448D01*
X7695734Y-54927441D01*
X7742063Y-54947596D01*
X7792874Y-54963003D01*
X7848412Y-54973751D01*
X7908924Y-54979929D01*
X7974656Y-54981627D01*
X8045853Y-54978934D01*
X8048436Y-54978762D01*
X8120226Y-54972683D01*
X8194403Y-54964063D01*
X8270351Y-54953077D01*
X8347455Y-54939902D01*
X8425099Y-54924713D01*
X8502668Y-54907685D01*
X8579548Y-54888994D01*
X8655121Y-54868817D01*
X8728775Y-54847328D01*
X8799892Y-54824703D01*
X8867857Y-54801118D01*
X8932056Y-54776749D01*
X8991873Y-54751771D01*
X9046692Y-54726360D01*
X9095899Y-54700691D01*
X9138877Y-54674941D01*
X9157932Y-54662024D01*
X9194713Y-54632962D01*
X9225103Y-54602213D01*
X9249664Y-54568877D01*
X9268961Y-54532052D01*
X9283555Y-54490835D01*
X9294010Y-54444326D01*
X9294051Y-54444086D01*
X9296856Y-54422235D01*
X9298853Y-54394877D01*
X9300043Y-54363613D01*
X9300427Y-54330046D01*
X9300006Y-54295777D01*
X9298782Y-54262408D01*
X9296755Y-54231541D01*
X9293927Y-54204778D01*
X9293876Y-54204396D01*
X9283432Y-54137422D01*
X9270137Y-54069770D01*
X9254221Y-54001965D01*
X9235916Y-53934533D01*
X9215452Y-53868000D01*
X9193060Y-53802891D01*
X9168971Y-53739731D01*
X9143416Y-53679046D01*
X9116626Y-53621362D01*
X9088831Y-53567204D01*
X9060262Y-53517098D01*
X9031150Y-53471569D01*
X9001725Y-53431142D01*
X8972220Y-53396344D01*
X8942864Y-53367700D01*
X8917902Y-53348380D01*
X8893254Y-53333745D01*
X8868136Y-53323245D01*
X8841213Y-53316609D01*
X8811148Y-53313564D01*
X8776605Y-53313839D01*
X8755435Y-53315288D01*
X8717366Y-53319414D01*
X8678841Y-53325440D01*
X8639065Y-53333584D01*
X8597245Y-53344068D01*
X8552584Y-53357113D01*
X8504289Y-53372939D01*
X8451564Y-53391768D01*
X8393615Y-53413819D01*
X8376649Y-53420481D01*
X8312226Y-53446653D01*
X8243330Y-53475970D01*
X8171436Y-53507739D01*
X8098022Y-53541270D01*
X8024562Y-53575871D01*
X7952531Y-53610851D01*
X7883406Y-53645518D01*
X7818661Y-53679181D01*
X7779272Y-53700390D01*
X7719989Y-53733540D01*
X7667103Y-53764729D01*
X7620237Y-53794296D01*
X7579013Y-53822580D01*
X7543054Y-53849920D01*
X7511981Y-53876655D01*
X7485418Y-53903125D01*
X7462987Y-53929668D01*
X7444309Y-53956624D01*
X7429008Y-53984332D01*
X7416706Y-54013131D01*
X7410444Y-54031603D01*
X7398484Y-54080122D01*
X7390797Y-54133398D01*
X7387227Y-54190570D01*
X6464475Y-54190570D01*
X6436164Y-54123194D01*
X6363729Y-53956797D01*
X6290531Y-53794724D01*
X6216112Y-53636041D01*
X6140017Y-53479812D01*
X6061787Y-53325102D01*
X5980964Y-53170977D01*
X5897093Y-53016503D01*
X5809714Y-52860742D01*
X5718372Y-52702762D01*
X5697159Y-52666700D01*
X5633240Y-52559309D01*
X5571770Y-52457993D01*
X5512404Y-52362239D01*
X5454800Y-52271534D01*
X5441104Y-52250530D01*
X6469484Y-52250530D01*
X6470606Y-52277610D01*
X6472125Y-52292241D01*
X6483069Y-52349741D01*
X6500314Y-52408649D01*
X6523334Y-52468234D01*
X6551603Y-52527767D01*
X6584594Y-52586518D01*
X6621781Y-52643757D01*
X6662637Y-52698755D01*
X6706635Y-52750781D01*
X6753249Y-52799106D01*
X6801954Y-52842999D01*
X6852220Y-52881733D01*
X6903524Y-52914575D01*
X6932267Y-52930001D01*
X6970189Y-52946389D01*
X7009793Y-52958349D01*
X7051878Y-52965967D01*
X7097236Y-52969326D01*
X7146665Y-52968511D01*
X7200960Y-52963607D01*
X7222042Y-52960830D01*
X7273630Y-52952343D01*
X7330458Y-52940857D01*
X7391423Y-52926682D01*
X7455422Y-52910131D01*
X7521353Y-52891515D01*
X7588113Y-52871147D01*
X7654600Y-52849339D01*
X7719710Y-52826403D01*
X7782342Y-52802649D01*
X7785493Y-52801405D01*
X7814662Y-52789439D01*
X7847120Y-52775402D01*
X7881601Y-52759898D01*
X7916839Y-52743533D01*
X7951568Y-52726909D01*
X7984523Y-52710631D01*
X8014439Y-52695305D01*
X8040050Y-52681533D01*
X8057380Y-52671567D01*
X8106482Y-52639919D01*
X8151066Y-52606861D01*
X8190571Y-52572895D01*
X8224439Y-52538526D01*
X8252111Y-52504260D01*
X8265702Y-52483635D01*
X8279058Y-52459499D01*
X8288479Y-52437311D01*
X8294645Y-52414708D01*
X8298238Y-52389323D01*
X8299712Y-52365579D01*
X8300113Y-52344060D01*
X8299765Y-52322850D01*
X8298742Y-52304407D01*
X8297529Y-52293560D01*
X8288724Y-52254075D01*
X8274271Y-52211417D01*
X8254531Y-52166293D01*
X8229867Y-52119411D01*
X8200642Y-52071480D01*
X8167217Y-52023206D01*
X8142723Y-51991111D01*
X8125808Y-51970928D01*
X8104637Y-51947477D01*
X8080487Y-51922030D01*
X8054631Y-51895858D01*
X8028345Y-51870235D01*
X8002903Y-51846433D01*
X7979579Y-51825723D01*
X7964366Y-51813083D01*
X7897469Y-51763593D01*
X7829563Y-51721165D01*
X7760563Y-51685770D01*
X7690383Y-51657373D01*
X7618937Y-51635945D01*
X7546139Y-51621453D01*
X7471903Y-51613865D01*
X7424442Y-51612615D01*
X7357536Y-51615652D01*
X7287654Y-51624231D01*
X7215678Y-51637990D01*
X7142488Y-51656566D01*
X7068966Y-51679598D01*
X6995992Y-51706724D01*
X6924448Y-51737580D01*
X6855213Y-51771805D01*
X6789170Y-51809036D01*
X6727199Y-51848912D01*
X6670181Y-51891069D01*
X6618998Y-51935147D01*
X6603357Y-51950232D01*
X6565112Y-51991539D01*
X6533585Y-52032898D01*
X6508363Y-52074965D01*
X6489034Y-52118391D01*
X6479879Y-52146110D01*
X6475284Y-52167180D01*
X6471941Y-52193090D01*
X6469968Y-52221615D01*
X6469484Y-52250530D01*
X5441104Y-52250530D01*
X5398614Y-52185365D01*
X5343503Y-52103220D01*
X5289123Y-52024585D01*
X5235132Y-51948947D01*
X5181186Y-51875793D01*
X5126942Y-51804611D01*
X5081462Y-51746677D01*
X5026793Y-51679003D01*
X4968336Y-51608582D01*
X4906624Y-51535986D01*
X4842195Y-51461783D01*
X4775584Y-51386543D01*
X4707327Y-51310835D01*
X4637959Y-51235229D01*
X4568017Y-51160293D01*
X4498037Y-51086598D01*
X4428553Y-51014712D01*
X4360103Y-50945206D01*
X4293222Y-50878647D01*
X4228445Y-50815607D01*
X4166309Y-50756653D01*
X4107349Y-50702356D01*
X4054197Y-50655109D01*
X4024815Y-50629725D01*
X3996247Y-50605517D01*
X3967985Y-50582113D01*
X3939520Y-50559141D01*
X3910345Y-50536231D01*
X3879950Y-50513011D01*
X3847828Y-50489109D01*
X3824504Y-50472168D01*
X4928100Y-50472168D01*
X4928726Y-50483639D01*
X4931143Y-50495296D01*
X4934296Y-50505734D01*
X4943777Y-50532867D01*
X4955051Y-50562393D01*
X4967257Y-50592234D01*
X4979533Y-50620313D01*
X4991015Y-50644552D01*
X4995713Y-50653690D01*
X5021936Y-50698913D01*
X5054217Y-50747310D01*
X5092592Y-50798924D01*
X5137096Y-50853798D01*
X5187764Y-50911976D01*
X5244633Y-50973502D01*
X5307736Y-51038418D01*
X5315074Y-51045782D01*
X5374626Y-51104169D01*
X5430781Y-51156619D01*
X5483823Y-51203328D01*
X5534038Y-51244492D01*
X5581713Y-51280307D01*
X5627134Y-51310970D01*
X5670586Y-51336676D01*
X5712356Y-51357622D01*
X5752729Y-51374005D01*
X5791992Y-51386019D01*
X5820023Y-51392127D01*
X5846599Y-51395515D01*
X5877316Y-51397162D01*
X5909374Y-51397066D01*
X5939974Y-51395224D01*
X5962774Y-51392278D01*
X6003495Y-51382907D01*
X6048046Y-51368449D01*
X6095722Y-51349351D01*
X6145818Y-51326057D01*
X6197628Y-51299017D01*
X6250449Y-51268676D01*
X6303574Y-51235480D01*
X6356299Y-51199878D01*
X6407919Y-51162315D01*
X6457730Y-51123238D01*
X6505025Y-51083094D01*
X6549101Y-51042330D01*
X6589251Y-51001392D01*
X6602358Y-50986980D01*
X6624445Y-50961499D01*
X6642237Y-50939308D01*
X6656780Y-50918931D01*
X6669119Y-50898896D01*
X6680298Y-50877727D01*
X6681357Y-50875565D01*
X6687711Y-50862286D01*
X6691922Y-50852149D01*
X6694432Y-50843024D01*
X6695680Y-50832780D01*
X6696108Y-50819288D01*
X6696155Y-50804015D01*
X6696018Y-50785682D01*
X6695368Y-50772385D01*
X6693842Y-50762011D01*
X6691077Y-50752441D01*
X6686712Y-50741561D01*
X6684660Y-50736875D01*
X6671694Y-50710441D01*
X6656025Y-50684063D01*
X6637056Y-50656966D01*
X6614193Y-50628372D01*
X6586839Y-50597506D01*
X6554399Y-50563590D01*
X6542563Y-50551683D01*
X6479523Y-50492168D01*
X6410504Y-50433232D01*
X6336675Y-50375705D01*
X6259207Y-50320415D01*
X6179271Y-50268193D01*
X6098038Y-50219865D01*
X6016679Y-50176262D01*
X6002126Y-50168987D01*
X5948361Y-50143430D01*
X5898807Y-50122225D01*
X5852215Y-50105103D01*
X5807335Y-50091796D01*
X5762915Y-50082034D01*
X5717705Y-50075549D01*
X5670456Y-50072071D01*
X5619916Y-50071331D01*
X5564835Y-50073062D01*
X5557887Y-50073421D01*
X5524260Y-50075449D01*
X5486595Y-50078108D01*
X5446322Y-50081266D01*
X5404869Y-50084795D01*
X5363665Y-50088564D01*
X5324141Y-50092444D01*
X5287724Y-50096303D01*
X5255845Y-50100014D01*
X5233986Y-50102868D01*
X5200823Y-50107909D01*
X5173693Y-50113093D01*
X5151480Y-50118842D01*
X5133066Y-50125578D01*
X5117336Y-50133723D01*
X5103173Y-50143699D01*
X5089460Y-50155929D01*
X5086866Y-50158490D01*
X5070342Y-50176549D01*
X5054049Y-50197623D01*
X5037625Y-50222336D01*
X5020712Y-50251312D01*
X5002947Y-50285174D01*
X4983971Y-50324548D01*
X4963424Y-50370056D01*
X4959537Y-50378933D01*
X4947907Y-50406047D01*
X4939169Y-50427823D01*
X4933102Y-50445365D01*
X4929486Y-50459779D01*
X4928100Y-50472168D01*
X3824504Y-50472168D01*
X3813470Y-50464154D01*
X3776367Y-50437774D01*
X3736012Y-50409599D01*
X3691895Y-50379256D01*
X3643509Y-50346374D01*
X3590345Y-50310581D01*
X3531895Y-50271507D01*
X3501479Y-50251255D01*
X3461303Y-50224500D01*
X3424429Y-50199858D01*
X3390142Y-50176833D01*
X3357730Y-50154931D01*
X3326479Y-50133655D01*
X3295678Y-50112512D01*
X3264612Y-50091005D01*
X3232569Y-50068641D01*
X3198836Y-50044923D01*
X3162700Y-50019356D01*
X3123448Y-49991446D01*
X3080367Y-49960698D01*
X3032744Y-49926615D01*
X2993478Y-49898468D01*
X2959855Y-49874423D01*
X2928008Y-49851820D01*
X2897522Y-49830404D01*
X2867982Y-49809919D01*
X2838971Y-49790111D01*
X2810075Y-49770724D01*
X2780877Y-49751502D01*
X2750962Y-49732190D01*
X2719915Y-49712533D01*
X2687321Y-49692276D01*
X2652762Y-49671163D01*
X2615825Y-49648939D01*
X2576093Y-49625349D01*
X2533150Y-49600136D01*
X2486582Y-49573047D01*
X2435973Y-49543825D01*
X2380907Y-49512216D01*
X2320969Y-49477963D01*
X2255743Y-49440812D01*
X2184813Y-49400507D01*
X2161718Y-49387398D01*
X2133108Y-49371083D01*
X2103762Y-49354205D01*
X2074954Y-49337505D01*
X2047959Y-49321729D01*
X2024050Y-49307619D01*
X2004504Y-49295917D01*
X1997155Y-49291442D01*
X1926556Y-49246814D01*
X1858535Y-49201082D01*
X1792294Y-49153599D01*
X1727034Y-49103720D01*
X1675491Y-49061805D01*
X2970320Y-49061805D01*
X2970466Y-49063374D01*
X2976631Y-49067940D01*
X2988449Y-49075282D01*
X3005551Y-49085174D01*
X3027568Y-49097394D01*
X3040081Y-49104185D01*
X3094509Y-49133981D01*
X3146628Y-49163478D01*
X3196954Y-49193053D01*
X3246002Y-49223082D01*
X3294289Y-49253941D01*
X3342329Y-49286007D01*
X3390640Y-49319654D01*
X3439736Y-49355260D01*
X3490133Y-49393199D01*
X3542347Y-49433849D01*
X3596894Y-49477585D01*
X3654290Y-49524783D01*
X3715051Y-49575819D01*
X3779692Y-49631070D01*
X3848728Y-49690910D01*
X3868169Y-49707886D01*
X3925199Y-49757658D01*
X3977233Y-49802855D01*
X4024571Y-49843713D01*
X4067511Y-49880468D01*
X4106353Y-49913357D01*
X4141395Y-49942616D01*
X4172936Y-49968482D01*
X4201276Y-49991192D01*
X4226713Y-50010981D01*
X4249546Y-50028088D01*
X4270075Y-50042748D01*
X4288598Y-50055197D01*
X4305414Y-50065673D01*
X4320823Y-50074412D01*
X4335122Y-50081651D01*
X4347549Y-50087186D01*
X4362870Y-50093048D01*
X4373459Y-50095252D01*
X4380918Y-50093469D01*
X4386846Y-50087374D01*
X4392119Y-50078082D01*
X4396633Y-50068333D01*
X4403221Y-50052959D01*
X4411504Y-50032934D01*
X4421104Y-50009230D01*
X4431643Y-49982820D01*
X4442741Y-49954676D01*
X4454021Y-49925772D01*
X4465104Y-49897079D01*
X4475612Y-49869572D01*
X4485165Y-49844222D01*
X4493387Y-49822003D01*
X4499897Y-49803886D01*
X4504318Y-49790845D01*
X4505805Y-49785885D01*
X4507557Y-49766525D01*
X4503654Y-49743341D01*
X4494263Y-49716662D01*
X4479554Y-49686818D01*
X4459696Y-49654138D01*
X4434858Y-49618953D01*
X4405208Y-49581593D01*
X4395112Y-49569675D01*
X4350152Y-49521239D01*
X4300921Y-49475737D01*
X4247000Y-49432892D01*
X4187965Y-49392430D01*
X4123395Y-49354073D01*
X4052867Y-49317546D01*
X3975961Y-49282572D01*
X3923469Y-49260983D01*
X3864466Y-49238488D01*
X3805040Y-49217651D01*
X3744569Y-49198335D01*
X3682428Y-49180403D01*
X3617996Y-49163716D01*
X3550648Y-49148136D01*
X3479763Y-49133527D01*
X3404716Y-49119751D01*
X3324886Y-49106670D01*
X3239648Y-49094146D01*
X3148381Y-49082042D01*
X3070394Y-49072543D01*
X3045183Y-49069619D01*
X3021945Y-49066997D01*
X3001743Y-49064792D01*
X2985641Y-49063117D01*
X2974703Y-49062088D01*
X2970320Y-49061805D01*
X1675491Y-49061805D01*
X1661956Y-49050798D01*
X1596263Y-48994190D01*
X1529155Y-48933248D01*
X1459835Y-48867328D01*
X1401383Y-48809707D01*
X1371696Y-48779871D01*
X1346775Y-48754390D01*
X1326210Y-48732681D01*
X1309590Y-48714160D01*
X1296505Y-48698243D01*
X1286543Y-48684347D01*
X1279296Y-48671886D01*
X1274352Y-48660279D01*
X1271300Y-48648941D01*
X1269730Y-48637288D01*
X1269233Y-48624736D01*
X1269226Y-48621762D01*
X1270393Y-48601500D01*
X1274285Y-48584014D01*
X1281676Y-48567609D01*
X1293343Y-48550593D01*
X1310058Y-48531271D01*
X1311162Y-48530083D01*
X1338684Y-48504377D01*
X1371058Y-48481220D01*
X1408532Y-48460533D01*
X1451353Y-48442237D01*
X1499768Y-48426253D01*
X1554024Y-48412504D01*
X1614367Y-48400911D01*
X1681046Y-48391394D01*
X1754305Y-48383876D01*
X1776318Y-48382096D01*
X1802680Y-48380194D01*
X1829211Y-48378523D01*
X1856247Y-48377088D01*
X1884126Y-48375897D01*
X1913182Y-48374956D01*
X1943752Y-48374269D01*
X1976172Y-48373843D01*
X2010778Y-48373684D01*
X2047906Y-48373798D01*
G37*
%TD.AperFunction*%
%TD*%
D11*
%TO.P,C8,1*%
%TO.N,GND*%
X23450000Y-12200000D03*
%TO.P,C8,2*%
%TO.N,+3V3*%
X23450000Y-10300000D03*
%TD*%
D12*
%TO.P,U6,1,OSCI*%
%TO.N,Net-(U6-OSCI)*%
X38175000Y-54045000D03*
%TO.P,U6,2,OSCO*%
%TO.N,Net-(U6-OSCO)*%
X38175000Y-55315000D03*
%TO.P,U6,3,VBAT*%
%TO.N,Net-(BT1-+)*%
X38175000Y-56585000D03*
%TO.P,U6,4,VSS*%
%TO.N,GND*%
X38175000Y-57855000D03*
%TO.P,U6,5,SDA*%
%TO.N,/SDA*%
X43125000Y-57855000D03*
%TO.P,U6,6,SCL*%
%TO.N,/SCL*%
X43125000Y-56585000D03*
%TO.P,U6,7,~{INT1}/CLKOUT*%
%TO.N,/RTC_INT*%
X43125000Y-55315000D03*
%TO.P,U6,8,VDD*%
%TO.N,Net-(U6-VDD)*%
X43125000Y-54045000D03*
%TD*%
D13*
%TO.P,J6,1,Pin_1*%
%TO.N,/RTX_(NC)*%
X62000000Y-55950000D03*
D14*
%TO.P,J6,2,Pin_2*%
%TO.N,/UART_RX*%
X62000000Y-53410000D03*
%TO.P,J6,3,Pin_3*%
%TO.N,/UART_TX*%
X62000000Y-50870000D03*
%TO.P,J6,4,Pin_4*%
%TO.N,/VCC_(NC)*%
X62000000Y-48330000D03*
%TO.P,J6,5,Pin_5*%
%TO.N,/CTS_(NC)*%
X62000000Y-45790000D03*
%TO.P,J6,6,Pin_6*%
%TO.N,GND*%
X62000000Y-43250000D03*
%TD*%
D15*
%TO.P,H3,1,1*%
%TO.N,GND*%
X137000000Y-3000000D03*
D16*
X137000000Y-3000000D03*
%TD*%
D17*
%TO.P,SW49,1,1*%
%TO.N,/Button Matrix/R7*%
X55250000Y-89000000D03*
%TO.P,SW49,2,2*%
%TO.N,/Button Matrix/C7*%
X57250000Y-89000000D03*
D18*
%TO.P,SW49,MP*%
%TO.N,N/C*%
X52850000Y-86750000D03*
X59650000Y-86750000D03*
%TD*%
D19*
%TO.P,R14,1*%
%TO.N,Net-(J1-CC1)*%
X10030000Y-13650000D03*
%TO.P,R14,2*%
%TO.N,GND*%
X11050000Y-13650000D03*
%TD*%
%TO.P,R3,1*%
%TO.N,+3V3*%
X56140000Y-36650000D03*
%TO.P,R3,2*%
%TO.N,Net-(R1-Pad2)*%
X57160000Y-36650000D03*
%TD*%
D20*
%TO.P,R20,1*%
%TO.N,/SCL*%
X50050000Y-40630000D03*
%TO.P,R20,2*%
%TO.N,+3V3*%
X50050000Y-41650000D03*
%TD*%
D21*
%TO.P,R10,1*%
%TO.N,Net-(U4-GPIO4)*%
X31050000Y-36162500D03*
%TO.P,R10,2*%
%TO.N,Net-(D1-A)*%
X31050000Y-37812500D03*
%TD*%
D22*
%TO.P,J1,A1,GND*%
%TO.N,GND*%
X7850000Y-12370000D03*
%TO.P,J1,A4,VBUS*%
%TO.N,+5V*%
X7850000Y-13170000D03*
D23*
%TO.P,J1,A5,CC1*%
%TO.N,Net-(J1-CC1)*%
X7850000Y-14320000D03*
%TO.P,J1,A6,D+*%
%TO.N,/USB_D+*%
X7850000Y-15320000D03*
%TO.P,J1,A7,D-*%
%TO.N,/USB_D-*%
X7850000Y-15820000D03*
%TO.P,J1,A8,SBU1*%
%TO.N,unconnected-(J1-SBU1-PadA8)*%
X7850000Y-16820000D03*
D22*
%TO.P,J1,A9,VBUS*%
%TO.N,+5V*%
X7850000Y-17970000D03*
%TO.P,J1,A12,GND*%
%TO.N,GND*%
X7850000Y-18770000D03*
%TO.P,J1,B1,GND*%
X7850000Y-18770000D03*
%TO.P,J1,B4,VBUS*%
%TO.N,+5V*%
X7850000Y-17970000D03*
D23*
%TO.P,J1,B5,CC2*%
%TO.N,Net-(J1-CC2)*%
X7850000Y-17320000D03*
%TO.P,J1,B6,D+*%
%TO.N,/USB_D+*%
X7850000Y-16320000D03*
%TO.P,J1,B7,D-*%
%TO.N,/USB_D-*%
X7850000Y-14820000D03*
%TO.P,J1,B8,SBU2*%
%TO.N,unconnected-(J1-SBU2-PadB8)*%
X7850000Y-13820000D03*
D22*
%TO.P,J1,B9,VBUS*%
%TO.N,+5V*%
X7850000Y-13170000D03*
%TO.P,J1,B12,GND*%
%TO.N,GND*%
X7850000Y-12370000D03*
D24*
%TO.P,J1,S1,SHIELD*%
X7250000Y-11250000D03*
D25*
X3050000Y-11250000D03*
D24*
X7250000Y-19890000D03*
D25*
X3050000Y-19890000D03*
%TD*%
D26*
%TO.P,R6,1*%
%TO.N,Net-(U2B-EN)*%
X29510000Y-68750000D03*
%TO.P,R6,2*%
%TO.N,GND*%
X28490000Y-68750000D03*
%TD*%
D27*
%TO.P,U1,1,GND*%
%TO.N,GND*%
X19850000Y-12150000D03*
%TO.P,U1,2,VO*%
%TO.N,+3V3*%
X19850000Y-10250000D03*
%TO.P,U1,3,VI*%
%TO.N,+5V*%
X17575000Y-11200000D03*
%TD*%
D28*
%TO.P,C21,1*%
%TO.N,+3V3*%
X46445000Y-44085000D03*
%TO.P,C21,2*%
%TO.N,GND*%
X47405000Y-44085000D03*
%TD*%
D29*
%TO.P,C12,1*%
%TO.N,/RESET*%
X38130000Y-18050000D03*
%TO.P,C12,2*%
%TO.N,GND*%
X37170000Y-18050000D03*
%TD*%
%TO.P,C14,1*%
%TO.N,GND*%
X50930000Y-26850000D03*
%TO.P,C14,2*%
%TO.N,+3V3*%
X49970000Y-26850000D03*
%TD*%
D19*
%TO.P,R11,1*%
%TO.N,+3V3*%
X19490000Y-38750000D03*
%TO.P,R11,2*%
%TO.N,/PHOTORESISTOR*%
X20510000Y-38750000D03*
%TD*%
D20*
%TO.P,R36,1*%
%TO.N,/SPI_MOSI*%
X20050000Y-25940000D03*
%TO.P,R36,2*%
%TO.N,+3V3*%
X20050000Y-26960000D03*
%TD*%
%TO.P,R27,1*%
%TO.N,/Button Matrix/C4*%
X65250000Y-52490000D03*
%TO.P,R27,2*%
%TO.N,+3V3*%
X65250000Y-53510000D03*
%TD*%
D30*
%TO.P,J5,1,DAT2*%
%TO.N,Net-(J5-DAT2)*%
X16950000Y-32550000D03*
%TO.P,J5,2,DAT3/CD*%
%TO.N,/SD_CS*%
X16950000Y-31450000D03*
%TO.P,J5,3,CMD*%
%TO.N,/SPI_MISO*%
X16950000Y-30350000D03*
%TO.P,J5,4,VDD*%
%TO.N,+3V3*%
X16950000Y-29250000D03*
%TO.P,J5,5,CLK*%
%TO.N,/SPI_SCK*%
X16950000Y-28150000D03*
%TO.P,J5,6,VSS*%
%TO.N,GND*%
X16950000Y-27050000D03*
%TO.P,J5,7,DAT0*%
%TO.N,/SPI_MOSI*%
X16950000Y-25950000D03*
%TO.P,J5,8,DAT1*%
%TO.N,Net-(J5-DAT1)*%
X16950000Y-24850000D03*
%TO.P,J5,9,SHIELD*%
%TO.N,GND*%
X16950000Y-23900000D03*
D31*
%TO.P,J5,10*%
%TO.N,N/C*%
X6450000Y-22950000D03*
D32*
%TO.P,J5,11*%
X12650000Y-22950000D03*
D33*
X2300000Y-22950000D03*
D32*
X16950000Y-34100000D03*
D34*
X1850000Y-36450000D03*
%TD*%
D17*
%TO.P,RV1,1,1*%
%TO.N,+3V3*%
X20600000Y-60500000D03*
%TO.P,RV1,2,2*%
%TO.N,/BRIGHTNESS_POT*%
X22600000Y-60500000D03*
%TO.P,RV1,3,3*%
%TO.N,GND*%
X24600000Y-60500000D03*
D18*
%TO.P,RV1,MP*%
%TO.N,N/C*%
X18200000Y-58250000D03*
X27000000Y-58250000D03*
%TD*%
D26*
%TO.P,R28,1*%
%TO.N,/Button Matrix/C5*%
X67010000Y-41750000D03*
%TO.P,R28,2*%
%TO.N,+3V3*%
X65990000Y-41750000D03*
%TD*%
D28*
%TO.P,C7,1*%
%TO.N,GND*%
X45370000Y-37250000D03*
%TO.P,C7,2*%
%TO.N,+3V3*%
X46330000Y-37250000D03*
%TD*%
D35*
%TO.P,R31,1*%
%TO.N,Net-(U6-VDD)*%
X47900000Y-53960000D03*
%TO.P,R31,2*%
%TO.N,+3V3*%
X47900000Y-52940000D03*
%TD*%
D36*
%TO.P,C5,1*%
%TO.N,+5V*%
X41175000Y-93500000D03*
%TO.P,C5,2*%
%TO.N,GND*%
X46250000Y-93500000D03*
%TD*%
D37*
%TO.P,C22,1*%
%TO.N,Net-(U6-VDD)*%
X45900000Y-53975000D03*
%TO.P,C22,2*%
%TO.N,GND*%
X45900000Y-52425000D03*
%TD*%
D38*
%TO.P,C1,1*%
%TO.N,GND*%
X13300000Y-10450000D03*
%TO.P,C1,2*%
%TO.N,+5V*%
X15200000Y-10450000D03*
%TD*%
D21*
%TO.P,R4,1*%
%TO.N,Net-(U4-USB_DP)*%
X43850000Y-31600000D03*
%TO.P,R4,2*%
%TO.N,/USB_D+*%
X43850000Y-33250000D03*
%TD*%
D38*
%TO.P,C20,1*%
%TO.N,GND*%
X37700000Y-29050000D03*
%TO.P,C20,2*%
%TO.N,+3V3*%
X39600000Y-29050000D03*
%TD*%
D26*
%TO.P,R38,1*%
%TO.N,+3V3*%
X9750000Y-39750000D03*
%TO.P,R38,2*%
%TO.N,/BUTTON*%
X8730000Y-39750000D03*
%TD*%
D15*
%TO.P,H5,1,1*%
%TO.N,GND*%
X65000000Y-97000000D03*
D16*
X65000000Y-97000000D03*
%TD*%
D19*
%TO.P,R37,1*%
%TO.N,Net-(J5-DAT1)*%
X19940000Y-24250000D03*
%TO.P,R37,2*%
%TO.N,+3V3*%
X20960000Y-24250000D03*
%TD*%
D39*
%TO.P,D1,1,K*%
%TO.N,GND*%
X31050000Y-41725000D03*
%TO.P,D1,2,A*%
%TO.N,Net-(D1-A)*%
X31050000Y-39850000D03*
%TD*%
D40*
%TO.P,C18,1*%
%TO.N,GND*%
X44650000Y-16545000D03*
%TO.P,C18,2*%
%TO.N,+3V3*%
X44650000Y-17505000D03*
%TD*%
D12*
%TO.P,U2,1,EN*%
%TO.N,Net-(U2A-EN)*%
X31525000Y-64940000D03*
%TO.P,U2,2,D*%
%TO.N,/RGB_1*%
X31525000Y-66210000D03*
%TO.P,U2,3,O*%
%TO.N,/User Interface/RGB_1_BUF*%
X31525000Y-67480000D03*
%TO.P,U2,4,EN*%
%TO.N,Net-(U2B-EN)*%
X31525000Y-68750000D03*
%TO.P,U2,5,D*%
%TO.N,/RGB_2*%
X31525000Y-70020000D03*
%TO.P,U2,6,O*%
%TO.N,/User Interface/RGB_2_BUF*%
X31525000Y-71290000D03*
%TO.P,U2,7,GND*%
%TO.N,GND*%
X31525000Y-72560000D03*
%TO.P,U2,8,O*%
%TO.N,/User Interface/RGB_3_BUF*%
X36475000Y-72560000D03*
%TO.P,U2,9,D*%
%TO.N,/RGB_3*%
X36475000Y-71290000D03*
%TO.P,U2,10,EN*%
%TO.N,Net-(U2C-EN)*%
X36475000Y-70020000D03*
%TO.P,U2,11,O*%
%TO.N,unconnected-(U2D-O-Pad11)*%
X36475000Y-68750000D03*
%TO.P,U2,12,D*%
%TO.N,GND*%
X36475000Y-67480000D03*
%TO.P,U2,13,EN*%
%TO.N,+3V3*%
X36475000Y-66210000D03*
%TO.P,U2,14,VCC*%
%TO.N,+5V*%
X36475000Y-64940000D03*
%TD*%
D35*
%TO.P,R35,1*%
%TO.N,/SPI_SCK*%
X23650000Y-26960000D03*
%TO.P,R35,2*%
%TO.N,+3V3*%
X23650000Y-25940000D03*
%TD*%
D36*
%TO.P,C4,1*%
%TO.N,+5V*%
X26462500Y-93500000D03*
%TO.P,C4,2*%
%TO.N,GND*%
X31537500Y-93500000D03*
%TD*%
D15*
%TO.P,H6,1,1*%
%TO.N,GND*%
X137000000Y-97000000D03*
D16*
X137000000Y-97000000D03*
%TD*%
D19*
%TO.P,R16,1*%
%TO.N,GND*%
X34615000Y-44085000D03*
%TO.P,R16,2*%
%TO.N,Net-(U5-A0)*%
X35635000Y-44085000D03*
%TD*%
D41*
%TO.P,U4,1,IOVDD*%
%TO.N,+3V3*%
X48087500Y-26050000D03*
%TO.P,U4,2,GPIO0*%
%TO.N,/UART_TX*%
X48087500Y-25650000D03*
%TO.P,U4,3,GPIO1*%
%TO.N,/UART_RX*%
X48087500Y-25250000D03*
%TO.P,U4,4,GPIO2*%
%TO.N,/SDA*%
X48087500Y-24850000D03*
%TO.P,U4,5,GPIO3*%
%TO.N,/SCL*%
X48087500Y-24450000D03*
%TO.P,U4,6,GPIO4*%
%TO.N,Net-(U4-GPIO4)*%
X48087500Y-24050000D03*
%TO.P,U4,7,GPIO5*%
%TO.N,/RGB_1*%
X48087500Y-23650000D03*
%TO.P,U4,8,GPIO6*%
%TO.N,/RGB_2*%
X48087500Y-23250000D03*
%TO.P,U4,9,GPIO7*%
%TO.N,/RGB_3*%
X48087500Y-22850000D03*
%TO.P,U4,10,IOVDD*%
%TO.N,+3V3*%
X48087500Y-22450000D03*
%TO.P,U4,11,GPIO8*%
%TO.N,/Button Matrix/R1*%
X48087500Y-22050000D03*
%TO.P,U4,12,GPIO9*%
%TO.N,/Button Matrix/R2*%
X48087500Y-21650000D03*
%TO.P,U4,13,GPIO10*%
%TO.N,/Button Matrix/R3*%
X48087500Y-21250000D03*
%TO.P,U4,14,GPIO11*%
%TO.N,/Button Matrix/R4*%
X48087500Y-20850000D03*
D42*
%TO.P,U4,15,GPIO12*%
%TO.N,/Button Matrix/R5*%
X47250000Y-20012500D03*
%TO.P,U4,16,GPIO13*%
%TO.N,/Button Matrix/R6*%
X46850000Y-20012500D03*
%TO.P,U4,17,GPIO14*%
%TO.N,/Button Matrix/R7*%
X46450000Y-20012500D03*
%TO.P,U4,18,GPIO15*%
%TO.N,/Button Matrix/C1*%
X46050000Y-20012500D03*
%TO.P,U4,19,TESTEN*%
%TO.N,GND*%
X45650000Y-20012500D03*
%TO.P,U4,20,XIN*%
%TO.N,Net-(U4-XIN)*%
X45250000Y-20012500D03*
%TO.P,U4,21,XOUT*%
%TO.N,Net-(U4-XOUT)*%
X44850000Y-20012500D03*
%TO.P,U4,22,IOVDD*%
%TO.N,+3V3*%
X44450000Y-20012500D03*
%TO.P,U4,23,DVDD*%
%TO.N,+1V1*%
X44050000Y-20012500D03*
%TO.P,U4,24,SWCLK*%
%TO.N,/SWCLK*%
X43650000Y-20012500D03*
%TO.P,U4,25,SWD*%
%TO.N,/SWDIO*%
X43250000Y-20012500D03*
%TO.P,U4,26,RUN*%
%TO.N,/RESET*%
X42850000Y-20012500D03*
%TO.P,U4,27,GPIO16*%
%TO.N,/Button Matrix/C2*%
X42450000Y-20012500D03*
%TO.P,U4,28,GPIO17*%
%TO.N,/Button Matrix/C3*%
X42050000Y-20012500D03*
D41*
%TO.P,U4,29,GPIO18*%
%TO.N,/SPI_SCK*%
X41212500Y-20850000D03*
%TO.P,U4,30,GPIO19*%
%TO.N,/SPI_MOSI*%
X41212500Y-21250000D03*
%TO.P,U4,31,GPIO20*%
%TO.N,/SPI_MISO*%
X41212500Y-21650000D03*
%TO.P,U4,32,GPIO21*%
%TO.N,/Button Matrix/C4*%
X41212500Y-22050000D03*
%TO.P,U4,33,IOVDD*%
%TO.N,+3V3*%
X41212500Y-22450000D03*
%TO.P,U4,34,GPIO22*%
%TO.N,/Button Matrix/C5*%
X41212500Y-22850000D03*
%TO.P,U4,35,GPIO23*%
%TO.N,/Button Matrix/C6*%
X41212500Y-23250000D03*
%TO.P,U4,36,GPIO24*%
%TO.N,/Button Matrix/C7*%
X41212500Y-23650000D03*
%TO.P,U4,37,GPIO25*%
%TO.N,/SD_CS*%
X41212500Y-24050000D03*
%TO.P,U4,38,GPIO26_ADC0*%
%TO.N,/PHOTORESISTOR*%
X41212500Y-24450000D03*
%TO.P,U4,39,GPIO27_ADC1*%
%TO.N,/BRIGHTNESS_POT*%
X41212500Y-24850000D03*
%TO.P,U4,40,GPIO28_ADC2*%
%TO.N,/RTC_INT*%
X41212500Y-25250000D03*
%TO.P,U4,41,GPIO29_ADC3*%
%TO.N,/BUTTON*%
X41212500Y-25650000D03*
%TO.P,U4,42,IOVDD*%
%TO.N,+3V3*%
X41212500Y-26050000D03*
D42*
%TO.P,U4,43,ADC_AVDD*%
X42050000Y-26887500D03*
%TO.P,U4,44,VREG_IN*%
X42450000Y-26887500D03*
%TO.P,U4,45,VREG_VOUT*%
%TO.N,+1V1*%
X42850000Y-26887500D03*
%TO.P,U4,46,USB_DM*%
%TO.N,Net-(U4-USB_DM)*%
X43250000Y-26887500D03*
%TO.P,U4,47,USB_DP*%
%TO.N,Net-(U4-USB_DP)*%
X43650000Y-26887500D03*
%TO.P,U4,48,USB_VDD*%
%TO.N,+3V3*%
X44050000Y-26887500D03*
%TO.P,U4,49,IOVDD*%
X44450000Y-26887500D03*
%TO.P,U4,50,DVDD*%
%TO.N,+1V1*%
X44850000Y-26887500D03*
%TO.P,U4,51,QSPI_SD3*%
%TO.N,Net-(U3-IO3)*%
X45250000Y-26887500D03*
%TO.P,U4,52,QSPI_SCLK*%
%TO.N,Net-(U3-CLK)*%
X45650000Y-26887500D03*
%TO.P,U4,53,QSPI_SD0*%
%TO.N,Net-(U3-DI(IO0))*%
X46050000Y-26887500D03*
%TO.P,U4,54,QSPI_SD2*%
%TO.N,Net-(U3-IO2)*%
X46450000Y-26887500D03*
%TO.P,U4,55,QSPI_SD1*%
%TO.N,Net-(U3-DO(IO1))*%
X46850000Y-26887500D03*
%TO.P,U4,56,QSPI_SS*%
%TO.N,/QSPI_CS*%
X47250000Y-26887500D03*
D43*
%TO.P,U4,57,GND*%
%TO.N,GND*%
X44650000Y-23450000D03*
%TD*%
D36*
%TO.P,C3,1*%
%TO.N,+5V*%
X12425000Y-93500000D03*
%TO.P,C3,2*%
%TO.N,GND*%
X17500000Y-93500000D03*
%TD*%
D19*
%TO.P,R19,1*%
%TO.N,GND*%
X34615000Y-46485000D03*
%TO.P,R19,2*%
%TO.N,Net-(U5-A2)*%
X35635000Y-46485000D03*
%TD*%
D38*
%TO.P,C9,1*%
%TO.N,GND*%
X37700000Y-31450000D03*
%TO.P,C9,2*%
%TO.N,+1V1*%
X39600000Y-31450000D03*
%TD*%
D20*
%TO.P,R21,1*%
%TO.N,/SDA*%
X52450000Y-40650000D03*
%TO.P,R21,2*%
%TO.N,+3V3*%
X52450000Y-41670000D03*
%TD*%
D44*
%TO.P,SW50,1,1*%
%TO.N,Net-(R1-Pad2)*%
X60050000Y-35475000D03*
%TO.P,SW50,2,2*%
%TO.N,GND*%
X60050000Y-31025000D03*
%TD*%
D19*
%TO.P,R30,1*%
%TO.N,/Button Matrix/C7*%
X65740000Y-23750000D03*
%TO.P,R30,2*%
%TO.N,+3V3*%
X66760000Y-23750000D03*
%TD*%
D13*
%TO.P,J7,1,Pin_1*%
%TO.N,/PHOTORESISTOR*%
X21460000Y-50750000D03*
D14*
%TO.P,J7,2,Pin_2*%
%TO.N,GND*%
X24000000Y-50750000D03*
%TD*%
D35*
%TO.P,R7,1*%
%TO.N,Net-(U2C-EN)*%
X38750000Y-69760000D03*
%TO.P,R7,2*%
%TO.N,GND*%
X38750000Y-68740000D03*
%TD*%
D28*
%TO.P,C17,1*%
%TO.N,GND*%
X38170000Y-22450000D03*
%TO.P,C17,2*%
%TO.N,+3V3*%
X39130000Y-22450000D03*
%TD*%
D26*
%TO.P,R22,1*%
%TO.N,GND*%
X47435000Y-45285000D03*
%TO.P,R22,2*%
%TO.N,/EEPROM_WP*%
X46415000Y-45285000D03*
%TD*%
D45*
%TO.P,C25,1*%
%TO.N,+5V*%
X14450000Y-88250000D03*
%TO.P,C25,2*%
%TO.N,GND*%
X16000000Y-88250000D03*
%TD*%
D29*
%TO.P,C13,1*%
%TO.N,GND*%
X51155000Y-22450000D03*
%TO.P,C13,2*%
%TO.N,+3V3*%
X50195000Y-22450000D03*
%TD*%
D26*
%TO.P,R23,1*%
%TO.N,Net-(U2A-EN)*%
X29260000Y-64750000D03*
%TO.P,R23,2*%
%TO.N,GND*%
X28240000Y-64750000D03*
%TD*%
D46*
%TO.P,Y1,1,1*%
%TO.N,Net-(C6-Pad2)*%
X45050000Y-14150000D03*
%TO.P,Y1,2,2*%
%TO.N,GND*%
X47250000Y-14150000D03*
%TO.P,Y1,3,3*%
%TO.N,Net-(U4-XIN)*%
X47250000Y-12450000D03*
%TO.P,Y1,4,4*%
%TO.N,GND*%
X45050000Y-12450000D03*
%TD*%
D37*
%TO.P,C2,1*%
%TO.N,GND*%
X49250000Y-14025000D03*
%TO.P,C2,2*%
%TO.N,Net-(U4-XIN)*%
X49250000Y-12475000D03*
%TD*%
D40*
%TO.P,C10,1*%
%TO.N,GND*%
X43050000Y-16000000D03*
%TO.P,C10,2*%
%TO.N,+1V1*%
X43050000Y-16960000D03*
%TD*%
D45*
%TO.P,C26,1*%
%TO.N,+5V*%
X28725000Y-88500000D03*
%TO.P,C26,2*%
%TO.N,GND*%
X30275000Y-88500000D03*
%TD*%
D19*
%TO.P,R25,1*%
%TO.N,/Button Matrix/C2*%
X66490000Y-9500000D03*
%TO.P,R25,2*%
%TO.N,+3V3*%
X67510000Y-9500000D03*
%TD*%
D47*
%TO.P,U3,1,~{CS}*%
%TO.N,/QSPI_CS*%
X53850000Y-35320000D03*
%TO.P,U3,2,DO(IO1)*%
%TO.N,Net-(U3-DO(IO1))*%
X53850000Y-34050000D03*
%TO.P,U3,3,IO2*%
%TO.N,Net-(U3-IO2)*%
X53850000Y-32780000D03*
%TO.P,U3,4,GND*%
%TO.N,GND*%
X53850000Y-31510000D03*
%TO.P,U3,5,DI(IO0)*%
%TO.N,Net-(U3-DI(IO0))*%
X46650000Y-31510000D03*
%TO.P,U3,6,CLK*%
%TO.N,Net-(U3-CLK)*%
X46650000Y-32780000D03*
%TO.P,U3,7,IO3*%
%TO.N,Net-(U3-IO3)*%
X46650000Y-34050000D03*
%TO.P,U3,8,VCC*%
%TO.N,+3V3*%
X46650000Y-35320000D03*
%TD*%
D15*
%TO.P,H4,1,1*%
%TO.N,GND*%
X3000000Y-97000000D03*
D16*
X3000000Y-97000000D03*
%TD*%
D20*
%TO.P,R33,1*%
%TO.N,/SD_CS*%
X21650000Y-33340000D03*
%TO.P,R33,2*%
%TO.N,+3V3*%
X21650000Y-34360000D03*
%TD*%
%TO.P,R15,1*%
%TO.N,Net-(J1-CC2)*%
X10850000Y-18140000D03*
%TO.P,R15,2*%
%TO.N,GND*%
X10850000Y-19160000D03*
%TD*%
D48*
%TO.P,Y2,1,1*%
%TO.N,Net-(U6-OSCO)*%
X34650000Y-55950000D03*
%TO.P,Y2,2,2*%
%TO.N,Net-(U6-OSCI)*%
X34650000Y-53450000D03*
%TD*%
D49*
%TO.P,C11,1*%
%TO.N,GND*%
X42850000Y-29730000D03*
%TO.P,C11,2*%
%TO.N,+1V1*%
X42850000Y-28770000D03*
%TD*%
D11*
%TO.P,C23,1*%
%TO.N,GND*%
X49900000Y-54900000D03*
%TO.P,C23,2*%
%TO.N,+3V3*%
X49900000Y-53000000D03*
%TD*%
D20*
%TO.P,R29,1*%
%TO.N,/Button Matrix/C6*%
X137250000Y-89740000D03*
%TO.P,R29,2*%
%TO.N,+3V3*%
X137250000Y-90760000D03*
%TD*%
D44*
%TO.P,SW52,1,1*%
%TO.N,/BUTTON*%
X4150000Y-44650000D03*
%TO.P,SW52,2,2*%
%TO.N,GND*%
X4150000Y-40200000D03*
%TD*%
D50*
%TO.P,C6,1*%
%TO.N,GND*%
X43050000Y-12475000D03*
%TO.P,C6,2*%
%TO.N,Net-(C6-Pad2)*%
X43050000Y-14025000D03*
%TD*%
D40*
%TO.P,C24,1*%
%TO.N,+3V3*%
X19850000Y-29170000D03*
%TO.P,C24,2*%
%TO.N,GND*%
X19850000Y-30130000D03*
%TD*%
D17*
%TO.P,R12,1*%
%TO.N,/PHOTORESISTOR*%
X22000000Y-44750000D03*
%TO.P,R12,2*%
%TO.N,GND*%
X24000000Y-44750000D03*
D18*
%TO.P,R12,MP*%
%TO.N,N/C*%
X19600000Y-42500000D03*
X26400000Y-42500000D03*
%TD*%
D49*
%TO.P,C15,1*%
%TO.N,GND*%
X44250000Y-29730000D03*
%TO.P,C15,2*%
%TO.N,+3V3*%
X44250000Y-28770000D03*
%TD*%
D17*
%TO.P,J4,1,Pin_1*%
%TO.N,/User Interface/RGB_3_BUF*%
X41000000Y-83500000D03*
%TO.P,J4,2,Pin_2*%
%TO.N,+5V*%
X43000000Y-83500000D03*
%TO.P,J4,3,Pin_3*%
%TO.N,GND*%
X45000000Y-83500000D03*
D18*
%TO.P,J4,MP*%
%TO.N,N/C*%
X38600000Y-81250000D03*
X47400000Y-81250000D03*
%TD*%
D51*
%TO.P,BT1,1,+*%
%TO.N,Net-(BT1-+)*%
X55500000Y-61685000D03*
D52*
%TO.P,BT1,2,-*%
%TO.N,GND*%
X55500000Y-77650000D03*
%TD*%
D15*
%TO.P,H1,1,1*%
%TO.N,GND*%
X3000000Y-3000000D03*
D16*
X3000000Y-3000000D03*
%TD*%
D26*
%TO.P,R24,1*%
%TO.N,/Button Matrix/C1*%
X67510000Y-14000000D03*
%TO.P,R24,2*%
%TO.N,+3V3*%
X66490000Y-14000000D03*
%TD*%
D35*
%TO.P,R34,1*%
%TO.N,/SPI_MISO*%
X21250000Y-29960000D03*
%TO.P,R34,2*%
%TO.N,+3V3*%
X21250000Y-28940000D03*
%TD*%
D17*
%TO.P,J2,1,Pin_1*%
%TO.N,/User Interface/RGB_1_BUF*%
X12350000Y-83500000D03*
%TO.P,J2,2,Pin_2*%
%TO.N,+5V*%
X14350000Y-83500000D03*
%TO.P,J2,3,Pin_3*%
%TO.N,GND*%
X16350000Y-83500000D03*
D18*
%TO.P,J2,MP*%
%TO.N,N/C*%
X9950000Y-81250000D03*
X18750000Y-81250000D03*
%TD*%
D26*
%TO.P,R26,1*%
%TO.N,/Button Matrix/C3*%
X69010000Y-62250000D03*
%TO.P,R26,2*%
%TO.N,+3V3*%
X67990000Y-62250000D03*
%TD*%
D19*
%TO.P,R1,1*%
%TO.N,/QSPI_CS*%
X56140000Y-35450000D03*
%TO.P,R1,2*%
%TO.N,Net-(R1-Pad2)*%
X57160000Y-35450000D03*
%TD*%
D17*
%TO.P,J3,1,Pin_1*%
%TO.N,/User Interface/RGB_2_BUF*%
X26500000Y-83500000D03*
%TO.P,J3,2,Pin_2*%
%TO.N,+5V*%
X28500000Y-83500000D03*
%TO.P,J3,3,Pin_3*%
%TO.N,GND*%
X30500000Y-83500000D03*
D18*
%TO.P,J3,MP*%
%TO.N,N/C*%
X24100000Y-81250000D03*
X32900000Y-81250000D03*
%TD*%
D20*
%TO.P,R32,1*%
%TO.N,Net-(J5-DAT2)*%
X19050000Y-33340000D03*
%TO.P,R32,2*%
%TO.N,+3V3*%
X19050000Y-34360000D03*
%TD*%
D28*
%TO.P,C16,1*%
%TO.N,GND*%
X37970000Y-26050000D03*
%TO.P,C16,2*%
%TO.N,+3V3*%
X38930000Y-26050000D03*
%TD*%
D19*
%TO.P,R9,1*%
%TO.N,/RESET*%
X40140000Y-18050000D03*
%TO.P,R9,2*%
%TO.N,+3V3*%
X41160000Y-18050000D03*
%TD*%
D12*
%TO.P,U5,1,A0*%
%TO.N,Net-(U5-A0)*%
X38175000Y-44145000D03*
%TO.P,U5,2,A1*%
%TO.N,Net-(U5-A1)*%
X38175000Y-45415000D03*
%TO.P,U5,3,A2*%
%TO.N,Net-(U5-A2)*%
X38175000Y-46685000D03*
%TO.P,U5,4,VSS*%
%TO.N,GND*%
X38175000Y-47955000D03*
%TO.P,U5,5,SDA*%
%TO.N,/SCL*%
X43125000Y-47955000D03*
%TO.P,U5,6,SCL*%
%TO.N,/SDA*%
X43125000Y-46685000D03*
%TO.P,U5,7,WP*%
%TO.N,/EEPROM_WP*%
X43125000Y-45415000D03*
%TO.P,U5,8,VDD*%
%TO.N,+3V3*%
X43125000Y-44145000D03*
%TD*%
D49*
%TO.P,C19,1*%
%TO.N,+5V*%
X39750000Y-64730000D03*
%TO.P,C19,2*%
%TO.N,GND*%
X39750000Y-63770000D03*
%TD*%
D21*
%TO.P,R8,1*%
%TO.N,Net-(U4-USB_DM)*%
X42250000Y-31600000D03*
%TO.P,R8,2*%
%TO.N,/USB_D-*%
X42250000Y-33250000D03*
%TD*%
D19*
%TO.P,R18,1*%
%TO.N,GND*%
X34615000Y-45285000D03*
%TO.P,R18,2*%
%TO.N,Net-(U5-A1)*%
X35635000Y-45285000D03*
%TD*%
D15*
%TO.P,H2,1,1*%
%TO.N,GND*%
X65000000Y-3000000D03*
D16*
X65000000Y-3000000D03*
%TD*%
D45*
%TO.P,C27,1*%
%TO.N,+5V*%
X43225000Y-88500000D03*
%TO.P,C27,2*%
%TO.N,GND*%
X44775000Y-88500000D03*
%TD*%
D53*
%TO.P,SW51,1,1*%
%TO.N,/RESET*%
X39875000Y-15450000D03*
%TO.P,SW51,2,2*%
%TO.N,GND*%
X35425000Y-15450000D03*
%TD*%
D20*
%TO.P,R2,1*%
%TO.N,Net-(C6-Pad2)*%
X46050000Y-17030000D03*
%TO.P,R2,2*%
%TO.N,Net-(U4-XOUT)*%
X46050000Y-18050000D03*
%TD*%
D17*
%TO.P,SW13,1,1*%
%TO.N,/Button Matrix/R2*%
X72750000Y-34709000D03*
%TO.P,SW13,2,2*%
%TO.N,/Button Matrix/C6*%
X74750000Y-34709000D03*
D18*
%TO.P,SW13,MP*%
%TO.N,N/C*%
X70350000Y-32459000D03*
X77150000Y-32459000D03*
%TD*%
D17*
%TO.P,SW20,1,1*%
%TO.N,/Button Matrix/R3*%
X83750000Y-46306000D03*
%TO.P,SW20,2,2*%
%TO.N,/Button Matrix/C6*%
X85750000Y-46306000D03*
D18*
%TO.P,SW20,MP*%
%TO.N,N/C*%
X81350000Y-44056000D03*
X88150000Y-44056000D03*
%TD*%
D17*
%TO.P,SW18,1,1*%
%TO.N,/Button Matrix/R3*%
X127750000Y-34709000D03*
%TO.P,SW18,2,2*%
%TO.N,/Button Matrix/C4*%
X129750000Y-34709000D03*
D18*
%TO.P,SW18,MP*%
%TO.N,N/C*%
X125350000Y-32459000D03*
X132150000Y-32459000D03*
%TD*%
D17*
%TO.P,SW21,1,1*%
%TO.N,/Button Matrix/R3*%
X94750000Y-46306000D03*
%TO.P,SW21,2,2*%
%TO.N,/Button Matrix/C7*%
X96750000Y-46306000D03*
D18*
%TO.P,SW21,MP*%
%TO.N,N/C*%
X92350000Y-44056000D03*
X99150000Y-44056000D03*
%TD*%
D17*
%TO.P,SW23,1,1*%
%TO.N,/Button Matrix/R4*%
X116750000Y-46306000D03*
%TO.P,SW23,2,2*%
%TO.N,/Button Matrix/C2*%
X118750000Y-46306000D03*
D18*
%TO.P,SW23,MP*%
%TO.N,N/C*%
X114350000Y-44056000D03*
X121150000Y-44056000D03*
%TD*%
D17*
%TO.P,SW29,1,1*%
%TO.N,/Button Matrix/R5*%
X116750000Y-57903000D03*
%TO.P,SW29,2,2*%
%TO.N,/Button Matrix/C1*%
X118750000Y-57903000D03*
D18*
%TO.P,SW29,MP*%
%TO.N,N/C*%
X114350000Y-55653000D03*
X121150000Y-55653000D03*
%TD*%
D17*
%TO.P,SW43,1,1*%
%TO.N,/Button Matrix/R7*%
X72750000Y-92694000D03*
%TO.P,SW43,2,2*%
%TO.N,/Button Matrix/C1*%
X74750000Y-92694000D03*
D18*
%TO.P,SW43,MP*%
%TO.N,N/C*%
X70350000Y-90444000D03*
X77150000Y-90444000D03*
%TD*%
D17*
%TO.P,SW11,1,1*%
%TO.N,/Button Matrix/R2*%
X116750000Y-23112000D03*
%TO.P,SW11,2,2*%
%TO.N,/Button Matrix/C4*%
X118750000Y-23112000D03*
D18*
%TO.P,SW11,MP*%
%TO.N,N/C*%
X114350000Y-20862000D03*
X121150000Y-20862000D03*
%TD*%
D17*
%TO.P,SW45,1,1*%
%TO.N,/Button Matrix/R7*%
X94750000Y-92694000D03*
%TO.P,SW45,2,2*%
%TO.N,/Button Matrix/C3*%
X96750000Y-92694000D03*
D18*
%TO.P,SW45,MP*%
%TO.N,N/C*%
X92350000Y-90444000D03*
X99150000Y-90444000D03*
%TD*%
D17*
%TO.P,SW4,1,1*%
%TO.N,/Button Matrix/R1*%
X105750000Y-11515000D03*
%TO.P,SW4,2,2*%
%TO.N,/Button Matrix/C4*%
X107750000Y-11515000D03*
D18*
%TO.P,SW4,MP*%
%TO.N,N/C*%
X103350000Y-9265000D03*
X110150000Y-9265000D03*
%TD*%
D17*
%TO.P,SW41,1,1*%
%TO.N,/Button Matrix/R6*%
X116750000Y-81097000D03*
%TO.P,SW41,2,2*%
%TO.N,/Button Matrix/C6*%
X118750000Y-81097000D03*
D18*
%TO.P,SW41,MP*%
%TO.N,N/C*%
X114350000Y-78847000D03*
X121150000Y-78847000D03*
%TD*%
D17*
%TO.P,SW44,1,1*%
%TO.N,/Button Matrix/R7*%
X83750000Y-92694000D03*
%TO.P,SW44,2,2*%
%TO.N,/Button Matrix/C2*%
X85750000Y-92694000D03*
D18*
%TO.P,SW44,MP*%
%TO.N,N/C*%
X81350000Y-90444000D03*
X88150000Y-90444000D03*
%TD*%
D17*
%TO.P,SW48,1,1*%
%TO.N,/Button Matrix/R7*%
X127750000Y-92694000D03*
%TO.P,SW48,2,2*%
%TO.N,/Button Matrix/C6*%
X129750000Y-92694000D03*
D18*
%TO.P,SW48,MP*%
%TO.N,N/C*%
X125350000Y-90444000D03*
X132150000Y-90444000D03*
%TD*%
D17*
%TO.P,SW36,1,1*%
%TO.N,/Button Matrix/R6*%
X127750000Y-69500000D03*
%TO.P,SW36,2,2*%
%TO.N,/Button Matrix/C1*%
X129750000Y-69500000D03*
D18*
%TO.P,SW36,MP*%
%TO.N,N/C*%
X125350000Y-67250000D03*
X132150000Y-67250000D03*
%TD*%
D17*
%TO.P,SW16,1,1*%
%TO.N,/Button Matrix/R3*%
X105750000Y-34709000D03*
%TO.P,SW16,2,2*%
%TO.N,/Button Matrix/C2*%
X107750000Y-34709000D03*
D18*
%TO.P,SW16,MP*%
%TO.N,N/C*%
X103350000Y-32459000D03*
X110150000Y-32459000D03*
%TD*%
D17*
%TO.P,SW39,1,1*%
%TO.N,/Button Matrix/R6*%
X94750000Y-81097000D03*
%TO.P,SW39,2,2*%
%TO.N,/Button Matrix/C4*%
X96750000Y-81097000D03*
D18*
%TO.P,SW39,MP*%
%TO.N,N/C*%
X92350000Y-78847000D03*
X99150000Y-78847000D03*
%TD*%
D17*
%TO.P,SW42,1,1*%
%TO.N,/Button Matrix/R6*%
X127750000Y-81097000D03*
%TO.P,SW42,2,2*%
%TO.N,/Button Matrix/C7*%
X129750000Y-81097000D03*
D18*
%TO.P,SW42,MP*%
%TO.N,N/C*%
X125350000Y-78847000D03*
X132150000Y-78847000D03*
%TD*%
D17*
%TO.P,SW37,1,1*%
%TO.N,/Button Matrix/R6*%
X72750000Y-81097000D03*
%TO.P,SW37,2,2*%
%TO.N,/Button Matrix/C2*%
X74750000Y-81097000D03*
D18*
%TO.P,SW37,MP*%
%TO.N,N/C*%
X70350000Y-78847000D03*
X77150000Y-78847000D03*
%TD*%
D17*
%TO.P,SW35,1,1*%
%TO.N,/Button Matrix/R5*%
X116750000Y-69500000D03*
%TO.P,SW35,2,2*%
%TO.N,/Button Matrix/C7*%
X118750000Y-69500000D03*
D18*
%TO.P,SW35,MP*%
%TO.N,N/C*%
X114350000Y-67250000D03*
X121150000Y-67250000D03*
%TD*%
D17*
%TO.P,SW34,1,1*%
%TO.N,/Button Matrix/R5*%
X105750000Y-69500000D03*
%TO.P,SW34,2,2*%
%TO.N,/Button Matrix/C6*%
X107750000Y-69500000D03*
D18*
%TO.P,SW34,MP*%
%TO.N,N/C*%
X103350000Y-67250000D03*
X110150000Y-67250000D03*
%TD*%
D17*
%TO.P,SW9,1,1*%
%TO.N,/Button Matrix/R2*%
X94750000Y-23112000D03*
%TO.P,SW9,2,2*%
%TO.N,/Button Matrix/C2*%
X96750000Y-23112000D03*
D18*
%TO.P,SW9,MP*%
%TO.N,N/C*%
X92350000Y-20862000D03*
X99150000Y-20862000D03*
%TD*%
D17*
%TO.P,SW24,1,1*%
%TO.N,/Button Matrix/R4*%
X127750000Y-46306000D03*
%TO.P,SW24,2,2*%
%TO.N,/Button Matrix/C3*%
X129750000Y-46306000D03*
D18*
%TO.P,SW24,MP*%
%TO.N,N/C*%
X125350000Y-44056000D03*
X132150000Y-44056000D03*
%TD*%
D17*
%TO.P,SW1,1,1*%
%TO.N,/Button Matrix/R1*%
X72750000Y-11515000D03*
%TO.P,SW1,2,2*%
%TO.N,/Button Matrix/C1*%
X74750000Y-11515000D03*
D18*
%TO.P,SW1,MP*%
%TO.N,N/C*%
X70350000Y-9265000D03*
X77150000Y-9265000D03*
%TD*%
D17*
%TO.P,SW6,1,1*%
%TO.N,/Button Matrix/R1*%
X127750000Y-11515000D03*
%TO.P,SW6,2,2*%
%TO.N,/Button Matrix/C6*%
X129750000Y-11515000D03*
D18*
%TO.P,SW6,MP*%
%TO.N,N/C*%
X125350000Y-9265000D03*
X132150000Y-9265000D03*
%TD*%
D17*
%TO.P,SW26,1,1*%
%TO.N,/Button Matrix/R4*%
X83750000Y-57903000D03*
%TO.P,SW26,2,2*%
%TO.N,/Button Matrix/C5*%
X85750000Y-57903000D03*
D18*
%TO.P,SW26,MP*%
%TO.N,N/C*%
X81350000Y-55653000D03*
X88150000Y-55653000D03*
%TD*%
D17*
%TO.P,SW38,1,1*%
%TO.N,/Button Matrix/R6*%
X83750000Y-81097000D03*
%TO.P,SW38,2,2*%
%TO.N,/Button Matrix/C3*%
X85750000Y-81097000D03*
D18*
%TO.P,SW38,MP*%
%TO.N,N/C*%
X81350000Y-78847000D03*
X88150000Y-78847000D03*
%TD*%
D17*
%TO.P,SW22,1,1*%
%TO.N,/Button Matrix/R4*%
X105750000Y-46306000D03*
%TO.P,SW22,2,2*%
%TO.N,/Button Matrix/C1*%
X107750000Y-46306000D03*
D18*
%TO.P,SW22,MP*%
%TO.N,N/C*%
X103350000Y-44056000D03*
X110150000Y-44056000D03*
%TD*%
D17*
%TO.P,SW33,1,1*%
%TO.N,/Button Matrix/R5*%
X94750000Y-69500000D03*
%TO.P,SW33,2,2*%
%TO.N,/Button Matrix/C5*%
X96750000Y-69500000D03*
D18*
%TO.P,SW33,MP*%
%TO.N,N/C*%
X92350000Y-67250000D03*
X99150000Y-67250000D03*
%TD*%
D17*
%TO.P,SW10,1,1*%
%TO.N,/Button Matrix/R2*%
X105750000Y-23112000D03*
%TO.P,SW10,2,2*%
%TO.N,/Button Matrix/C3*%
X107750000Y-23112000D03*
D18*
%TO.P,SW10,MP*%
%TO.N,N/C*%
X103350000Y-20862000D03*
X110150000Y-20862000D03*
%TD*%
D17*
%TO.P,SW28,1,1*%
%TO.N,/Button Matrix/R4*%
X105750000Y-57903000D03*
%TO.P,SW28,2,2*%
%TO.N,/Button Matrix/C7*%
X107750000Y-57903000D03*
D18*
%TO.P,SW28,MP*%
%TO.N,N/C*%
X103350000Y-55653000D03*
X110150000Y-55653000D03*
%TD*%
D17*
%TO.P,SW8,1,1*%
%TO.N,/Button Matrix/R2*%
X83750000Y-23112000D03*
%TO.P,SW8,2,2*%
%TO.N,unconnected-(SW8-Pad2)*%
X85750000Y-23112000D03*
D18*
%TO.P,SW8,MP*%
%TO.N,N/C*%
X81350000Y-20862000D03*
X88150000Y-20862000D03*
%TD*%
D17*
%TO.P,SW40,1,1*%
%TO.N,/Button Matrix/R6*%
X105750000Y-81097000D03*
%TO.P,SW40,2,2*%
%TO.N,/Button Matrix/C5*%
X107750000Y-81097000D03*
D18*
%TO.P,SW40,MP*%
%TO.N,N/C*%
X103350000Y-78847000D03*
X110150000Y-78847000D03*
%TD*%
D17*
%TO.P,SW46,1,1*%
%TO.N,/Button Matrix/R7*%
X105750000Y-92694000D03*
%TO.P,SW46,2,2*%
%TO.N,/Button Matrix/C4*%
X107750000Y-92694000D03*
D18*
%TO.P,SW46,MP*%
%TO.N,N/C*%
X103350000Y-90444000D03*
X110150000Y-90444000D03*
%TD*%
D17*
%TO.P,SW5,1,1*%
%TO.N,/Button Matrix/R1*%
X116750000Y-11515000D03*
%TO.P,SW5,2,2*%
%TO.N,/Button Matrix/C5*%
X118750000Y-11515000D03*
D18*
%TO.P,SW5,MP*%
%TO.N,N/C*%
X114350000Y-9265000D03*
X121150000Y-9265000D03*
%TD*%
D17*
%TO.P,SW31,1,1*%
%TO.N,/Button Matrix/R5*%
X72750000Y-69500000D03*
%TO.P,SW31,2,2*%
%TO.N,/Button Matrix/C3*%
X74750000Y-69500000D03*
D18*
%TO.P,SW31,MP*%
%TO.N,N/C*%
X70350000Y-67250000D03*
X77150000Y-67250000D03*
%TD*%
D17*
%TO.P,SW12,1,1*%
%TO.N,/Button Matrix/R2*%
X127750000Y-23112000D03*
%TO.P,SW12,2,2*%
%TO.N,/Button Matrix/C5*%
X129750000Y-23112000D03*
D18*
%TO.P,SW12,MP*%
%TO.N,N/C*%
X125350000Y-20862000D03*
X132150000Y-20862000D03*
%TD*%
D17*
%TO.P,SW15,1,1*%
%TO.N,/Button Matrix/R3*%
X94750000Y-34709000D03*
%TO.P,SW15,2,2*%
%TO.N,/Button Matrix/C1*%
X96750000Y-34709000D03*
D18*
%TO.P,SW15,MP*%
%TO.N,N/C*%
X92350000Y-32459000D03*
X99150000Y-32459000D03*
%TD*%
D17*
%TO.P,SW7,1,1*%
%TO.N,/Button Matrix/R1*%
X72750000Y-23112000D03*
%TO.P,SW7,2,2*%
%TO.N,/Button Matrix/C7*%
X74750000Y-23112000D03*
D18*
%TO.P,SW7,MP*%
%TO.N,N/C*%
X70350000Y-20862000D03*
X77150000Y-20862000D03*
%TD*%
D17*
%TO.P,SW17,1,1*%
%TO.N,/Button Matrix/R3*%
X116750000Y-34709000D03*
%TO.P,SW17,2,2*%
%TO.N,/Button Matrix/C3*%
X118750000Y-34709000D03*
D18*
%TO.P,SW17,MP*%
%TO.N,N/C*%
X114350000Y-32459000D03*
X121150000Y-32459000D03*
%TD*%
D17*
%TO.P,SW2,1,1*%
%TO.N,/Button Matrix/R1*%
X83750000Y-11515000D03*
%TO.P,SW2,2,2*%
%TO.N,/Button Matrix/C2*%
X85750000Y-11515000D03*
D18*
%TO.P,SW2,MP*%
%TO.N,N/C*%
X81350000Y-9265000D03*
X88150000Y-9265000D03*
%TD*%
D17*
%TO.P,SW14,1,1*%
%TO.N,/Button Matrix/R2*%
X83750000Y-34709000D03*
%TO.P,SW14,2,2*%
%TO.N,/Button Matrix/C7*%
X85750000Y-34709000D03*
D18*
%TO.P,SW14,MP*%
%TO.N,N/C*%
X81350000Y-32459000D03*
X88150000Y-32459000D03*
%TD*%
D17*
%TO.P,SW3,1,1*%
%TO.N,/Button Matrix/R1*%
X94750000Y-11515000D03*
%TO.P,SW3,2,2*%
%TO.N,/Button Matrix/C3*%
X96750000Y-11515000D03*
D18*
%TO.P,SW3,MP*%
%TO.N,N/C*%
X92350000Y-9265000D03*
X99150000Y-9265000D03*
%TD*%
D17*
%TO.P,SW30,1,1*%
%TO.N,/Button Matrix/R5*%
X127750000Y-57903000D03*
%TO.P,SW30,2,2*%
%TO.N,/Button Matrix/C2*%
X129750000Y-57903000D03*
D18*
%TO.P,SW30,MP*%
%TO.N,N/C*%
X125350000Y-55653000D03*
X132150000Y-55653000D03*
%TD*%
D17*
%TO.P,SW19,1,1*%
%TO.N,/Button Matrix/R3*%
X72750000Y-46306000D03*
%TO.P,SW19,2,2*%
%TO.N,/Button Matrix/C5*%
X74750000Y-46306000D03*
D18*
%TO.P,SW19,MP*%
%TO.N,N/C*%
X70350000Y-44056000D03*
X77150000Y-44056000D03*
%TD*%
D17*
%TO.P,SW47,1,1*%
%TO.N,/Button Matrix/R7*%
X116750000Y-92694000D03*
%TO.P,SW47,2,2*%
%TO.N,/Button Matrix/C5*%
X118750000Y-92694000D03*
D18*
%TO.P,SW47,MP*%
%TO.N,N/C*%
X114350000Y-90444000D03*
X121150000Y-90444000D03*
%TD*%
D17*
%TO.P,SW25,1,1*%
%TO.N,/Button Matrix/R4*%
X72750000Y-57903000D03*
%TO.P,SW25,2,2*%
%TO.N,/Button Matrix/C4*%
X74750000Y-57903000D03*
D18*
%TO.P,SW25,MP*%
%TO.N,N/C*%
X70350000Y-55653000D03*
X77150000Y-55653000D03*
%TD*%
D17*
%TO.P,SW27,1,1*%
%TO.N,/Button Matrix/R4*%
X94750000Y-57903000D03*
%TO.P,SW27,2,2*%
%TO.N,/Button Matrix/C6*%
X96750000Y-57903000D03*
D18*
%TO.P,SW27,MP*%
%TO.N,N/C*%
X92350000Y-55653000D03*
X99150000Y-55653000D03*
%TD*%
D17*
%TO.P,SW32,1,1*%
%TO.N,/Button Matrix/R5*%
X83750000Y-69500000D03*
%TO.P,SW32,2,2*%
%TO.N,/Button Matrix/C4*%
X85750000Y-69500000D03*
D18*
%TO.P,SW32,MP*%
%TO.N,N/C*%
X81350000Y-67250000D03*
X88150000Y-67250000D03*
%TD*%
D13*
%TO.P,J8,1,Pin_1*%
%TO.N,/RESET*%
X31750000Y-11340000D03*
D14*
%TO.P,J8,2,Pin_2*%
%TO.N,+3V3*%
X31750000Y-13880000D03*
%TO.P,J8,3,Pin_3*%
%TO.N,/SWDIO*%
X31750000Y-16420000D03*
%TO.P,J8,4,Pin_4*%
%TO.N,/SWCLK*%
X31750000Y-18960000D03*
%TO.P,J8,5,Pin_5*%
%TO.N,unconnected-(J8-Pin_5-Pad5)*%
X31750000Y-21500000D03*
%TO.P,J8,6,Pin_6*%
%TO.N,GND*%
X31750000Y-24040000D03*
%TD*%
D54*
%TO.N,/Button Matrix/R5*%
X112500000Y-41500000D03*
X112250000Y-30500000D03*
X112250000Y-21750000D03*
X112250000Y-19250000D03*
X112250000Y-33250000D03*
%TO.N,/SPI_MISO*%
X26000000Y-25000000D03*
%TO.N,/Button Matrix/C2*%
X95250000Y-15250000D03*
X97000000Y-16600000D03*
%TO.N,/Button Matrix/C3*%
X108500000Y-16650000D03*
%TO.N,/Button Matrix/C1*%
X74000000Y-15400000D03*
X79250000Y-18000000D03*
%TO.N,/Button Matrix/R2*%
X71750000Y-15400000D03*
X71750000Y-17250000D03*
%TO.N,GND*%
X26000000Y-63000000D03*
X34650000Y-42950000D03*
X18850000Y-30050000D03*
X46850000Y-15450000D03*
X35250000Y-17450000D03*
X31500000Y-90500000D03*
X45050000Y-36250000D03*
X37750000Y-33500000D03*
X42450000Y-24500000D03*
X18850000Y-27050000D03*
X27500000Y-68750000D03*
X43750000Y-15750000D03*
X45750000Y-91250000D03*
X24250000Y-41000000D03*
X58500000Y-79000000D03*
X31000000Y-43000000D03*
X37250000Y-22450000D03*
X38250000Y-67500000D03*
X10650000Y-20050000D03*
X36650000Y-47950000D03*
X44750000Y-90250000D03*
X45750000Y-90250000D03*
X44650000Y-52200000D03*
X45000000Y-91250000D03*
X44650000Y-11050000D03*
X16000000Y-90250000D03*
X16250000Y-91250000D03*
X52250000Y-79250000D03*
X34650000Y-47450000D03*
X10250000Y-11450000D03*
X5000000Y-38500000D03*
X48400000Y-43950000D03*
X46850000Y-22050000D03*
X16750000Y-90250000D03*
X20450000Y-13450000D03*
X32500000Y-91250000D03*
X18650000Y-23250000D03*
X49900000Y-55950000D03*
X60050000Y-29250000D03*
X39750000Y-62500000D03*
X17500000Y-90250000D03*
X36400000Y-57700000D03*
X30500000Y-91500000D03*
X46750000Y-91250000D03*
X44500000Y-91750000D03*
X37850000Y-26850000D03*
X30000000Y-90500000D03*
X27250000Y-64750000D03*
X48650000Y-45200000D03*
X52850000Y-30650000D03*
X36250000Y-18250000D03*
X44250000Y-30450000D03*
X17000000Y-91250000D03*
X23250000Y-13450000D03*
X31500000Y-91500000D03*
X9650000Y-19250000D03*
X37250000Y-27650000D03*
X46850000Y-25450000D03*
X50850000Y-27650000D03*
X52050000Y-22450000D03*
X12050000Y-10450000D03*
X46500000Y-90250000D03*
X42850000Y-30450000D03*
X45000000Y-15750000D03*
X17750000Y-91000000D03*
X50850000Y-14650000D03*
X11050000Y-12650000D03*
X30750000Y-90500000D03*
X29250000Y-73500000D03*
X43450000Y-11050000D03*
%TO.N,/RESET*%
X42850000Y-21250000D03*
X39750000Y-11500000D03*
X40250000Y-19900000D03*
%TO.N,+1V1*%
X45015422Y-27850745D03*
X43650000Y-21250000D03*
X40150000Y-30250000D03*
X42556740Y-28191787D03*
%TO.N,+5V*%
X9874265Y-12674265D03*
X13250000Y-91500000D03*
X40750000Y-64750000D03*
X12250000Y-90500000D03*
X42000000Y-89750000D03*
X12000000Y-91500000D03*
X15250000Y-12050000D03*
X42750000Y-91250000D03*
X13000000Y-90750000D03*
X14500000Y-90750000D03*
X28250000Y-91250000D03*
X27500000Y-90250000D03*
X41000000Y-91250000D03*
X11000000Y-91500000D03*
X14500000Y-89750000D03*
X28500000Y-90250000D03*
X26250000Y-91250000D03*
X11250000Y-90750000D03*
X14500000Y-91500000D03*
X42750000Y-90500000D03*
X38750000Y-63750000D03*
X41750000Y-91500000D03*
X25250000Y-91250000D03*
X40250000Y-91250000D03*
X13500000Y-89750000D03*
X11500000Y-89750000D03*
X12500000Y-89750000D03*
X26750000Y-90250000D03*
X9450000Y-18050000D03*
X27250000Y-91250000D03*
X26000000Y-90250000D03*
X41750000Y-90500000D03*
%TO.N,/PHOTORESISTOR*%
X31000000Y-31250000D03*
X29750000Y-32500000D03*
%TO.N,/BUTTON*%
X15250000Y-38750000D03*
X34750000Y-30250000D03*
%TO.N,/SD_CS*%
X36250000Y-24050000D03*
X22850000Y-33250000D03*
%TO.N,/SPI_SCK*%
X30250000Y-25225000D03*
X27500000Y-25225000D03*
%TO.N,/SCL*%
X53250000Y-24850000D03*
X46050000Y-49850000D03*
X45900000Y-55950000D03*
X50850000Y-39450000D03*
%TO.N,/SDA*%
X46900000Y-56200000D03*
X53850000Y-25515642D03*
X48850000Y-46650000D03*
X53050000Y-39650000D03*
%TO.N,/SPI_MISO*%
X20622342Y-29533923D03*
X36026328Y-21635089D03*
%TO.N,/SPI_MOSI*%
X37050000Y-21250000D03*
X21050000Y-25850000D03*
%TO.N,/UART_TX*%
X60500000Y-32750000D03*
X60250000Y-41450000D03*
%TO.N,/UART_RX*%
X55250000Y-44750000D03*
X57750000Y-50500000D03*
X54500000Y-28250000D03*
%TO.N,Net-(U4-USB_DP)*%
X43550001Y-30837301D03*
X44069951Y-25950000D03*
%TO.N,Net-(U4-USB_DM)*%
X43156740Y-26012033D03*
X41450000Y-31650000D03*
%TO.N,Net-(U4-GPIO4)*%
X47050000Y-24050000D03*
X30850000Y-34250000D03*
%TO.N,/Button Matrix/C1*%
X96528765Y-31028765D03*
X108250000Y-42750000D03*
X69750000Y-14750000D03*
X129750000Y-64250000D03*
X119250000Y-53750000D03*
%TO.N,/Button Matrix/C2*%
X85500000Y-88000000D03*
X105750000Y-62250000D03*
X116000000Y-62250000D03*
X57000000Y-14250000D03*
X65250000Y-8750000D03*
X98750000Y-18250000D03*
X93500000Y-74250000D03*
X121625000Y-41125000D03*
X128250000Y-61750000D03*
X101250000Y-64250000D03*
X86000000Y-7250000D03*
X90000000Y-76500000D03*
X130000000Y-51000000D03*
X110500000Y-30100000D03*
X75000000Y-77000000D03*
X54250000Y-14250000D03*
X90000000Y-83250000D03*
X111500000Y-62250000D03*
X42362859Y-18590317D03*
%TO.N,/Button Matrix/C3*%
X109750000Y-18250000D03*
X97750000Y-7000000D03*
X74750000Y-65000000D03*
X41500000Y-10250000D03*
X129750000Y-41750000D03*
X98250000Y-97000000D03*
X73750000Y-62750000D03*
X56750000Y-13000000D03*
X41590606Y-18799185D03*
X96750000Y-88500000D03*
X86000000Y-76000000D03*
X121750000Y-30250000D03*
%TO.N,/Button Matrix/C4*%
X107750000Y-88500000D03*
X64500000Y-52035714D03*
X70850000Y-51250000D03*
X98750000Y-75850000D03*
X69500000Y-51750000D03*
X87250000Y-64250000D03*
X42039527Y-22031353D03*
X119500000Y-18500000D03*
X108000000Y-7500000D03*
X76000000Y-53000000D03*
X137500000Y-86000000D03*
X129750000Y-30250000D03*
X41250000Y-19900000D03*
%TO.N,/Button Matrix/C5*%
X72000000Y-40850000D03*
X118750000Y-7500000D03*
X118750000Y-88500000D03*
X129750000Y-18750000D03*
X74750000Y-42000000D03*
X41000000Y-34250000D03*
X85750000Y-53500000D03*
X128350000Y-26501472D03*
X42500000Y-36000000D03*
X40250000Y-23050000D03*
X108375000Y-76125000D03*
X96625000Y-64375000D03*
X40250000Y-27000000D03*
X80500000Y-27250000D03*
%TO.N,/Button Matrix/C6*%
X48500000Y-27250000D03*
X120625000Y-75875000D03*
X50750000Y-31500000D03*
X97500000Y-52750000D03*
X129750000Y-88000000D03*
X75000000Y-30750000D03*
X135750000Y-88000000D03*
X134250000Y-89750000D03*
X137250000Y-88750000D03*
X109000000Y-64250000D03*
X42243503Y-23727108D03*
X85750000Y-41000000D03*
X134250000Y-88500000D03*
%TO.N,/Button Matrix/C7*%
X39480329Y-23268198D03*
X54000000Y-22450000D03*
X120107842Y-63142158D03*
X71000000Y-24000000D03*
X129750000Y-76500000D03*
X57250000Y-84500000D03*
X109232842Y-52267158D03*
X59250000Y-81000000D03*
X74750000Y-18750000D03*
X97732842Y-40767158D03*
X86732842Y-29767158D03*
%TO.N,/Button Matrix/R2*%
X67250000Y-19450000D03*
X80750000Y-17250000D03*
%TO.N,/Button Matrix/R3*%
X68500000Y-40250000D03*
X68650000Y-18250000D03*
%TO.N,/Button Matrix/R4*%
X72750000Y-52100000D03*
X69250000Y-50500000D03*
X69650000Y-17500000D03*
X72750000Y-50500000D03*
%TO.N,+3V3*%
X18650000Y-29250000D03*
X67750000Y-23750000D03*
X40850000Y-27850000D03*
X65250000Y-54250000D03*
X64750000Y-41750000D03*
X55450000Y-36650000D03*
X19050000Y-35450000D03*
X38850000Y-26850000D03*
X68000000Y-61000000D03*
X40750000Y-17250000D03*
X21450000Y-10250000D03*
X38250000Y-66250000D03*
X45025735Y-18225735D03*
X38650000Y-23250000D03*
X50850000Y-42450000D03*
X48250000Y-35650000D03*
X18750000Y-38750000D03*
X48750000Y-51750000D03*
X47050000Y-37250000D03*
X51850000Y-42650000D03*
X49250000Y-26850000D03*
X18750000Y-63250000D03*
X66500000Y-12750000D03*
X21650000Y-35450000D03*
X21050000Y-26650000D03*
X10750000Y-40250000D03*
X67500000Y-10750000D03*
X51250000Y-51250000D03*
X23850000Y-25050000D03*
X50829636Y-21665518D03*
X22250000Y-28850000D03*
X39650000Y-27650000D03*
X47000000Y-43250000D03*
X22050000Y-24250000D03*
X137250000Y-91750000D03*
X45050000Y-28650000D03*
%TO.N,/Button Matrix/R5*%
X70250000Y-16000000D03*
%TO.N,/Button Matrix/R6*%
X66250000Y-50750000D03*
X66750000Y-54750000D03*
X68000000Y-72500000D03*
X63250000Y-16500000D03*
%TO.N,/Button Matrix/R7*%
X61000000Y-59500000D03*
X59500000Y-48500000D03*
X54500000Y-21250000D03*
X46268601Y-20924354D03*
X62750000Y-63750000D03*
X56750000Y-21500000D03*
%TO.N,/RGB_3*%
X57750000Y-30000000D03*
X41000000Y-60250000D03*
%TO.N,/RGB_2*%
X57100000Y-31000000D03*
X37174265Y-61924265D03*
%TO.N,/RGB_1*%
X39000000Y-59250000D03*
X56500000Y-30250000D03*
%TO.N,Net-(U3-IO3)*%
X44950000Y-30850000D03*
X45850000Y-25650000D03*
%TO.N,/RTC_INT*%
X35650000Y-36654800D03*
X35650000Y-34950000D03*
X36000000Y-31750000D03*
X42250000Y-25500000D03*
%TO.N,/BRIGHTNESS_POT*%
X31750000Y-32000000D03*
X29750000Y-53500000D03*
%TO.N,/SWCLK*%
X34000000Y-12000000D03*
%TD*%
D55*
%TO.N,/Button Matrix/R5*%
X112750000Y-53000000D02*
X112750000Y-41750000D01*
X112750000Y-41750000D02*
X112500000Y-41500000D01*
X112250000Y-33250000D02*
X112250000Y-30500000D01*
X112250000Y-21750000D02*
X112250000Y-19250000D01*
%TO.N,/Button Matrix/C2*%
X95650000Y-15250000D02*
X95250000Y-15250000D01*
X97000000Y-16600000D02*
X95650000Y-15250000D01*
%TO.N,/Button Matrix/C3*%
X108500000Y-16650000D02*
X107350256Y-16650000D01*
X107350256Y-16650000D02*
X100250000Y-9549744D01*
X99500000Y-7000000D02*
X97750000Y-7000000D01*
X100250000Y-9549744D02*
X100250000Y-7750000D01*
X100250000Y-7750000D02*
X99500000Y-7000000D01*
%TO.N,/Button Matrix/C1*%
X74350000Y-15400000D02*
X74000000Y-15400000D01*
X74750000Y-15000000D02*
X74350000Y-15400000D01*
X79250000Y-15750000D02*
X78750000Y-15250000D01*
X79250000Y-18000000D02*
X79250000Y-15750000D01*
X78500000Y-15250000D02*
X78250000Y-15000000D01*
X78750000Y-15250000D02*
X78500000Y-15250000D01*
X78250000Y-15000000D02*
X74750000Y-15000000D01*
%TO.N,/Button Matrix/R2*%
X71750000Y-17250000D02*
X71750000Y-15400000D01*
%TO.N,GND*%
X55500000Y-77650000D02*
X57150000Y-77650000D01*
X31050000Y-42950000D02*
X31000000Y-43000000D01*
X37700000Y-31450000D02*
X37700000Y-33450000D01*
X38750000Y-68000000D02*
X38250000Y-67500000D01*
X49250000Y-14025000D02*
X50225000Y-14025000D01*
X11050000Y-13650000D02*
X11050000Y-12650000D01*
X53850000Y-31510000D02*
X53710000Y-31510000D01*
X37700000Y-33450000D02*
X37750000Y-33500000D01*
X10850000Y-19850000D02*
X10650000Y-20050000D01*
D56*
X42450000Y-24500000D02*
X44250000Y-23450000D01*
X44250000Y-23450000D02*
X44650000Y-23450000D01*
X45900000Y-52425000D02*
X44875000Y-52425000D01*
D55*
X47250000Y-15050000D02*
X46850000Y-15450000D01*
X45650000Y-20012500D02*
X45650000Y-22450000D01*
X30190000Y-72560000D02*
X29250000Y-73500000D01*
X36475000Y-67480000D02*
X38230000Y-67480000D01*
X53850000Y-77650000D02*
X52250000Y-79250000D01*
D56*
X44650000Y-23450000D02*
X44850000Y-23450000D01*
D55*
X24000000Y-50750000D02*
X24000000Y-44750000D01*
X7850000Y-18770000D02*
X9170000Y-18770000D01*
X39750000Y-63770000D02*
X39750000Y-62500000D01*
D57*
X16950000Y-27050000D02*
X18850000Y-27050000D01*
D55*
X44650000Y-16545000D02*
X44650000Y-16100000D01*
D57*
X16950000Y-23900000D02*
X18000000Y-23900000D01*
D55*
X43050000Y-12475000D02*
X43050000Y-11450000D01*
D56*
X19850000Y-12150000D02*
X19850000Y-12850000D01*
D55*
X53710000Y-31510000D02*
X52850000Y-30650000D01*
X47435000Y-45285000D02*
X48565000Y-45285000D01*
X44650000Y-16100000D02*
X45000000Y-15750000D01*
X36450000Y-18050000D02*
X36250000Y-18250000D01*
X36655000Y-47955000D02*
X36650000Y-47950000D01*
X43050000Y-16000000D02*
X43500000Y-16000000D01*
X10850000Y-19160000D02*
X10850000Y-19850000D01*
X57150000Y-77650000D02*
X58500000Y-79000000D01*
X37970000Y-26730000D02*
X37850000Y-26850000D01*
X45650000Y-22450000D02*
X44650000Y-23450000D01*
D56*
X19850000Y-12850000D02*
X20450000Y-13450000D01*
D55*
X28240000Y-64750000D02*
X27250000Y-64750000D01*
X37170000Y-18050000D02*
X36450000Y-18050000D01*
X43050000Y-11450000D02*
X43450000Y-11050000D01*
X47405000Y-44085000D02*
X48265000Y-44085000D01*
X34615000Y-42985000D02*
X34650000Y-42950000D01*
X42850000Y-29730000D02*
X42850000Y-30450000D01*
X36555000Y-57855000D02*
X36400000Y-57700000D01*
X48565000Y-45285000D02*
X48650000Y-45200000D01*
D57*
X18930000Y-30130000D02*
X18850000Y-30050000D01*
D55*
X9170000Y-18770000D02*
X9650000Y-19250000D01*
X38230000Y-67480000D02*
X38250000Y-67500000D01*
D56*
X49900000Y-54900000D02*
X49900000Y-55950000D01*
D55*
X34615000Y-46485000D02*
X34615000Y-47415000D01*
X24000000Y-44750000D02*
X24000000Y-41250000D01*
X60050000Y-31025000D02*
X60050000Y-29250000D01*
X43500000Y-16000000D02*
X43750000Y-15750000D01*
X47250000Y-14150000D02*
X47250000Y-15050000D01*
X50225000Y-14025000D02*
X50850000Y-14650000D01*
D56*
X23450000Y-13250000D02*
X23250000Y-13450000D01*
D55*
X38170000Y-22450000D02*
X37250000Y-22450000D01*
D57*
X18000000Y-23900000D02*
X18650000Y-23250000D01*
D55*
X26000000Y-61900000D02*
X26000000Y-63000000D01*
X50930000Y-26850000D02*
X50930000Y-27570000D01*
D56*
X13300000Y-10450000D02*
X12050000Y-10450000D01*
D55*
X48265000Y-44085000D02*
X48400000Y-43950000D01*
X37970000Y-26050000D02*
X37970000Y-26730000D01*
X44250000Y-29730000D02*
X44250000Y-30450000D01*
X4150000Y-39350000D02*
X5000000Y-38500000D01*
X31050000Y-41725000D02*
X31050000Y-42950000D01*
X50930000Y-27570000D02*
X50850000Y-27650000D01*
X35425000Y-17275000D02*
X35250000Y-17450000D01*
X45370000Y-37250000D02*
X45370000Y-36570000D01*
X7850000Y-12370000D02*
X9330000Y-12370000D01*
X9330000Y-12370000D02*
X10250000Y-11450000D01*
X24600000Y-60500000D02*
X26000000Y-61900000D01*
X51155000Y-22450000D02*
X52050000Y-22450000D01*
D56*
X44875000Y-52425000D02*
X44650000Y-52200000D01*
D55*
X34615000Y-45285000D02*
X34615000Y-44085000D01*
X45050000Y-11450000D02*
X44650000Y-11050000D01*
X28490000Y-68750000D02*
X27500000Y-68750000D01*
D56*
X38175000Y-57855000D02*
X36555000Y-57855000D01*
D55*
X37700000Y-29050000D02*
X37700000Y-28100000D01*
X31525000Y-72560000D02*
X30190000Y-72560000D01*
X47250000Y-14150000D02*
X47350000Y-14150000D01*
D56*
X23450000Y-12200000D02*
X23450000Y-13250000D01*
D55*
X34615000Y-44085000D02*
X34615000Y-42985000D01*
D56*
X43850000Y-23450000D02*
X44650000Y-23450000D01*
X44650000Y-23450000D02*
X46850000Y-22050000D01*
X44850000Y-23450000D02*
X46850000Y-25450000D01*
D57*
X19850000Y-30130000D02*
X18930000Y-30130000D01*
D55*
X45050000Y-12450000D02*
X45050000Y-11450000D01*
X45370000Y-36570000D02*
X45050000Y-36250000D01*
X34615000Y-46485000D02*
X34615000Y-45285000D01*
X24000000Y-41250000D02*
X24250000Y-41000000D01*
X55500000Y-77650000D02*
X53850000Y-77650000D01*
X35425000Y-15450000D02*
X35425000Y-17275000D01*
X38750000Y-68740000D02*
X38750000Y-68000000D01*
X38175000Y-47955000D02*
X36655000Y-47955000D01*
X4150000Y-40200000D02*
X4150000Y-39350000D01*
X34615000Y-47415000D02*
X34650000Y-47450000D01*
X37700000Y-28100000D02*
X37250000Y-27650000D01*
%TO.N,/RESET*%
X31750000Y-11340000D02*
X39590000Y-11340000D01*
X40140000Y-18050000D02*
X40140000Y-15715000D01*
X40140000Y-15715000D02*
X39875000Y-15450000D01*
X40250000Y-19900000D02*
X40250000Y-18160000D01*
X42850000Y-20012500D02*
X42850000Y-21250000D01*
X38130000Y-18050000D02*
X40140000Y-18050000D01*
X40250000Y-18160000D02*
X40140000Y-18050000D01*
X39590000Y-11340000D02*
X39750000Y-11500000D01*
%TO.N,+1V1*%
X44050000Y-20012500D02*
X44050000Y-20850000D01*
X44050000Y-20850000D02*
X43650000Y-21250000D01*
X44050000Y-20012500D02*
X44050000Y-17960000D01*
X44850000Y-26887500D02*
X44850000Y-27685323D01*
X42556740Y-28191787D02*
X42556740Y-28476740D01*
X42850000Y-28770000D02*
X42850000Y-26887500D01*
X42556740Y-28476740D02*
X42850000Y-28770000D01*
X44850000Y-27685323D02*
X45015422Y-27850745D01*
X44050000Y-17960000D02*
X43050000Y-16960000D01*
X39600000Y-30800000D02*
X40150000Y-30250000D01*
X39600000Y-31450000D02*
X39600000Y-30800000D01*
%TO.N,+5V*%
X9370000Y-17970000D02*
X9450000Y-18050000D01*
X7850000Y-13170000D02*
X9378530Y-13170000D01*
X9378530Y-13170000D02*
X9874265Y-12674265D01*
X15200000Y-12000000D02*
X15250000Y-12050000D01*
X7850000Y-17970000D02*
X9370000Y-17970000D01*
X37560000Y-64940000D02*
X38750000Y-63750000D01*
X40730000Y-64730000D02*
X40750000Y-64750000D01*
X39750000Y-64730000D02*
X40730000Y-64730000D01*
X36475000Y-64940000D02*
X37560000Y-64940000D01*
D56*
X15250000Y-12050000D02*
X15250000Y-10500000D01*
D55*
X36685000Y-64730000D02*
X36475000Y-64940000D01*
X39750000Y-64730000D02*
X36685000Y-64730000D01*
D56*
X15250000Y-10500000D02*
X15200000Y-10450000D01*
X15950000Y-11200000D02*
X15200000Y-10450000D01*
X17575000Y-11200000D02*
X15950000Y-11200000D01*
D55*
%TO.N,Net-(U4-XIN)*%
X45250000Y-19478640D02*
X45250000Y-20012500D01*
X46108640Y-18620000D02*
X45250000Y-19478640D01*
X48025000Y-12450000D02*
X48250000Y-12675000D01*
X48250000Y-15050000D02*
X46850000Y-16450000D01*
X48250000Y-12675000D02*
X48250000Y-15050000D01*
X49250000Y-12475000D02*
X47275000Y-12475000D01*
X46850000Y-16450000D02*
X46850000Y-18188924D01*
X46850000Y-18188924D02*
X46418924Y-18620000D01*
X46418924Y-18620000D02*
X46108640Y-18620000D01*
X47250000Y-12450000D02*
X48025000Y-12450000D01*
X47275000Y-12475000D02*
X47250000Y-12450000D01*
%TO.N,Net-(C6-Pad2)*%
X46050000Y-17030000D02*
X46050000Y-15150000D01*
X43050000Y-14025000D02*
X44925000Y-14025000D01*
X44925000Y-14025000D02*
X45050000Y-14150000D01*
X46050000Y-15150000D02*
X45050000Y-14150000D01*
D58*
%TO.N,/USB_D-*%
X29453200Y-22365830D02*
X29453200Y-30765830D01*
X6976800Y-14820000D02*
X6928400Y-14868400D01*
X8780001Y-14820000D02*
X8826801Y-14866800D01*
X7850000Y-14820000D02*
X6976800Y-14820000D01*
X40878463Y-35646800D02*
X34334170Y-35646800D01*
X6928400Y-15771600D02*
X6976800Y-15820000D01*
X29453200Y-30765830D02*
X34334170Y-35646800D01*
X42250000Y-33250000D02*
X42250000Y-34275263D01*
X21954170Y-14866800D02*
X29453200Y-22365830D01*
X8826801Y-14866800D02*
X21954170Y-14866800D01*
X7850000Y-14820000D02*
X8780001Y-14820000D01*
X6928400Y-14868400D02*
X6928400Y-15771600D01*
X6976800Y-15820000D02*
X7850000Y-15820000D01*
X42250000Y-34275263D02*
X40878463Y-35646800D01*
%TO.N,/USB_D+*%
X29046800Y-30934170D02*
X29046800Y-22534170D01*
D55*
X8780001Y-16259999D02*
X8780001Y-15320000D01*
D58*
X41046800Y-36053200D02*
X34165830Y-36053200D01*
D55*
X8720000Y-16320000D02*
X8780001Y-16259999D01*
D58*
X43850000Y-33250000D02*
X41046800Y-36053200D01*
X29046800Y-22534170D02*
X21785830Y-15273200D01*
X34165830Y-36053200D02*
X29046800Y-30934170D01*
X8826801Y-15273200D02*
X8780001Y-15320000D01*
D55*
X7850000Y-16320000D02*
X8720000Y-16320000D01*
D58*
X8780001Y-15320000D02*
X7850000Y-15320000D01*
X21785830Y-15273200D02*
X8826801Y-15273200D01*
D55*
%TO.N,Net-(D1-A)*%
X31050000Y-39850000D02*
X31050000Y-37812500D01*
%TO.N,Net-(J1-CC2)*%
X10030000Y-17320000D02*
X10850000Y-18140000D01*
X7850000Y-17320000D02*
X10030000Y-17320000D01*
%TO.N,Net-(J1-CC1)*%
X9360000Y-14320000D02*
X10030000Y-13650000D01*
X7850000Y-14320000D02*
X9360000Y-14320000D01*
%TO.N,/User Interface/RGB_1_BUF*%
X12350000Y-83500000D02*
X12350000Y-81650000D01*
X12500000Y-81500000D02*
X12500000Y-75000000D01*
X12500000Y-75000000D02*
X20020000Y-67480000D01*
X20020000Y-67480000D02*
X31525000Y-67480000D01*
X12350000Y-81650000D02*
X12500000Y-81500000D01*
%TO.N,/PHOTORESISTOR*%
X22000000Y-40240000D02*
X29740000Y-32500000D01*
X36698529Y-24450000D02*
X34398529Y-26750000D01*
X22000000Y-50210000D02*
X21460000Y-50750000D01*
X22000000Y-44750000D02*
X22000000Y-50210000D01*
X22000000Y-44750000D02*
X22000000Y-40240000D01*
X33750000Y-27000000D02*
X33750000Y-28500000D01*
X33750000Y-28500000D02*
X31000000Y-31250000D01*
X29740000Y-32500000D02*
X29750000Y-32500000D01*
X41212500Y-24450000D02*
X36698529Y-24450000D01*
X22000000Y-40240000D02*
X20510000Y-38750000D01*
X34000000Y-26750000D02*
X33750000Y-27000000D01*
X34398529Y-26750000D02*
X34000000Y-26750000D01*
%TO.N,/BUTTON*%
X9730000Y-38750000D02*
X8730000Y-39750000D01*
X39256134Y-25440000D02*
X37410000Y-25440000D01*
X37150000Y-25700000D02*
X36650000Y-26200000D01*
X37410000Y-25440000D02*
X37150000Y-25700000D01*
X36650000Y-26200000D02*
X36650000Y-28350000D01*
X15250000Y-38750000D02*
X9730000Y-38750000D01*
X8730000Y-40070000D02*
X8730000Y-39750000D01*
X39466134Y-25650000D02*
X39256134Y-25440000D01*
X36650000Y-28350000D02*
X34750000Y-30250000D01*
X41212500Y-25650000D02*
X39466134Y-25650000D01*
X4150000Y-44650000D02*
X8730000Y-40070000D01*
%TO.N,/User Interface/RGB_2_BUF*%
X30550001Y-71290000D02*
X26500000Y-75340001D01*
X26500000Y-75340001D02*
X26500000Y-83500000D01*
X31525000Y-71290000D02*
X30550001Y-71290000D01*
%TO.N,/User Interface/RGB_3_BUF*%
X38810000Y-72560000D02*
X41000000Y-74750000D01*
X41000000Y-74750000D02*
X41000000Y-83500000D01*
X36475000Y-72560000D02*
X38810000Y-72560000D01*
D57*
%TO.N,/SD_CS*%
X19760000Y-31450000D02*
X21650000Y-33340000D01*
D55*
X36250000Y-24050000D02*
X41212500Y-24050000D01*
D57*
X21650000Y-33340000D02*
X22760000Y-33340000D01*
X16950000Y-31450000D02*
X19760000Y-31450000D01*
X22760000Y-33340000D02*
X22850000Y-33250000D01*
%TO.N,Net-(J5-DAT1)*%
X19340000Y-24850000D02*
X19940000Y-24250000D01*
X16950000Y-24850000D02*
X19340000Y-24850000D01*
%TO.N,Net-(J5-DAT2)*%
X19050000Y-33340000D02*
X18260000Y-32550000D01*
X18260000Y-32550000D02*
X16950000Y-32550000D01*
D55*
%TO.N,/SPI_SCK*%
X38250000Y-20750000D02*
X38150000Y-20650000D01*
D57*
X16950000Y-28150000D02*
X22460000Y-28150000D01*
D55*
X35000000Y-21150000D02*
X35500000Y-20650000D01*
X30250000Y-25225000D02*
X33275000Y-25225000D01*
X27500000Y-25225000D02*
X24575000Y-28150000D01*
D57*
X22460000Y-28150000D02*
X23650000Y-26960000D01*
D55*
X33275000Y-25225000D02*
X35000000Y-23500000D01*
X38150000Y-20650000D02*
X35500000Y-20650000D01*
X38350000Y-20850000D02*
X38250000Y-20750000D01*
X35000000Y-23500000D02*
X35000000Y-21150000D01*
X41212500Y-20850000D02*
X38350000Y-20850000D01*
X24575000Y-28150000D02*
X22460000Y-28150000D01*
%TO.N,/EEPROM_WP*%
X43125000Y-45415000D02*
X46285000Y-45415000D01*
X46285000Y-45415000D02*
X46415000Y-45285000D01*
%TO.N,/SCL*%
X46050000Y-49850000D02*
X45020000Y-49850000D01*
X45265000Y-56585000D02*
X45900000Y-55950000D01*
X45020000Y-49850000D02*
X43125000Y-47955000D01*
X50050000Y-40630000D02*
X50050000Y-40250000D01*
X50050000Y-40250000D02*
X50850000Y-39450000D01*
X43125000Y-56585000D02*
X45265000Y-56585000D01*
X52850000Y-24450000D02*
X53250000Y-24850000D01*
X48087500Y-24450000D02*
X52850000Y-24450000D01*
%TO.N,/SDA*%
X52250000Y-24850000D02*
X52450000Y-25050000D01*
X52450000Y-25050000D02*
X52915642Y-25515642D01*
X52915642Y-25515642D02*
X53850000Y-25515642D01*
X48850000Y-46650000D02*
X48250000Y-46650000D01*
X48087500Y-24850000D02*
X52250000Y-24850000D01*
X52450000Y-40650000D02*
X52450000Y-40250000D01*
X43125000Y-57855000D02*
X45245000Y-57855000D01*
X52450000Y-40250000D02*
X53050000Y-39650000D01*
X48250000Y-46650000D02*
X48215000Y-46685000D01*
X48215000Y-46685000D02*
X43125000Y-46685000D01*
X45245000Y-57855000D02*
X46900000Y-56200000D01*
%TO.N,/QSPI_CS*%
X53850000Y-35320000D02*
X56010000Y-35320000D01*
X47250000Y-29484314D02*
X47250000Y-26887500D01*
X54015686Y-29650000D02*
X47415686Y-29650000D01*
X56140000Y-35450000D02*
X56140000Y-31774314D01*
X47415686Y-29650000D02*
X47250000Y-29484314D01*
X56010000Y-35320000D02*
X56140000Y-35450000D01*
X56140000Y-31774314D02*
X54015686Y-29650000D01*
D57*
%TO.N,/SPI_MISO*%
X16950000Y-30350000D02*
X17335000Y-30735000D01*
X17335000Y-30735000D02*
X20475000Y-30735000D01*
D55*
X37450000Y-21850000D02*
X36241239Y-21850000D01*
X37650000Y-21650000D02*
X37450000Y-21850000D01*
X41212500Y-21650000D02*
X37650000Y-21650000D01*
D57*
X20475000Y-30735000D02*
X21250000Y-29960000D01*
D55*
X20622342Y-29533923D02*
X20823923Y-29533923D01*
X36241239Y-21850000D02*
X36026328Y-21635089D01*
X20823923Y-29533923D02*
X21250000Y-29960000D01*
D57*
%TO.N,/SPI_MOSI*%
X20050000Y-25940000D02*
X20960000Y-25940000D01*
D55*
X37050000Y-21250000D02*
X41212500Y-21250000D01*
D57*
X20960000Y-25940000D02*
X21050000Y-25850000D01*
X16950000Y-25950000D02*
X20040000Y-25950000D01*
X20040000Y-25950000D02*
X20050000Y-25940000D01*
D55*
%TO.N,/UART_TX*%
X52784270Y-27532799D02*
X52784270Y-26515642D01*
X51918628Y-25650000D02*
X52784270Y-26515642D01*
X62000000Y-50870000D02*
X60380000Y-49250000D01*
X60380000Y-49250000D02*
X60250000Y-49250000D01*
X48087500Y-25650000D02*
X51918628Y-25650000D01*
X60250000Y-49250000D02*
X60250000Y-41450000D01*
X58001471Y-32750000D02*
X52784270Y-27532799D01*
X60500000Y-32750000D02*
X58001471Y-32750000D01*
%TO.N,/UART_RX*%
X55250000Y-44750000D02*
X55750000Y-45250000D01*
X54500000Y-27665686D02*
X54500000Y-28250000D01*
X48087500Y-25250000D02*
X52084314Y-25250000D01*
X52084314Y-25250000D02*
X52949956Y-26115642D01*
X55750000Y-45250000D02*
X55750000Y-48500000D01*
X55750000Y-48500000D02*
X57750000Y-50500000D01*
X52949956Y-26115642D02*
X54500000Y-27665686D01*
%TO.N,Net-(R1-Pad2)*%
X57185000Y-35475000D02*
X57160000Y-35450000D01*
X60050000Y-35475000D02*
X57185000Y-35475000D01*
X57160000Y-36650000D02*
X57160000Y-35450000D01*
%TO.N,Net-(U4-XOUT)*%
X46050000Y-18050000D02*
X44850000Y-19250000D01*
X44850000Y-19250000D02*
X44850000Y-20012500D01*
%TO.N,Net-(U4-USB_DP)*%
X43850000Y-31137300D02*
X43550001Y-30837301D01*
X43953640Y-26050000D02*
X43650000Y-26353640D01*
X43850000Y-31600000D02*
X43850000Y-31137300D01*
X43969951Y-26050000D02*
X43953640Y-26050000D01*
X44069951Y-25950000D02*
X43969951Y-26050000D01*
X43650000Y-26353640D02*
X43650000Y-26887500D01*
D56*
%TO.N,Net-(U6-VDD)*%
X43125000Y-54045000D02*
X45830000Y-54045000D01*
X47885000Y-53975000D02*
X47900000Y-53960000D01*
X45900000Y-53975000D02*
X47885000Y-53975000D01*
X45830000Y-54045000D02*
X45900000Y-53975000D01*
D55*
%TO.N,Net-(U2B-EN)*%
X31525000Y-68750000D02*
X29510000Y-68750000D01*
%TO.N,Net-(U2C-EN)*%
X36475000Y-70020000D02*
X38490000Y-70020000D01*
X38490000Y-70020000D02*
X38750000Y-69760000D01*
%TO.N,Net-(U4-USB_DM)*%
X42250000Y-31600000D02*
X41500000Y-31600000D01*
X41500000Y-31600000D02*
X41450000Y-31650000D01*
X43156740Y-26012033D02*
X43250000Y-26105293D01*
X43250000Y-26105293D02*
X43250000Y-26887500D01*
%TO.N,Net-(U4-GPIO4)*%
X31050000Y-36162500D02*
X31050000Y-34450000D01*
X31050000Y-34450000D02*
X30850000Y-34250000D01*
X48087500Y-24050000D02*
X47050000Y-24050000D01*
%TO.N,Net-(U5-A0)*%
X35695000Y-44145000D02*
X35635000Y-44085000D01*
X38175000Y-44145000D02*
X35695000Y-44145000D01*
%TO.N,Net-(U5-A1)*%
X35635000Y-45285000D02*
X38045000Y-45285000D01*
X38045000Y-45285000D02*
X38175000Y-45415000D01*
%TO.N,Net-(U5-A2)*%
X35635000Y-46485000D02*
X37975000Y-46485000D01*
X37975000Y-46485000D02*
X38175000Y-46685000D01*
%TO.N,Net-(U2A-EN)*%
X31525000Y-64940000D02*
X29450000Y-64940000D01*
X29450000Y-64940000D02*
X29260000Y-64750000D01*
%TO.N,/Button Matrix/C1*%
X46050000Y-19420000D02*
X46450000Y-19020000D01*
X46050000Y-20012500D02*
X46050000Y-19420000D01*
X96750000Y-34709000D02*
X96750000Y-31250000D01*
X129750000Y-73000000D02*
X129750000Y-69500000D01*
X49050000Y-15650000D02*
X49300000Y-15400000D01*
X74750000Y-96000000D02*
X75000000Y-96250000D01*
X67510000Y-14000000D02*
X69000000Y-14000000D01*
X135000000Y-92000000D02*
X135000000Y-75000000D01*
X133750000Y-73750000D02*
X130500000Y-73750000D01*
X49300000Y-15400000D02*
X69100000Y-15400000D01*
X107750000Y-43250000D02*
X108250000Y-42750000D01*
X130500000Y-73750000D02*
X129750000Y-73000000D01*
X75000000Y-96250000D02*
X130750000Y-96250000D01*
X129750000Y-64250000D02*
X129750000Y-69500000D01*
X118750000Y-54250000D02*
X119250000Y-53750000D01*
X74750000Y-92694000D02*
X74750000Y-96000000D01*
X69100000Y-15400000D02*
X69750000Y-14750000D01*
X130750000Y-96250000D02*
X135000000Y-92000000D01*
X107750000Y-46306000D02*
X107750000Y-43250000D01*
X74750000Y-11515000D02*
X74750000Y-15000000D01*
X46450000Y-19020000D02*
X46584610Y-19020000D01*
X69000000Y-14000000D02*
X69750000Y-14750000D01*
X135000000Y-75000000D02*
X133750000Y-73750000D01*
X47250000Y-17450000D02*
X49050000Y-15650000D01*
X118750000Y-57903000D02*
X118750000Y-54250000D01*
X47250000Y-18354610D02*
X47250000Y-17450000D01*
X96750000Y-31250000D02*
X96528765Y-31028765D01*
X46584610Y-19020000D02*
X47250000Y-18354610D01*
%TO.N,/Button Matrix/C2*%
X66490000Y-9500000D02*
X66000000Y-9500000D01*
X129750000Y-51250000D02*
X129750000Y-57903000D01*
X100750000Y-64750000D02*
X101250000Y-64250000D01*
X93500000Y-74250000D02*
X99750000Y-74250000D01*
X109609000Y-30100000D02*
X110500000Y-30100000D01*
X75000000Y-77000000D02*
X74750000Y-77250000D01*
X107750000Y-34709000D02*
X107750000Y-31959000D01*
X105750000Y-62250000D02*
X111500000Y-62250000D01*
X116000000Y-62250000D02*
X127750000Y-62250000D01*
X85750000Y-7500000D02*
X86000000Y-7250000D01*
X85750000Y-92694000D02*
X85750000Y-88250000D01*
X107750000Y-31959000D02*
X109609000Y-30100000D01*
X121181000Y-41125000D02*
X121625000Y-41125000D01*
X66000000Y-9500000D02*
X65250000Y-8750000D01*
X118750000Y-43556000D02*
X121181000Y-41125000D01*
X85750000Y-88250000D02*
X85500000Y-88000000D01*
X90000000Y-83250000D02*
X90000000Y-76500000D01*
X127750000Y-62250000D02*
X128250000Y-61750000D01*
X130000000Y-51000000D02*
X129750000Y-51250000D01*
X85750000Y-11515000D02*
X85750000Y-7500000D01*
X74750000Y-77250000D02*
X74750000Y-81097000D01*
X96750000Y-20250000D02*
X98750000Y-18250000D01*
X100750000Y-73250000D02*
X100750000Y-64750000D01*
X42362859Y-18590317D02*
X42450000Y-18677458D01*
X118750000Y-46306000D02*
X118750000Y-43556000D01*
X42450000Y-18677458D02*
X42450000Y-20012500D01*
X96750000Y-23112000D02*
X96750000Y-20250000D01*
X99750000Y-74250000D02*
X100750000Y-73250000D01*
X57000000Y-14250000D02*
X54250000Y-14250000D01*
%TO.N,/Button Matrix/C3*%
X129750000Y-46306000D02*
X129750000Y-46250000D01*
X96750000Y-8000000D02*
X97750000Y-7000000D01*
X56750000Y-13000000D02*
X54651471Y-13000000D01*
X42050000Y-19258579D02*
X41590606Y-18799185D01*
X129750000Y-49500000D02*
X130250000Y-50000000D01*
X120459000Y-30250000D02*
X121750000Y-30250000D01*
X54651471Y-13000000D02*
X51901471Y-10250000D01*
X107750000Y-20250000D02*
X109750000Y-18250000D01*
X85750000Y-81097000D02*
X85750000Y-76250000D01*
X51901471Y-10250000D02*
X41500000Y-10250000D01*
X136350000Y-91215686D02*
X130565686Y-97000000D01*
X96750000Y-11515000D02*
X96750000Y-8000000D01*
X130565686Y-97000000D02*
X98250000Y-97000000D01*
X129750000Y-41750000D02*
X129750000Y-46306000D01*
X73250000Y-62250000D02*
X73750000Y-62750000D01*
X130250000Y-50000000D02*
X136350000Y-56100000D01*
X118750000Y-31959000D02*
X120459000Y-30250000D01*
X85750000Y-76250000D02*
X86000000Y-76000000D01*
X129750000Y-46250000D02*
X129750000Y-49500000D01*
X74750000Y-65000000D02*
X74750000Y-69500000D01*
X118750000Y-34709000D02*
X118750000Y-31959000D01*
X107750000Y-23112000D02*
X107750000Y-20250000D01*
X69010000Y-62250000D02*
X73250000Y-62250000D01*
X96750000Y-92694000D02*
X96750000Y-88500000D01*
X42050000Y-20012500D02*
X42050000Y-19258579D01*
X136350000Y-56100000D02*
X136350000Y-91215686D01*
%TO.N,/Button Matrix/C4*%
X107750000Y-7750000D02*
X108000000Y-7500000D01*
X137500000Y-42459000D02*
X137500000Y-86000000D01*
X129750000Y-34709000D02*
X137500000Y-42459000D01*
X129750000Y-30250000D02*
X129750000Y-34709000D01*
X107750000Y-92694000D02*
X107750000Y-88500000D01*
X85750000Y-65750000D02*
X87250000Y-64250000D01*
X96750000Y-81097000D02*
X96750000Y-77850000D01*
X118750000Y-19250000D02*
X119500000Y-18500000D01*
X69500000Y-51750000D02*
X70350000Y-51750000D01*
X118750000Y-23112000D02*
X118750000Y-19250000D01*
X70350000Y-51750000D02*
X70850000Y-51250000D01*
X96750000Y-77850000D02*
X98750000Y-75850000D01*
X64954286Y-52490000D02*
X64500000Y-52035714D01*
X76000000Y-53000000D02*
X74750000Y-54250000D01*
X42020880Y-22050000D02*
X42039527Y-22031353D01*
X107750000Y-11515000D02*
X107750000Y-7750000D01*
X85750000Y-69500000D02*
X85750000Y-65750000D01*
X41212500Y-22050000D02*
X42020880Y-22050000D01*
X65250000Y-52490000D02*
X64954286Y-52490000D01*
X74750000Y-54250000D02*
X74750000Y-57903000D01*
%TO.N,/Button Matrix/C5*%
X40250000Y-28098529D02*
X40750000Y-28598529D01*
X41746360Y-22850000D02*
X41212500Y-22850000D01*
X42500000Y-36000000D02*
X45350000Y-38850000D01*
X85750000Y-57903000D02*
X85750000Y-53500000D01*
X56284314Y-40850000D02*
X72000000Y-40850000D01*
X118750000Y-11515000D02*
X118750000Y-7500000D01*
X41746360Y-22850000D02*
X40450000Y-22850000D01*
X107750000Y-81097000D02*
X107750000Y-76750000D01*
X67010000Y-41750000D02*
X71100000Y-41750000D01*
X96750000Y-69500000D02*
X96750000Y-64500000D01*
X40750000Y-28598529D02*
X40750000Y-32250000D01*
X45350000Y-38850000D02*
X54284314Y-38850000D01*
X107750000Y-76750000D02*
X108375000Y-76125000D01*
X54284314Y-38850000D02*
X56284314Y-40850000D01*
X128350000Y-26501472D02*
X127601472Y-27250000D01*
X40450000Y-22850000D02*
X40250000Y-23050000D01*
X96750000Y-64500000D02*
X96625000Y-64375000D01*
X74750000Y-42000000D02*
X74750000Y-46306000D01*
X40250000Y-27000000D02*
X40250000Y-28098529D01*
X40750000Y-34000000D02*
X41000000Y-34250000D01*
X127601472Y-27250000D02*
X80500000Y-27250000D01*
X71100000Y-41750000D02*
X72000000Y-40850000D01*
X40750000Y-32250000D02*
X40750000Y-34000000D01*
X129750000Y-18750000D02*
X129750000Y-23112000D01*
X118750000Y-92694000D02*
X118750000Y-88500000D01*
%TO.N,/Button Matrix/C6*%
X129501471Y-63650000D02*
X129998529Y-63650000D01*
X134250000Y-89750000D02*
X134250000Y-88500000D01*
X51000000Y-35000000D02*
X50750000Y-34750000D01*
X129750000Y-92694000D02*
X129750000Y-88000000D01*
X118750000Y-77750000D02*
X120625000Y-75875000D01*
X75000000Y-30750000D02*
X75000000Y-31500000D01*
X55500000Y-39500000D02*
X51000000Y-35000000D01*
X72750000Y-39500000D02*
X55500000Y-39500000D01*
X135750000Y-75184314D02*
X135750000Y-88000000D01*
X50750000Y-34750000D02*
X50750000Y-31500000D01*
X74250000Y-39500000D02*
X72750000Y-39500000D01*
X128950000Y-66765256D02*
X128950000Y-64201471D01*
X130665686Y-64317157D02*
X130665686Y-70100000D01*
X74750000Y-34709000D02*
X74750000Y-37750000D01*
X107750000Y-65500000D02*
X109000000Y-64250000D01*
X96750000Y-53500000D02*
X97500000Y-52750000D01*
X75000000Y-31500000D02*
X74750000Y-31750000D01*
X137250000Y-89740000D02*
X137250000Y-88750000D01*
X41212500Y-23250000D02*
X41766395Y-23250000D01*
X85750000Y-46306000D02*
X85750000Y-41000000D01*
X96750000Y-57903000D02*
X96750000Y-53500000D01*
X129998529Y-63650000D02*
X130665686Y-64317157D01*
X107750000Y-69500000D02*
X107750000Y-65500000D01*
X74750000Y-39000000D02*
X74250000Y-39500000D01*
X74750000Y-31750000D02*
X74750000Y-34709000D01*
X130665686Y-70100000D02*
X135750000Y-75184314D01*
X41766395Y-23250000D02*
X42243503Y-23727108D01*
X74750000Y-37750000D02*
X74750000Y-39000000D01*
X129750000Y-11515000D02*
X128950000Y-12315000D01*
X118750000Y-81097000D02*
X118750000Y-77750000D01*
X74750000Y-37750000D02*
X74750000Y-31750000D01*
X128950000Y-64201471D02*
X129501471Y-63650000D01*
X128950000Y-12315000D02*
X128950000Y-66765256D01*
%TO.N,/Button Matrix/C7*%
X68700000Y-22450000D02*
X65000000Y-22450000D01*
X107750000Y-57903000D02*
X107750000Y-53750000D01*
X59250000Y-63750000D02*
X59250000Y-81000000D01*
X96750000Y-46306000D02*
X96750000Y-41750000D01*
X65000000Y-22450000D02*
X54000000Y-22450000D01*
X85750000Y-30750000D02*
X86732842Y-29767158D01*
X74750000Y-18750000D02*
X74750000Y-23112000D01*
X96750000Y-49056000D02*
X94306000Y-51500000D01*
X129750000Y-81097000D02*
X129750000Y-76500000D01*
X41212500Y-23650000D02*
X39862131Y-23650000D01*
X94306000Y-51500000D02*
X71500000Y-51500000D01*
X71000000Y-24000000D02*
X70250000Y-24000000D01*
X85750000Y-34709000D02*
X85750000Y-30750000D01*
X57250000Y-84500000D02*
X57250000Y-89000000D01*
X118750000Y-69500000D02*
X118750000Y-64500000D01*
X39862131Y-23650000D02*
X39480329Y-23268198D01*
X70250000Y-24000000D02*
X68700000Y-22450000D01*
X71500000Y-51500000D02*
X59250000Y-63750000D01*
X118750000Y-64500000D02*
X120107842Y-63142158D01*
X65740000Y-23190000D02*
X65000000Y-22450000D01*
X65740000Y-23750000D02*
X65740000Y-23190000D01*
X96750000Y-46306000D02*
X96750000Y-49056000D01*
X107750000Y-53750000D02*
X109232842Y-52267158D01*
X96750000Y-41750000D02*
X97732842Y-40767158D01*
D56*
%TO.N,Net-(BT1-+)*%
X43600000Y-61650000D02*
X43635000Y-61685000D01*
X40400000Y-58450000D02*
X43600000Y-61650000D01*
X40400000Y-58450000D02*
X40400000Y-57450000D01*
X39535000Y-56585000D02*
X38175000Y-56585000D01*
X40400000Y-57450000D02*
X39535000Y-56585000D01*
X43635000Y-61685000D02*
X55500000Y-61685000D01*
%TO.N,/Button Matrix/R1*%
X104000000Y-5750000D02*
X115000000Y-5750000D01*
X72750000Y-8765000D02*
X75765000Y-5750000D01*
D55*
X52396625Y-19250000D02*
X52850000Y-19250000D01*
D56*
X94750000Y-8000000D02*
X92500000Y-5750000D01*
X94750000Y-11515000D02*
X94750000Y-8000000D01*
D55*
X66050000Y-19250000D02*
X66250000Y-19450000D01*
X49596625Y-22050000D02*
X50996625Y-20650000D01*
D56*
X127750000Y-6750000D02*
X127750000Y-11515000D01*
D55*
X50996625Y-20650000D02*
X52396625Y-19250000D01*
D56*
X116750000Y-7500000D02*
X115000000Y-5750000D01*
X83750000Y-7250000D02*
X82250000Y-5750000D01*
X105750000Y-11515000D02*
X105750000Y-7500000D01*
X75765000Y-5750000D02*
X82250000Y-5750000D01*
D55*
X68688000Y-19062000D02*
X72562000Y-19062000D01*
D56*
X82250000Y-5750000D02*
X92500000Y-5750000D01*
D55*
X48087500Y-22050000D02*
X49596625Y-22050000D01*
D56*
X72750000Y-11515000D02*
X72750000Y-8765000D01*
X115000000Y-5750000D02*
X126750000Y-5750000D01*
X116750000Y-11515000D02*
X116750000Y-7500000D01*
X105750000Y-7500000D02*
X104000000Y-5750000D01*
X92500000Y-5750000D02*
X104000000Y-5750000D01*
D55*
X67050000Y-20250000D02*
X67500000Y-20250000D01*
X66250000Y-19450000D02*
X67050000Y-20250000D01*
X67500000Y-20250000D02*
X68688000Y-19062000D01*
X72750000Y-19250000D02*
X72750000Y-11515000D01*
X52850000Y-19250000D02*
X66050000Y-19250000D01*
D56*
X83750000Y-11515000D02*
X83750000Y-7250000D01*
D55*
X72750000Y-23112000D02*
X72750000Y-19250000D01*
X72562000Y-19062000D02*
X72750000Y-19250000D01*
D56*
X126750000Y-5750000D02*
X127750000Y-6750000D01*
D55*
%TO.N,/Button Matrix/R2*%
X82377256Y-17250000D02*
X83500000Y-17250000D01*
X83750000Y-18500000D02*
X85000000Y-17250000D01*
X48850000Y-21650000D02*
X51650000Y-18850000D01*
X78250000Y-29500000D02*
X82000000Y-29500000D01*
X94750000Y-18750000D02*
X93250000Y-17250000D01*
X83500000Y-17250000D02*
X85000000Y-17250000D01*
X51650000Y-18850000D02*
X66450000Y-18850000D01*
X75209000Y-29500000D02*
X78250000Y-29500000D01*
X80750000Y-17250000D02*
X83500000Y-17250000D01*
X125750000Y-17250000D02*
X127750000Y-19250000D01*
X48087500Y-21650000D02*
X48850000Y-21650000D01*
X79250000Y-20377256D02*
X82377256Y-17250000D01*
X72750000Y-34709000D02*
X72750000Y-31959000D01*
X82000000Y-29500000D02*
X83750000Y-31250000D01*
X67050000Y-19450000D02*
X66450000Y-18850000D01*
X78250000Y-29500000D02*
X79250000Y-28500000D01*
X105750000Y-19250000D02*
X103750000Y-17250000D01*
X72750000Y-31959000D02*
X75209000Y-29500000D01*
X103750000Y-17250000D02*
X115000000Y-17250000D01*
X79250000Y-28500000D02*
X79250000Y-20377256D01*
X116750000Y-23112000D02*
X116750000Y-19000000D01*
X83750000Y-23112000D02*
X83750000Y-18500000D01*
X105750000Y-23112000D02*
X105750000Y-19250000D01*
X116750000Y-19000000D02*
X115000000Y-17250000D01*
X115000000Y-17250000D02*
X125750000Y-17250000D01*
X83750000Y-31250000D02*
X83750000Y-34709000D01*
X93250000Y-17250000D02*
X103750000Y-17250000D01*
X67250000Y-19450000D02*
X67050000Y-19450000D01*
X127750000Y-19250000D02*
X127750000Y-23112000D01*
X85000000Y-17250000D02*
X93250000Y-17250000D01*
X94750000Y-23112000D02*
X94750000Y-18750000D01*
%TO.N,/Button Matrix/R3*%
X90500000Y-39000000D02*
X89250000Y-40250000D01*
X48621360Y-21250000D02*
X51421360Y-18450000D01*
X83750000Y-46306000D02*
X83750000Y-42000000D01*
X82000000Y-40250000D02*
X78250000Y-40250000D01*
X48087500Y-21250000D02*
X48621360Y-21250000D01*
X94750000Y-46306000D02*
X94750000Y-43556000D01*
X92724256Y-29500000D02*
X90500000Y-31724256D01*
X78250000Y-40250000D02*
X75250000Y-40250000D01*
X75250000Y-40250000D02*
X72750000Y-42750000D01*
X116750000Y-34709000D02*
X116750000Y-30500000D01*
X89250000Y-40250000D02*
X88750000Y-40250000D01*
X126250000Y-29500000D02*
X127750000Y-31000000D01*
X115750000Y-29500000D02*
X126250000Y-29500000D01*
X104500000Y-29500000D02*
X115750000Y-29500000D01*
X94750000Y-43556000D02*
X91444000Y-40250000D01*
X83750000Y-42000000D02*
X82000000Y-40250000D01*
X127750000Y-31000000D02*
X127750000Y-34709000D01*
X90500000Y-31724256D02*
X90500000Y-39000000D01*
X97209000Y-29500000D02*
X97250000Y-29500000D01*
X97250000Y-29500000D02*
X104500000Y-29500000D01*
X67750000Y-18450000D02*
X68450000Y-18450000D01*
X94750000Y-34709000D02*
X94750000Y-31959000D01*
X105750000Y-34709000D02*
X105750000Y-30750000D01*
X94750000Y-31959000D02*
X97209000Y-29500000D01*
X68500000Y-40250000D02*
X78250000Y-40250000D01*
X116750000Y-30500000D02*
X115750000Y-29500000D01*
X97250000Y-29500000D02*
X92724256Y-29500000D01*
X91444000Y-40250000D02*
X88750000Y-40250000D01*
X68450000Y-18450000D02*
X68650000Y-18250000D01*
X88750000Y-40250000D02*
X82000000Y-40250000D01*
X105750000Y-30750000D02*
X104500000Y-29500000D01*
X51421360Y-18450000D02*
X67750000Y-18450000D01*
X72750000Y-42750000D02*
X72750000Y-46306000D01*
%TO.N,/Button Matrix/R4*%
X82000000Y-52000000D02*
X93000000Y-52000000D01*
X93000000Y-52000000D02*
X99750000Y-52000000D01*
X127750000Y-41500000D02*
X127750000Y-46306000D01*
X101000000Y-50750000D02*
X99750000Y-52000000D01*
X72750000Y-52100000D02*
X76150000Y-52100000D01*
X116750000Y-46306000D02*
X116750000Y-41250000D01*
X94750000Y-57903000D02*
X94750000Y-53750000D01*
X51287500Y-17650000D02*
X48087500Y-20850000D01*
X69500000Y-17650000D02*
X51287500Y-17650000D01*
X116750000Y-41250000D02*
X115750000Y-40250000D01*
X72750000Y-57903000D02*
X72750000Y-55153000D01*
X105750000Y-53750000D02*
X105750000Y-57903000D01*
X83750000Y-57903000D02*
X83750000Y-53750000D01*
X83750000Y-53750000D02*
X82000000Y-52000000D01*
X94750000Y-53750000D02*
X93000000Y-52000000D01*
X76150000Y-52100000D02*
X76250000Y-52000000D01*
X115750000Y-40250000D02*
X126500000Y-40250000D01*
X109056000Y-40250000D02*
X115750000Y-40250000D01*
X69250000Y-50500000D02*
X72750000Y-50500000D01*
X105750000Y-46306000D02*
X105750000Y-43556000D01*
X104000000Y-52000000D02*
X105750000Y-53750000D01*
X105750000Y-43556000D02*
X109056000Y-40250000D01*
X75903000Y-52000000D02*
X76250000Y-52000000D01*
X126500000Y-40250000D02*
X127750000Y-41500000D01*
X104571256Y-40250000D02*
X101000000Y-43821256D01*
X101000000Y-43821256D02*
X101000000Y-50750000D01*
X109056000Y-40250000D02*
X104571256Y-40250000D01*
X99750000Y-52000000D02*
X104000000Y-52000000D01*
X69650000Y-17500000D02*
X69500000Y-17650000D01*
X72750000Y-55153000D02*
X75903000Y-52000000D01*
X76250000Y-52000000D02*
X82000000Y-52000000D01*
%TO.N,+3V3*%
X39130000Y-22450000D02*
X39130000Y-22770000D01*
X67990000Y-61010000D02*
X68000000Y-61000000D01*
X42450000Y-26887500D02*
X42450000Y-27450000D01*
X47920000Y-35320000D02*
X48250000Y-35650000D01*
X41650000Y-28770000D02*
X41650000Y-28650000D01*
X46445000Y-44085000D02*
X46445000Y-43805000D01*
X46650000Y-35320000D02*
X47920000Y-35320000D01*
X46385000Y-44145000D02*
X46445000Y-44085000D01*
X44650000Y-17850000D02*
X45025735Y-18225735D01*
X41650000Y-28250000D02*
X41650000Y-27287500D01*
X137250000Y-90760000D02*
X137250000Y-91750000D01*
X39600000Y-29050000D02*
X39600000Y-27700000D01*
X47900000Y-52600000D02*
X48750000Y-51750000D01*
D57*
X23650000Y-25250000D02*
X23850000Y-25050000D01*
D55*
X39130000Y-22450000D02*
X39130000Y-22530000D01*
X44050000Y-27650000D02*
X44250000Y-27850000D01*
X38930000Y-26050000D02*
X41212500Y-26050000D01*
X56140000Y-36650000D02*
X55450000Y-36650000D01*
D57*
X22160000Y-28940000D02*
X22250000Y-28850000D01*
D55*
X10250000Y-39750000D02*
X10750000Y-40250000D01*
X67510000Y-9500000D02*
X67510000Y-10740000D01*
X38930000Y-26770000D02*
X38850000Y-26850000D01*
X39130000Y-22770000D02*
X38650000Y-23250000D01*
X50195000Y-22450000D02*
X50195000Y-22300154D01*
X38210000Y-66210000D02*
X38250000Y-66250000D01*
X39600000Y-27700000D02*
X39650000Y-27650000D01*
X19490000Y-38750000D02*
X18750000Y-38750000D01*
X66490000Y-12760000D02*
X66500000Y-12750000D01*
X44450000Y-17705000D02*
X44450000Y-20012500D01*
X44450000Y-26887500D02*
X44450000Y-27650000D01*
D56*
X47960000Y-53000000D02*
X47900000Y-52940000D01*
D55*
X46445000Y-43805000D02*
X47000000Y-43250000D01*
D56*
X21500000Y-10300000D02*
X21450000Y-10250000D01*
D57*
X20740000Y-26960000D02*
X21050000Y-26650000D01*
D55*
X31720000Y-14500000D02*
X31700000Y-14480000D01*
D57*
X16950000Y-29250000D02*
X18650000Y-29250000D01*
D55*
X65990000Y-41750000D02*
X64750000Y-41750000D01*
X46330000Y-37250000D02*
X46330000Y-35640000D01*
X44050000Y-26887500D02*
X44050000Y-27650000D01*
X49970000Y-26850000D02*
X49250000Y-26850000D01*
X44250000Y-28770000D02*
X44930000Y-28770000D01*
D57*
X20960000Y-24250000D02*
X22050000Y-24250000D01*
X21250000Y-28940000D02*
X22160000Y-28940000D01*
D55*
X49970000Y-26770000D02*
X49250000Y-26050000D01*
X66760000Y-23750000D02*
X67750000Y-23750000D01*
X49250000Y-26050000D02*
X48087500Y-26050000D01*
D57*
X19050000Y-34360000D02*
X19050000Y-35450000D01*
D55*
X44250000Y-27850000D02*
X44250000Y-28770000D01*
D57*
X20050000Y-26960000D02*
X20740000Y-26960000D01*
D55*
X65250000Y-53510000D02*
X65250000Y-54250000D01*
D56*
X49900000Y-51850000D02*
X50250000Y-51500000D01*
D55*
X42450000Y-27450000D02*
X41650000Y-28250000D01*
X52450000Y-41670000D02*
X52450000Y-42050000D01*
D57*
X19770000Y-29250000D02*
X19850000Y-29170000D01*
D55*
X41650000Y-28650000D02*
X40850000Y-27850000D01*
X44450000Y-27650000D02*
X44250000Y-27850000D01*
X20600000Y-60500000D02*
X18750000Y-62350000D01*
X67990000Y-62250000D02*
X67990000Y-61010000D01*
X44650000Y-17505000D02*
X44650000Y-17850000D01*
D57*
X21650000Y-34360000D02*
X21650000Y-35450000D01*
D56*
X49900000Y-53000000D02*
X49900000Y-51850000D01*
D55*
X43125000Y-44145000D02*
X46385000Y-44145000D01*
X41650000Y-27287500D02*
X42050000Y-26887500D01*
D56*
X23450000Y-10300000D02*
X21500000Y-10300000D01*
X50500000Y-51250000D02*
X51250000Y-51250000D01*
D55*
X52450000Y-42050000D02*
X51850000Y-42650000D01*
X67510000Y-10740000D02*
X67500000Y-10750000D01*
X36475000Y-66210000D02*
X38210000Y-66210000D01*
X46330000Y-37250000D02*
X47050000Y-37250000D01*
X41160000Y-17660000D02*
X40750000Y-17250000D01*
X49970000Y-26850000D02*
X49970000Y-26770000D01*
X66490000Y-14000000D02*
X66490000Y-12760000D01*
D56*
X50250000Y-51500000D02*
X50500000Y-51250000D01*
D57*
X18650000Y-29250000D02*
X19770000Y-29250000D01*
D55*
X9750000Y-39750000D02*
X10250000Y-39750000D01*
D56*
X19850000Y-10250000D02*
X21450000Y-10250000D01*
X49900000Y-53000000D02*
X47960000Y-53000000D01*
D55*
X41160000Y-18050000D02*
X41160000Y-17660000D01*
X46330000Y-35640000D02*
X46650000Y-35320000D01*
X47900000Y-52940000D02*
X47900000Y-52600000D01*
X18750000Y-62350000D02*
X18750000Y-63250000D01*
X50195000Y-22300154D02*
X50829636Y-21665518D01*
X44930000Y-28770000D02*
X45050000Y-28650000D01*
D57*
X23650000Y-25940000D02*
X23650000Y-25250000D01*
D55*
X39130000Y-22450000D02*
X41212500Y-22450000D01*
X50195000Y-22450000D02*
X48087500Y-22450000D01*
X38930000Y-26050000D02*
X38930000Y-26770000D01*
X41650000Y-28770000D02*
X41650000Y-28250000D01*
X50050000Y-41650000D02*
X50850000Y-42450000D01*
X44650000Y-17505000D02*
X44450000Y-17705000D01*
%TO.N,/Button Matrix/R5*%
X49644326Y-17250000D02*
X47250000Y-19644326D01*
X72750000Y-65500000D02*
X72750000Y-69500000D01*
X116750000Y-57903000D02*
X116750000Y-55153000D01*
X120403000Y-51500000D02*
X114250000Y-51500000D01*
X83750000Y-64000000D02*
X83000000Y-63250000D01*
X83750000Y-69500000D02*
X83750000Y-64000000D01*
X75000000Y-63250000D02*
X72750000Y-65500000D01*
X105750000Y-69500000D02*
X105750000Y-65000000D01*
X94000000Y-63250000D02*
X83000000Y-63250000D01*
X105750000Y-65000000D02*
X104000000Y-63250000D01*
X120403000Y-51500000D02*
X127000000Y-51500000D01*
X115500000Y-63250000D02*
X111750000Y-63250000D01*
X47250000Y-19644326D02*
X47250000Y-20012500D01*
X116750000Y-69500000D02*
X116750000Y-64500000D01*
X94750000Y-64000000D02*
X94000000Y-63250000D01*
X70250000Y-16000000D02*
X69000000Y-17250000D01*
X116750000Y-64500000D02*
X115500000Y-63250000D01*
X112750000Y-62250000D02*
X111750000Y-63250000D01*
X127000000Y-51500000D02*
X127750000Y-52250000D01*
X104000000Y-63250000D02*
X94000000Y-63250000D01*
X114250000Y-51500000D02*
X112750000Y-53000000D01*
X127750000Y-52250000D02*
X127750000Y-57903000D01*
X116750000Y-55153000D02*
X120403000Y-51500000D01*
X94750000Y-69500000D02*
X94750000Y-64000000D01*
X83000000Y-63250000D02*
X75000000Y-63250000D01*
X112750000Y-53000000D02*
X112750000Y-62250000D01*
X111750000Y-63250000D02*
X104000000Y-63250000D01*
X69000000Y-17250000D02*
X49644326Y-17250000D01*
%TO.N,/Button Matrix/R6*%
X115250000Y-75250000D02*
X123250000Y-75250000D01*
X123250000Y-66132628D02*
X124132628Y-65250000D01*
X123250000Y-75250000D02*
X123250000Y-66132628D01*
X125750000Y-75250000D02*
X127750000Y-77250000D01*
X83750000Y-81097000D02*
X83750000Y-76750000D01*
X75847000Y-75250000D02*
X76500000Y-75250000D01*
X46850000Y-19478640D02*
X47650000Y-18678640D01*
X46850000Y-20012500D02*
X46850000Y-19478640D01*
X47650000Y-18678640D02*
X47650000Y-18050000D01*
X49200000Y-16500000D02*
X63250000Y-16500000D01*
X72750000Y-78347000D02*
X75847000Y-75250000D01*
X71500000Y-72500000D02*
X74250000Y-75250000D01*
X82250000Y-75250000D02*
X93500000Y-75250000D01*
X127000000Y-65250000D02*
X127750000Y-66000000D01*
X105750000Y-77000000D02*
X104000000Y-75250000D01*
X127750000Y-66000000D02*
X127750000Y-69500000D01*
X72750000Y-81097000D02*
X72750000Y-78347000D01*
X116750000Y-81097000D02*
X116750000Y-76750000D01*
X83750000Y-76750000D02*
X82250000Y-75250000D01*
X48850000Y-16850000D02*
X49200000Y-16500000D01*
X94750000Y-76500000D02*
X93500000Y-75250000D01*
X94750000Y-81097000D02*
X94750000Y-76500000D01*
X68000000Y-72500000D02*
X71500000Y-72500000D01*
X127750000Y-77250000D02*
X127750000Y-81097000D01*
X104000000Y-75250000D02*
X115250000Y-75250000D01*
X74250000Y-75250000D02*
X76500000Y-75250000D01*
X123250000Y-75250000D02*
X125750000Y-75250000D01*
X47650000Y-18050000D02*
X48850000Y-16850000D01*
X93500000Y-75250000D02*
X104000000Y-75250000D01*
X76500000Y-75250000D02*
X82250000Y-75250000D01*
X66250000Y-50750000D02*
X66250000Y-54250000D01*
X105750000Y-81097000D02*
X105750000Y-77000000D01*
X116750000Y-76750000D02*
X115250000Y-75250000D01*
X124132628Y-65250000D02*
X127000000Y-65250000D01*
X66250000Y-54250000D02*
X66750000Y-54750000D01*
%TO.N,/Button Matrix/R7*%
X116750000Y-92694000D02*
X116750000Y-88097000D01*
X62750000Y-81500000D02*
X61750000Y-82500000D01*
X72750000Y-89944000D02*
X69903000Y-87097000D01*
X69903000Y-87097000D02*
X82750000Y-87097000D01*
X72750000Y-92694000D02*
X72750000Y-89944000D01*
X55250000Y-84250000D02*
X55250000Y-89000000D01*
X46450000Y-20742955D02*
X46268601Y-20924354D01*
X46450000Y-20012500D02*
X46450000Y-20742955D01*
X59500000Y-48500000D02*
X59500000Y-58000000D01*
X94750000Y-88097000D02*
X93750000Y-87097000D01*
X105750000Y-88000000D02*
X104847000Y-87097000D01*
X61750000Y-82500000D02*
X57000000Y-82500000D01*
X115750000Y-87097000D02*
X127097000Y-87097000D01*
X63750000Y-82500000D02*
X61750000Y-82500000D01*
X57000000Y-82500000D02*
X55250000Y-84250000D01*
X82750000Y-87097000D02*
X93750000Y-87097000D01*
X104500000Y-87097000D02*
X115750000Y-87097000D01*
X127097000Y-87097000D02*
X127750000Y-87750000D01*
X94750000Y-92694000D02*
X94750000Y-88097000D01*
X116750000Y-88097000D02*
X115750000Y-87097000D01*
X104847000Y-87097000D02*
X104500000Y-87097000D01*
X83750000Y-92694000D02*
X83750000Y-88097000D01*
X93750000Y-87097000D02*
X104500000Y-87097000D01*
X62750000Y-63750000D02*
X62750000Y-81500000D01*
X83750000Y-88097000D02*
X82750000Y-87097000D01*
X54500000Y-21250000D02*
X56500000Y-21250000D01*
X65306000Y-82500000D02*
X63750000Y-82500000D01*
X56500000Y-21250000D02*
X56750000Y-21500000D01*
X127750000Y-87750000D02*
X127750000Y-92694000D01*
X59500000Y-58000000D02*
X61000000Y-59500000D01*
X62750000Y-81500000D02*
X63750000Y-82500000D01*
X69903000Y-87097000D02*
X65306000Y-82500000D01*
X105750000Y-92694000D02*
X105750000Y-88000000D01*
%TO.N,/RGB_3*%
X34400000Y-70189999D02*
X34400000Y-65000000D01*
X56850000Y-23050000D02*
X57650000Y-23850000D01*
X37475735Y-62524265D02*
X38500000Y-61500000D01*
X34400000Y-65000000D02*
X36875735Y-62524265D01*
X49658866Y-22850000D02*
X49868866Y-23060000D01*
X35500001Y-71290000D02*
X34400000Y-70189999D01*
X36875735Y-62524265D02*
X37475735Y-62524265D01*
X39750000Y-60250000D02*
X41000000Y-60250000D01*
X53450000Y-23050000D02*
X56850000Y-23050000D01*
X57750000Y-23950000D02*
X57650000Y-23850000D01*
X49868866Y-23060000D02*
X53440000Y-23060000D01*
X53440000Y-23060000D02*
X53450000Y-23050000D01*
X36475000Y-71290000D02*
X35500001Y-71290000D01*
X38500000Y-61500000D02*
X39750000Y-60250000D01*
X57750000Y-30000000D02*
X57750000Y-23950000D01*
X48087500Y-22850000D02*
X49658866Y-22850000D01*
%TO.N,/RGB_2*%
X49703180Y-23460000D02*
X56260000Y-23460000D01*
X37174265Y-61924265D02*
X36891421Y-61924265D01*
X36891421Y-61924265D02*
X34000000Y-64815686D01*
X56450000Y-23650000D02*
X57100000Y-24300000D01*
X34000000Y-64815686D02*
X34000000Y-68519999D01*
X34000000Y-68519999D02*
X32499999Y-70020000D01*
X49493180Y-23250000D02*
X49703180Y-23460000D01*
X32499999Y-70020000D02*
X31525000Y-70020000D01*
X56260000Y-23460000D02*
X56450000Y-23650000D01*
X48087500Y-23250000D02*
X49493180Y-23250000D01*
X57100000Y-24300000D02*
X57100000Y-31000000D01*
%TO.N,/RGB_1*%
X33209999Y-65500000D02*
X33250000Y-65500000D01*
X56500000Y-24548529D02*
X56500000Y-30250000D01*
X49327494Y-23650000D02*
X49537494Y-23860000D01*
X56201471Y-24250000D02*
X56500000Y-24548529D01*
X32499999Y-66210000D02*
X33209999Y-65500000D01*
X48087500Y-23650000D02*
X49327494Y-23650000D01*
X33250000Y-65500000D02*
X33500000Y-65250000D01*
X31525000Y-66210000D02*
X32499999Y-66210000D01*
X33500000Y-65250000D02*
X33500000Y-64750000D01*
X55811471Y-23860000D02*
X56201471Y-24250000D01*
X52450000Y-23860000D02*
X55811471Y-23860000D01*
X49537494Y-23860000D02*
X52450000Y-23860000D01*
X33500000Y-64750000D02*
X39000000Y-59250000D01*
%TO.N,Net-(U3-CLK)*%
X45650000Y-29050000D02*
X45650000Y-26887500D01*
X46650000Y-32780000D02*
X45850001Y-32780000D01*
X45850001Y-32780000D02*
X45550000Y-32479999D01*
X45550000Y-29150000D02*
X45650000Y-29050000D01*
X45550000Y-32479999D02*
X45550000Y-29150000D01*
%TO.N,Net-(U3-DO(IO1))*%
X54950000Y-31150000D02*
X53850000Y-30050000D01*
X46850000Y-29650000D02*
X46850000Y-26887500D01*
X53850000Y-34050000D02*
X54649999Y-34050000D01*
X54950000Y-33749999D02*
X54950000Y-31150000D01*
X54649999Y-34050000D02*
X54950000Y-33749999D01*
X47250000Y-30050000D02*
X46850000Y-29650000D01*
X53850000Y-30050000D02*
X47250000Y-30050000D01*
%TO.N,Net-(U3-IO3)*%
X44950000Y-33149999D02*
X44950000Y-30850000D01*
X45250000Y-26250000D02*
X45250000Y-26887500D01*
X45850001Y-34050000D02*
X44950000Y-33149999D01*
X46650000Y-34050000D02*
X45850001Y-34050000D01*
X45850000Y-25650000D02*
X45250000Y-26250000D01*
%TO.N,Net-(U3-IO2)*%
X52250000Y-31979999D02*
X53050001Y-32780000D01*
X52250000Y-31050000D02*
X52250000Y-31979999D01*
X46450000Y-26887500D02*
X46450000Y-29850000D01*
X46450000Y-29850000D02*
X47050000Y-30450000D01*
X47050000Y-30450000D02*
X51650000Y-30450000D01*
X51650000Y-30450000D02*
X52250000Y-31050000D01*
X53050001Y-32780000D02*
X53850000Y-32780000D01*
%TO.N,Net-(U3-DI(IO0))*%
X46650000Y-31510000D02*
X46050000Y-30910000D01*
X46050000Y-30910000D02*
X46050000Y-26887500D01*
%TO.N,/RTC_INT*%
X39450000Y-41250000D02*
X40900000Y-42700000D01*
X36000000Y-34600000D02*
X35650000Y-34950000D01*
X41265000Y-55315000D02*
X40900000Y-54950000D01*
X39450000Y-40454800D02*
X39450000Y-41250000D01*
X36000000Y-31750000D02*
X36000000Y-34600000D01*
X42000000Y-25250000D02*
X42250000Y-25500000D01*
X35650000Y-36654800D02*
X39450000Y-40454800D01*
X41212500Y-25250000D02*
X42000000Y-25250000D01*
X43125000Y-55315000D02*
X41265000Y-55315000D01*
X40900000Y-42700000D02*
X40900000Y-54950000D01*
%TO.N,/BRIGHTNESS_POT*%
X36250000Y-26250000D02*
X36250000Y-27500000D01*
X37434314Y-24850000D02*
X36250000Y-26034314D01*
X36250000Y-27500000D02*
X31750000Y-32000000D01*
X26850000Y-53500000D02*
X22600000Y-57750000D01*
X29750000Y-53500000D02*
X26850000Y-53500000D01*
X36250000Y-26034314D02*
X36250000Y-26250000D01*
X22600000Y-57750000D02*
X22600000Y-60500000D01*
X41212500Y-24850000D02*
X37434314Y-24850000D01*
%TO.N,Net-(U6-OSCI)*%
X34650000Y-53450000D02*
X35900000Y-53450000D01*
X36495000Y-54045000D02*
X38175000Y-54045000D01*
X35900000Y-53450000D02*
X36495000Y-54045000D01*
%TO.N,Net-(U6-OSCO)*%
X36400000Y-55950000D02*
X34650000Y-55950000D01*
X37035000Y-55315000D02*
X36400000Y-55950000D01*
X38175000Y-55315000D02*
X37035000Y-55315000D01*
%TO.N,/SWCLK*%
X34000000Y-12000000D02*
X39115685Y-12000000D01*
X42790000Y-17540000D02*
X43650000Y-18400000D01*
X43650000Y-18400000D02*
X43650000Y-20012500D01*
X42693866Y-17540000D02*
X42790000Y-17540000D01*
X42000000Y-14884315D02*
X42000000Y-16846134D01*
X39115685Y-12000000D02*
X42000000Y-14884315D01*
X42000000Y-16846134D02*
X42693866Y-17540000D01*
%TO.N,/SWDIO*%
X42561071Y-17940000D02*
X43250000Y-18628929D01*
X31750000Y-16420000D02*
X34920000Y-13250000D01*
X39800000Y-13250000D02*
X41500000Y-14950000D01*
X34920000Y-13250000D02*
X39800000Y-13250000D01*
X42440000Y-17940000D02*
X42561071Y-17940000D01*
X43250000Y-18628929D02*
X43250000Y-20012500D01*
X41500000Y-17000000D02*
X42440000Y-17940000D01*
X41500000Y-14950000D02*
X41500000Y-17000000D01*
%TD*%
%TA.AperFunction,Conductor*%
%TO.N,GND*%
G36*
X45250000Y-86749999D02*
G01*
X45299972Y-86749999D01*
X45299986Y-86749998D01*
X45402697Y-86739505D01*
X45569119Y-86684358D01*
X45569124Y-86684356D01*
X45718345Y-86592315D01*
X45842315Y-86468345D01*
X45934356Y-86319124D01*
X45934358Y-86319119D01*
X45989505Y-86152697D01*
X45989506Y-86152690D01*
X45999999Y-86049986D01*
X46000000Y-86049973D01*
X46000000Y-85940710D01*
X46019685Y-85873671D01*
X46072489Y-85827916D01*
X46141647Y-85817972D01*
X46205203Y-85846997D01*
X46242977Y-85905775D01*
X46243761Y-85908564D01*
X46466697Y-86739506D01*
X47891262Y-92049251D01*
X47889621Y-92119101D01*
X47850477Y-92176977D01*
X47786258Y-92204501D01*
X47758896Y-92204741D01*
X47712491Y-92200000D01*
X46500000Y-92200000D01*
X46500000Y-94799999D01*
X47712472Y-94799999D01*
X47712486Y-94799998D01*
X47815197Y-94789505D01*
X47981619Y-94734358D01*
X47981624Y-94734356D01*
X48130845Y-94642315D01*
X48254817Y-94518343D01*
X48312257Y-94425218D01*
X48364205Y-94378493D01*
X48433167Y-94367270D01*
X48497249Y-94395113D01*
X48536106Y-94453182D01*
X48537560Y-94458182D01*
X48708111Y-95093868D01*
X48706471Y-95163718D01*
X48667327Y-95221593D01*
X48603108Y-95249118D01*
X48588347Y-95250000D01*
X44124000Y-95250000D01*
X44056961Y-95230315D01*
X44011206Y-95177511D01*
X44000000Y-95126000D01*
X44000000Y-94558077D01*
X44019685Y-94491038D01*
X44072489Y-94445283D01*
X44141647Y-94435339D01*
X44205203Y-94464364D01*
X44229539Y-94492981D01*
X44245182Y-94518343D01*
X44369154Y-94642315D01*
X44518375Y-94734356D01*
X44518380Y-94734358D01*
X44684802Y-94789505D01*
X44684809Y-94789506D01*
X44787519Y-94799999D01*
X45999999Y-94799999D01*
X46000000Y-94799998D01*
X46000000Y-92200000D01*
X44787528Y-92200000D01*
X44787512Y-92200001D01*
X44684802Y-92210494D01*
X44518380Y-92265641D01*
X44518375Y-92265643D01*
X44369154Y-92357684D01*
X44245182Y-92481656D01*
X44229538Y-92507020D01*
X44177590Y-92553744D01*
X44108627Y-92564965D01*
X44044545Y-92537121D01*
X44005690Y-92479052D01*
X44000000Y-92441922D01*
X44000000Y-89484752D01*
X44019685Y-89417713D01*
X44072489Y-89371958D01*
X44141647Y-89362014D01*
X44189098Y-89379214D01*
X44241512Y-89411544D01*
X44241518Y-89411547D01*
X44402393Y-89464855D01*
X44501683Y-89474999D01*
X45025000Y-89474999D01*
X45048308Y-89474999D01*
X45048322Y-89474998D01*
X45147607Y-89464855D01*
X45308481Y-89411547D01*
X45308492Y-89411542D01*
X45452728Y-89322575D01*
X45452732Y-89322572D01*
X45572572Y-89202732D01*
X45572575Y-89202728D01*
X45661542Y-89058492D01*
X45661547Y-89058481D01*
X45714855Y-88897606D01*
X45724999Y-88798322D01*
X45725000Y-88798309D01*
X45725000Y-88750000D01*
X45025000Y-88750000D01*
X45025000Y-89474999D01*
X44501683Y-89474999D01*
X44525000Y-89474998D01*
X44525000Y-88250000D01*
X45025000Y-88250000D01*
X45724999Y-88250000D01*
X45724999Y-88201692D01*
X45724998Y-88201677D01*
X45714855Y-88102392D01*
X45661547Y-87941518D01*
X45661542Y-87941507D01*
X45572575Y-87797271D01*
X45572572Y-87797267D01*
X45452732Y-87677427D01*
X45452728Y-87677424D01*
X45308492Y-87588457D01*
X45308481Y-87588452D01*
X45147606Y-87535144D01*
X45048322Y-87525000D01*
X45025000Y-87525000D01*
X45025000Y-88250000D01*
X44525000Y-88250000D01*
X44525000Y-87524999D01*
X44501693Y-87525000D01*
X44501674Y-87525001D01*
X44402392Y-87535144D01*
X44241518Y-87588452D01*
X44241513Y-87588454D01*
X44189097Y-87620786D01*
X44121705Y-87639226D01*
X44055041Y-87618304D01*
X44010271Y-87564662D01*
X44000000Y-87515247D01*
X44000000Y-86610023D01*
X44019685Y-86542984D01*
X44072489Y-86497229D01*
X44141647Y-86487285D01*
X44205203Y-86516310D01*
X44211681Y-86522342D01*
X44281654Y-86592315D01*
X44430875Y-86684356D01*
X44430880Y-86684358D01*
X44597302Y-86739505D01*
X44597309Y-86739506D01*
X44700019Y-86749999D01*
X44749999Y-86749998D01*
X44750000Y-86749998D01*
X44750000Y-85000000D01*
X45250000Y-85000000D01*
X45250000Y-86749999D01*
G37*
%TD.AperFunction*%
%TD*%
%TA.AperFunction,Conductor*%
%TO.N,+5V*%
G36*
X14600000Y-86749999D02*
G01*
X14649972Y-86749999D01*
X14649986Y-86749998D01*
X14752695Y-86739506D01*
X14836995Y-86711571D01*
X14906823Y-86709169D01*
X14966865Y-86744900D01*
X14998059Y-86807420D01*
X15000000Y-86829277D01*
X15000000Y-87172205D01*
X14980315Y-87239244D01*
X14927511Y-87284999D01*
X14858353Y-87294943D01*
X14837002Y-87289913D01*
X14822608Y-87285144D01*
X14723322Y-87275000D01*
X14700000Y-87275000D01*
X14700000Y-89224999D01*
X14723308Y-89224999D01*
X14723322Y-89224998D01*
X14822607Y-89214855D01*
X14836991Y-89210089D01*
X14906820Y-89207684D01*
X14966863Y-89243413D01*
X14998058Y-89305933D01*
X15000000Y-89327793D01*
X15000000Y-95126000D01*
X14980315Y-95193039D01*
X14927511Y-95238794D01*
X14876000Y-95250000D01*
X9624000Y-95250000D01*
X9556961Y-95230315D01*
X9511206Y-95177511D01*
X9500000Y-95126000D01*
X9500000Y-94099986D01*
X10262501Y-94099986D01*
X10272994Y-94202697D01*
X10328141Y-94369119D01*
X10328143Y-94369124D01*
X10420184Y-94518345D01*
X10544154Y-94642315D01*
X10693375Y-94734356D01*
X10693380Y-94734358D01*
X10859802Y-94789505D01*
X10859809Y-94789506D01*
X10962519Y-94799999D01*
X12174999Y-94799999D01*
X12675000Y-94799999D01*
X13887472Y-94799999D01*
X13887486Y-94799998D01*
X13990197Y-94789505D01*
X14156619Y-94734358D01*
X14156624Y-94734356D01*
X14305845Y-94642315D01*
X14429815Y-94518345D01*
X14521856Y-94369124D01*
X14521858Y-94369119D01*
X14577005Y-94202697D01*
X14577006Y-94202690D01*
X14587499Y-94099986D01*
X14587500Y-94099973D01*
X14587500Y-93750000D01*
X12675000Y-93750000D01*
X12675000Y-94799999D01*
X12174999Y-94799999D01*
X12175000Y-94799998D01*
X12175000Y-93750000D01*
X10262501Y-93750000D01*
X10262501Y-94099986D01*
X9500000Y-94099986D01*
X9500000Y-92900013D01*
X10262500Y-92900013D01*
X10262500Y-93250000D01*
X12175000Y-93250000D01*
X12675000Y-93250000D01*
X14587499Y-93250000D01*
X14587499Y-92900028D01*
X14587498Y-92900013D01*
X14577005Y-92797302D01*
X14521858Y-92630880D01*
X14521856Y-92630875D01*
X14429815Y-92481654D01*
X14305845Y-92357684D01*
X14156624Y-92265643D01*
X14156619Y-92265641D01*
X13990197Y-92210494D01*
X13990190Y-92210493D01*
X13887486Y-92200000D01*
X12675000Y-92200000D01*
X12675000Y-93250000D01*
X12175000Y-93250000D01*
X12175000Y-92200000D01*
X10962528Y-92200000D01*
X10962512Y-92200001D01*
X10859802Y-92210494D01*
X10693380Y-92265641D01*
X10693375Y-92265643D01*
X10544154Y-92357684D01*
X10420184Y-92481654D01*
X10328143Y-92630875D01*
X10328141Y-92630880D01*
X10272994Y-92797302D01*
X10272993Y-92797309D01*
X10262500Y-92900013D01*
X9500000Y-92900013D01*
X9500000Y-91044263D01*
X9519685Y-90977224D01*
X9528029Y-90965742D01*
X10937208Y-89243413D01*
X11505918Y-88548322D01*
X13500001Y-88548322D01*
X13510144Y-88647607D01*
X13563452Y-88808481D01*
X13563457Y-88808492D01*
X13652424Y-88952728D01*
X13652427Y-88952732D01*
X13772267Y-89072572D01*
X13772271Y-89072575D01*
X13916507Y-89161542D01*
X13916518Y-89161547D01*
X14077393Y-89214855D01*
X14176683Y-89224999D01*
X14200000Y-89224998D01*
X14200000Y-88500000D01*
X13500001Y-88500000D01*
X13500001Y-88548322D01*
X11505918Y-88548322D01*
X11746085Y-88254785D01*
X11754375Y-88245625D01*
X12048323Y-87951677D01*
X13500000Y-87951677D01*
X13500000Y-88000000D01*
X14200000Y-88000000D01*
X14200000Y-87274999D01*
X14176693Y-87275000D01*
X14176674Y-87275001D01*
X14077392Y-87285144D01*
X13916518Y-87338452D01*
X13916507Y-87338457D01*
X13772271Y-87427424D01*
X13772267Y-87427427D01*
X13652427Y-87547267D01*
X13652424Y-87547271D01*
X13563457Y-87691507D01*
X13563452Y-87691518D01*
X13510144Y-87852393D01*
X13500000Y-87951677D01*
X12048323Y-87951677D01*
X12452733Y-87547267D01*
X13250000Y-86750000D01*
X13250000Y-86487811D01*
X13269685Y-86420772D01*
X13322489Y-86375017D01*
X13391647Y-86365073D01*
X13455203Y-86394098D01*
X13479539Y-86422715D01*
X13507682Y-86468343D01*
X13631654Y-86592315D01*
X13780875Y-86684356D01*
X13780880Y-86684358D01*
X13947302Y-86739505D01*
X13947309Y-86739506D01*
X14050019Y-86749999D01*
X14099999Y-86749998D01*
X14100000Y-86749998D01*
X14100000Y-85250000D01*
X14600000Y-85250000D01*
X14600000Y-86749999D01*
G37*
%TD.AperFunction*%
%TD*%
%TA.AperFunction,Conductor*%
%TO.N,GND*%
G36*
X30693039Y-83519685D02*
G01*
X30738794Y-83572489D01*
X30750000Y-83624000D01*
X30750000Y-86749999D01*
X30799972Y-86749999D01*
X30799986Y-86749998D01*
X30902697Y-86739505D01*
X31069119Y-86684358D01*
X31069124Y-86684356D01*
X31218345Y-86592315D01*
X31342317Y-86468343D01*
X31393302Y-86385683D01*
X31445249Y-86338958D01*
X31514212Y-86327735D01*
X31578294Y-86355578D01*
X31617151Y-86413647D01*
X31622734Y-86445617D01*
X31632682Y-86684357D01*
X31750000Y-89500000D01*
X34208953Y-91713057D01*
X34245613Y-91772534D01*
X34250000Y-91805224D01*
X34250000Y-95126000D01*
X34230315Y-95193039D01*
X34177511Y-95238794D01*
X34126000Y-95250000D01*
X29624000Y-95250000D01*
X29556961Y-95230315D01*
X29511206Y-95177511D01*
X29500000Y-95126000D01*
X29500000Y-94767865D01*
X29519685Y-94700826D01*
X29572489Y-94655071D01*
X29641647Y-94645127D01*
X29689097Y-94662326D01*
X29805875Y-94734356D01*
X29805880Y-94734358D01*
X29972302Y-94789505D01*
X29972309Y-94789506D01*
X30075019Y-94799999D01*
X31287499Y-94799999D01*
X31787500Y-94799999D01*
X32999972Y-94799999D01*
X32999986Y-94799998D01*
X33102697Y-94789505D01*
X33269119Y-94734358D01*
X33269124Y-94734356D01*
X33418345Y-94642315D01*
X33542315Y-94518345D01*
X33634356Y-94369124D01*
X33634358Y-94369119D01*
X33689505Y-94202697D01*
X33689506Y-94202690D01*
X33699999Y-94099986D01*
X33700000Y-94099973D01*
X33700000Y-93750000D01*
X31787500Y-93750000D01*
X31787500Y-94799999D01*
X31287499Y-94799999D01*
X31287500Y-94799998D01*
X31287500Y-93250000D01*
X31787500Y-93250000D01*
X33699999Y-93250000D01*
X33699999Y-92900028D01*
X33699998Y-92900013D01*
X33689505Y-92797302D01*
X33634358Y-92630880D01*
X33634356Y-92630875D01*
X33542315Y-92481654D01*
X33418345Y-92357684D01*
X33269124Y-92265643D01*
X33269119Y-92265641D01*
X33102697Y-92210494D01*
X33102690Y-92210493D01*
X32999986Y-92200000D01*
X31787500Y-92200000D01*
X31787500Y-93250000D01*
X31287500Y-93250000D01*
X31287500Y-92200000D01*
X30075028Y-92200000D01*
X30075012Y-92200001D01*
X29972302Y-92210494D01*
X29805880Y-92265641D01*
X29805871Y-92265645D01*
X29689096Y-92337673D01*
X29621704Y-92356113D01*
X29555040Y-92335190D01*
X29510271Y-92281548D01*
X29500000Y-92232134D01*
X29500000Y-89484752D01*
X29519685Y-89417713D01*
X29572489Y-89371958D01*
X29641647Y-89362014D01*
X29689098Y-89379214D01*
X29741512Y-89411544D01*
X29741518Y-89411547D01*
X29902393Y-89464855D01*
X30001683Y-89474999D01*
X30525000Y-89474999D01*
X30548308Y-89474999D01*
X30548322Y-89474998D01*
X30647607Y-89464855D01*
X30808481Y-89411547D01*
X30808492Y-89411542D01*
X30952728Y-89322575D01*
X30952732Y-89322572D01*
X31072572Y-89202732D01*
X31072575Y-89202728D01*
X31161542Y-89058492D01*
X31161547Y-89058481D01*
X31214855Y-88897606D01*
X31224999Y-88798322D01*
X31225000Y-88798309D01*
X31225000Y-88750000D01*
X30525000Y-88750000D01*
X30525000Y-89474999D01*
X30001683Y-89474999D01*
X30025000Y-89474998D01*
X30025000Y-88250000D01*
X30525000Y-88250000D01*
X31224999Y-88250000D01*
X31224999Y-88201692D01*
X31224998Y-88201677D01*
X31214855Y-88102392D01*
X31161547Y-87941518D01*
X31161542Y-87941507D01*
X31072575Y-87797271D01*
X31072572Y-87797267D01*
X30952732Y-87677427D01*
X30952728Y-87677424D01*
X30808492Y-87588457D01*
X30808481Y-87588452D01*
X30647606Y-87535144D01*
X30548322Y-87525000D01*
X30525000Y-87525000D01*
X30525000Y-88250000D01*
X30025000Y-88250000D01*
X30025000Y-87524999D01*
X30001693Y-87525000D01*
X30001674Y-87525001D01*
X29902391Y-87535144D01*
X29866043Y-87547188D01*
X29796214Y-87549588D01*
X29736173Y-87513855D01*
X29704983Y-87451333D01*
X29703800Y-87415797D01*
X29750000Y-87000000D01*
X29750000Y-86794654D01*
X29769685Y-86727615D01*
X29822489Y-86681860D01*
X29891647Y-86671916D01*
X29926403Y-86682271D01*
X29930877Y-86684357D01*
X30097302Y-86739505D01*
X30097309Y-86739506D01*
X30200019Y-86749999D01*
X30249999Y-86749998D01*
X30250000Y-86749998D01*
X30250000Y-83624000D01*
X30269685Y-83556961D01*
X30322489Y-83511206D01*
X30374000Y-83500000D01*
X30626000Y-83500000D01*
X30693039Y-83519685D01*
G37*
%TD.AperFunction*%
%TD*%
%TA.AperFunction,Conductor*%
%TO.N,+5V*%
G36*
X28693039Y-83519685D02*
G01*
X28738794Y-83572489D01*
X28750000Y-83624000D01*
X28750000Y-86749999D01*
X28799972Y-86749999D01*
X28799986Y-86749998D01*
X28902697Y-86739505D01*
X29069119Y-86684358D01*
X29069124Y-86684356D01*
X29218345Y-86592315D01*
X29288319Y-86522342D01*
X29349642Y-86488857D01*
X29419334Y-86493841D01*
X29475267Y-86535713D01*
X29499684Y-86601177D01*
X29500000Y-86610023D01*
X29500000Y-87382549D01*
X29499654Y-87391802D01*
X29499556Y-87393101D01*
X29498414Y-87422616D01*
X29498413Y-87422655D01*
X29499818Y-87464831D01*
X29499653Y-87464836D01*
X29500000Y-87469754D01*
X29500000Y-87515247D01*
X29480315Y-87582286D01*
X29427511Y-87628041D01*
X29358353Y-87637985D01*
X29310903Y-87620786D01*
X29258486Y-87588454D01*
X29258481Y-87588452D01*
X29097606Y-87535144D01*
X28998322Y-87525000D01*
X28975000Y-87525000D01*
X28975000Y-89474999D01*
X28998308Y-89474999D01*
X28998322Y-89474998D01*
X29097605Y-89464856D01*
X29131495Y-89453626D01*
X29201324Y-89451224D01*
X29261366Y-89486955D01*
X29292559Y-89549476D01*
X29294500Y-89571332D01*
X29294500Y-89765219D01*
X29292092Y-89789537D01*
X29000000Y-91249999D01*
X29000000Y-95126000D01*
X28980315Y-95193039D01*
X28927511Y-95238794D01*
X28876000Y-95250000D01*
X24131508Y-95250000D01*
X24064469Y-95230315D01*
X24018714Y-95177511D01*
X24007722Y-95118719D01*
X24062044Y-94195237D01*
X24085631Y-94129472D01*
X24141031Y-94086896D01*
X24210654Y-94081031D01*
X24272396Y-94113738D01*
X24306653Y-94174633D01*
X24309188Y-94189915D01*
X24310494Y-94202697D01*
X24365641Y-94369119D01*
X24365643Y-94369124D01*
X24457684Y-94518345D01*
X24581654Y-94642315D01*
X24730875Y-94734356D01*
X24730880Y-94734358D01*
X24897302Y-94789505D01*
X24897309Y-94789506D01*
X25000019Y-94799999D01*
X26212499Y-94799999D01*
X26712500Y-94799999D01*
X27924972Y-94799999D01*
X27924986Y-94799998D01*
X28027697Y-94789505D01*
X28194119Y-94734358D01*
X28194124Y-94734356D01*
X28343345Y-94642315D01*
X28467315Y-94518345D01*
X28559356Y-94369124D01*
X28559358Y-94369119D01*
X28614505Y-94202697D01*
X28614506Y-94202690D01*
X28624999Y-94099986D01*
X28625000Y-94099973D01*
X28625000Y-93750000D01*
X26712500Y-93750000D01*
X26712500Y-94799999D01*
X26212499Y-94799999D01*
X26212500Y-94799998D01*
X26212500Y-93250000D01*
X26712500Y-93250000D01*
X28624999Y-93250000D01*
X28624999Y-92900028D01*
X28624998Y-92900013D01*
X28614505Y-92797302D01*
X28559358Y-92630880D01*
X28559356Y-92630875D01*
X28467315Y-92481654D01*
X28343345Y-92357684D01*
X28194124Y-92265643D01*
X28194119Y-92265641D01*
X28027697Y-92210494D01*
X28027690Y-92210493D01*
X27924986Y-92200000D01*
X26712500Y-92200000D01*
X26712500Y-93250000D01*
X26212500Y-93250000D01*
X26212500Y-92200000D01*
X25000028Y-92200000D01*
X25000012Y-92200001D01*
X24897302Y-92210494D01*
X24730880Y-92265641D01*
X24730875Y-92265643D01*
X24581654Y-92357684D01*
X24457683Y-92481655D01*
X24457680Y-92481659D01*
X24389967Y-92591439D01*
X24338019Y-92638164D01*
X24269057Y-92649385D01*
X24204975Y-92621542D01*
X24166119Y-92563473D01*
X24160643Y-92519062D01*
X24246453Y-91060289D01*
X24270040Y-90994524D01*
X24299653Y-90965624D01*
X27430202Y-88798322D01*
X27775001Y-88798322D01*
X27785144Y-88897607D01*
X27838452Y-89058481D01*
X27838457Y-89058492D01*
X27927424Y-89202728D01*
X27927427Y-89202732D01*
X28047267Y-89322572D01*
X28047271Y-89322575D01*
X28191507Y-89411542D01*
X28191518Y-89411547D01*
X28352393Y-89464855D01*
X28451683Y-89474999D01*
X28475000Y-89474998D01*
X28475000Y-88750000D01*
X27775001Y-88750000D01*
X27775001Y-88798322D01*
X27430202Y-88798322D01*
X27500000Y-88750000D01*
X27500000Y-88201677D01*
X27775000Y-88201677D01*
X27775000Y-88250000D01*
X28475000Y-88250000D01*
X28475000Y-87524999D01*
X28451693Y-87525000D01*
X28451674Y-87525001D01*
X28352392Y-87535144D01*
X28191518Y-87588452D01*
X28191507Y-87588457D01*
X28047271Y-87677424D01*
X28047267Y-87677427D01*
X27927427Y-87797267D01*
X27927424Y-87797271D01*
X27838457Y-87941507D01*
X27838452Y-87941518D01*
X27785144Y-88102393D01*
X27775000Y-88201677D01*
X27500000Y-88201677D01*
X27500000Y-86610023D01*
X27519685Y-86542984D01*
X27572489Y-86497229D01*
X27641647Y-86487285D01*
X27705203Y-86516310D01*
X27711681Y-86522342D01*
X27781654Y-86592315D01*
X27930875Y-86684356D01*
X27930880Y-86684358D01*
X28097302Y-86739505D01*
X28097309Y-86739506D01*
X28200019Y-86749999D01*
X28249999Y-86749998D01*
X28250000Y-86749998D01*
X28250000Y-83624000D01*
X28269685Y-83556961D01*
X28322489Y-83511206D01*
X28374000Y-83500000D01*
X28626000Y-83500000D01*
X28693039Y-83519685D01*
G37*
%TD.AperFunction*%
%TD*%
%TA.AperFunction,Conductor*%
%TO.N,GND*%
G36*
X16600000Y-86749999D02*
G01*
X16649972Y-86749999D01*
X16649986Y-86749998D01*
X16752697Y-86739505D01*
X16919119Y-86684358D01*
X16919124Y-86684356D01*
X17068345Y-86592315D01*
X17192315Y-86468345D01*
X17284356Y-86319124D01*
X17284358Y-86319119D01*
X17339505Y-86152697D01*
X17339506Y-86152690D01*
X17349999Y-86049986D01*
X17350000Y-86049973D01*
X17350000Y-85594864D01*
X17369685Y-85527825D01*
X17422489Y-85482070D01*
X17491647Y-85472126D01*
X17555203Y-85501151D01*
X17592769Y-85559232D01*
X17865503Y-86468343D01*
X19598746Y-92245822D01*
X19599156Y-92315690D01*
X19561726Y-92374689D01*
X19498342Y-92404085D01*
X19429126Y-92394547D01*
X19392295Y-92369134D01*
X19380845Y-92357684D01*
X19231624Y-92265643D01*
X19231619Y-92265641D01*
X19065197Y-92210494D01*
X19065190Y-92210493D01*
X18962486Y-92200000D01*
X17750000Y-92200000D01*
X17750000Y-94799999D01*
X18962472Y-94799999D01*
X18962486Y-94799998D01*
X19065197Y-94789505D01*
X19231619Y-94734358D01*
X19231624Y-94734356D01*
X19380845Y-94642315D01*
X19504817Y-94518343D01*
X19520461Y-94492981D01*
X19572409Y-94446256D01*
X19641371Y-94435033D01*
X19705454Y-94462877D01*
X19744310Y-94520945D01*
X19750000Y-94558077D01*
X19750000Y-95126000D01*
X19730315Y-95193039D01*
X19677511Y-95238794D01*
X19626000Y-95250000D01*
X15374000Y-95250000D01*
X15306961Y-95230315D01*
X15261206Y-95177511D01*
X15250000Y-95126000D01*
X15250000Y-94558077D01*
X15269685Y-94491038D01*
X15322489Y-94445283D01*
X15391647Y-94435339D01*
X15455203Y-94464364D01*
X15479539Y-94492981D01*
X15495182Y-94518343D01*
X15619154Y-94642315D01*
X15768375Y-94734356D01*
X15768380Y-94734358D01*
X15934802Y-94789505D01*
X15934809Y-94789506D01*
X16037519Y-94799999D01*
X17249999Y-94799999D01*
X17250000Y-94799998D01*
X17250000Y-92200000D01*
X16037528Y-92200000D01*
X16037512Y-92200001D01*
X15934802Y-92210494D01*
X15768380Y-92265641D01*
X15768375Y-92265643D01*
X15619154Y-92357684D01*
X15495182Y-92481656D01*
X15479538Y-92507020D01*
X15427590Y-92553744D01*
X15358627Y-92564965D01*
X15294545Y-92537121D01*
X15255690Y-92479052D01*
X15250000Y-92441922D01*
X15250000Y-89250173D01*
X15269685Y-89183134D01*
X15322489Y-89137379D01*
X15391647Y-89127435D01*
X15439098Y-89144635D01*
X15466511Y-89161544D01*
X15466518Y-89161547D01*
X15627393Y-89214855D01*
X15726683Y-89224999D01*
X16250000Y-89224999D01*
X16273308Y-89224999D01*
X16273322Y-89224998D01*
X16372607Y-89214855D01*
X16533481Y-89161547D01*
X16533492Y-89161542D01*
X16677728Y-89072575D01*
X16677732Y-89072572D01*
X16797572Y-88952732D01*
X16797575Y-88952728D01*
X16886542Y-88808492D01*
X16886547Y-88808481D01*
X16939855Y-88647606D01*
X16949999Y-88548322D01*
X16950000Y-88548309D01*
X16950000Y-88500000D01*
X16250000Y-88500000D01*
X16250000Y-89224999D01*
X15726683Y-89224999D01*
X15750000Y-89224998D01*
X15750000Y-88000000D01*
X16250000Y-88000000D01*
X16949999Y-88000000D01*
X16949999Y-87951692D01*
X16949998Y-87951677D01*
X16939855Y-87852392D01*
X16886547Y-87691518D01*
X16886542Y-87691507D01*
X16797575Y-87547271D01*
X16797572Y-87547267D01*
X16677732Y-87427427D01*
X16677728Y-87427424D01*
X16533492Y-87338457D01*
X16533481Y-87338452D01*
X16372606Y-87285144D01*
X16273322Y-87275000D01*
X16250000Y-87275000D01*
X16250000Y-88000000D01*
X15750000Y-88000000D01*
X15750000Y-87274999D01*
X15726693Y-87275000D01*
X15726674Y-87275001D01*
X15627392Y-87285144D01*
X15466518Y-87338452D01*
X15466511Y-87338455D01*
X15439095Y-87355366D01*
X15371703Y-87373805D01*
X15305039Y-87352881D01*
X15260271Y-87299239D01*
X15250000Y-87249826D01*
X15250000Y-86487811D01*
X15269685Y-86420772D01*
X15322489Y-86375017D01*
X15391647Y-86365073D01*
X15455203Y-86394098D01*
X15479539Y-86422715D01*
X15507682Y-86468343D01*
X15631654Y-86592315D01*
X15780875Y-86684356D01*
X15780880Y-86684358D01*
X15947302Y-86739505D01*
X15947309Y-86739506D01*
X16050019Y-86749999D01*
X16099999Y-86749998D01*
X16100000Y-86749998D01*
X16100000Y-85250000D01*
X16600000Y-85250000D01*
X16600000Y-86749999D01*
G37*
%TD.AperFunction*%
%TD*%
%TA.AperFunction,Conductor*%
%TO.N,+5V*%
G36*
X43250000Y-86749999D02*
G01*
X43299972Y-86749999D01*
X43299986Y-86749998D01*
X43402697Y-86739505D01*
X43569119Y-86684358D01*
X43569130Y-86684353D01*
X43605403Y-86661980D01*
X43672795Y-86643539D01*
X43739459Y-86664461D01*
X43784229Y-86718103D01*
X43794500Y-86767518D01*
X43794500Y-87428667D01*
X43774815Y-87495706D01*
X43722011Y-87541461D01*
X43652853Y-87551405D01*
X43631498Y-87546374D01*
X43597606Y-87535143D01*
X43498322Y-87525000D01*
X43475000Y-87525000D01*
X43475000Y-89474999D01*
X43498308Y-89474999D01*
X43498322Y-89474998D01*
X43597605Y-89464856D01*
X43631495Y-89453626D01*
X43701324Y-89451224D01*
X43761366Y-89486955D01*
X43792559Y-89549476D01*
X43794500Y-89571332D01*
X43794500Y-92441932D01*
X43796871Y-92473053D01*
X43802558Y-92510173D01*
X43802560Y-92510179D01*
X43806983Y-92521552D01*
X43815376Y-92569515D01*
X43786585Y-93750000D01*
X43753025Y-95126000D01*
X43752951Y-95129023D01*
X43731638Y-95195563D01*
X43677734Y-95240017D01*
X43628988Y-95250000D01*
X38874000Y-95250000D01*
X38806961Y-95230315D01*
X38761206Y-95177511D01*
X38750000Y-95126000D01*
X38750000Y-94099986D01*
X39012501Y-94099986D01*
X39022994Y-94202697D01*
X39078141Y-94369119D01*
X39078143Y-94369124D01*
X39170184Y-94518345D01*
X39294154Y-94642315D01*
X39443375Y-94734356D01*
X39443380Y-94734358D01*
X39609802Y-94789505D01*
X39609809Y-94789506D01*
X39712519Y-94799999D01*
X40924999Y-94799999D01*
X41425000Y-94799999D01*
X42637472Y-94799999D01*
X42637486Y-94799998D01*
X42740197Y-94789505D01*
X42906619Y-94734358D01*
X42906624Y-94734356D01*
X43055845Y-94642315D01*
X43179815Y-94518345D01*
X43271856Y-94369124D01*
X43271858Y-94369119D01*
X43327005Y-94202697D01*
X43327006Y-94202690D01*
X43337499Y-94099986D01*
X43337500Y-94099973D01*
X43337500Y-93750000D01*
X41425000Y-93750000D01*
X41425000Y-94799999D01*
X40924999Y-94799999D01*
X40925000Y-94799998D01*
X40925000Y-93750000D01*
X39012501Y-93750000D01*
X39012501Y-94099986D01*
X38750000Y-94099986D01*
X38750000Y-92900013D01*
X39012500Y-92900013D01*
X39012500Y-93250000D01*
X40925000Y-93250000D01*
X41425000Y-93250000D01*
X43337499Y-93250000D01*
X43337499Y-92900028D01*
X43337498Y-92900013D01*
X43327005Y-92797302D01*
X43271858Y-92630880D01*
X43271856Y-92630875D01*
X43179815Y-92481654D01*
X43055845Y-92357684D01*
X42906624Y-92265643D01*
X42906619Y-92265641D01*
X42740197Y-92210494D01*
X42740190Y-92210493D01*
X42637486Y-92200000D01*
X41425000Y-92200000D01*
X41425000Y-93250000D01*
X40925000Y-93250000D01*
X40925000Y-92200000D01*
X39712528Y-92200000D01*
X39712512Y-92200001D01*
X39609802Y-92210494D01*
X39443380Y-92265641D01*
X39443375Y-92265643D01*
X39294154Y-92357684D01*
X39170184Y-92481654D01*
X39078143Y-92630875D01*
X39078141Y-92630880D01*
X39022994Y-92797302D01*
X39022993Y-92797309D01*
X39012500Y-92900013D01*
X38750000Y-92900013D01*
X38750000Y-91811057D01*
X38769685Y-91744018D01*
X38798396Y-91712772D01*
X42000000Y-89250000D01*
X42000000Y-88798322D01*
X42275001Y-88798322D01*
X42285144Y-88897607D01*
X42338452Y-89058481D01*
X42338457Y-89058492D01*
X42427424Y-89202728D01*
X42427427Y-89202732D01*
X42547267Y-89322572D01*
X42547271Y-89322575D01*
X42691507Y-89411542D01*
X42691518Y-89411547D01*
X42852393Y-89464855D01*
X42951683Y-89474999D01*
X42975000Y-89474998D01*
X42975000Y-88750000D01*
X42275001Y-88750000D01*
X42275001Y-88798322D01*
X42000000Y-88798322D01*
X42000000Y-88201677D01*
X42275000Y-88201677D01*
X42275000Y-88250000D01*
X42975000Y-88250000D01*
X42975000Y-87524999D01*
X42951693Y-87525000D01*
X42951674Y-87525001D01*
X42852392Y-87535144D01*
X42691518Y-87588452D01*
X42691507Y-87588457D01*
X42547271Y-87677424D01*
X42547267Y-87677427D01*
X42427427Y-87797267D01*
X42427424Y-87797271D01*
X42338457Y-87941507D01*
X42338452Y-87941518D01*
X42285144Y-88102393D01*
X42275000Y-88201677D01*
X42000000Y-88201677D01*
X42000000Y-86610023D01*
X42019685Y-86542984D01*
X42072489Y-86497229D01*
X42141647Y-86487285D01*
X42205203Y-86516310D01*
X42211681Y-86522342D01*
X42281654Y-86592315D01*
X42430875Y-86684356D01*
X42430880Y-86684358D01*
X42597302Y-86739505D01*
X42597309Y-86739506D01*
X42700019Y-86749999D01*
X42749999Y-86749998D01*
X42750000Y-86749998D01*
X42750000Y-85000000D01*
X43250000Y-85000000D01*
X43250000Y-86749999D01*
G37*
%TD.AperFunction*%
%TD*%
M02*
